<svg width="114" height="89" viewBox="0 0 114 89" fill="none" xmlns="http://www.w3.org/2000/svg">
<path d="M113.07 57.3008L113.07 30.6961L106.931 30.6961L106.931 57.3008L113.07 57.3008Z" fill="#000002"/>
<rect width="12.2791" height="6.13953" transform="matrix(4.37114e-08 -1 -1 -4.37114e-08 106.932 30.6992)" fill="#000002"/>
<rect width="12.2791" height="6.13953" transform="matrix(4.37114e-08 -1 -1 -4.37114e-08 106.932 69.582)" fill="#000002"/>
<path d="M100.791 18.418L100.791 12.2784L94.6515 12.2784L94.6515 18.418L100.791 18.418Z" fill="#000002"/>
<path d="M100.791 74.6992L100.791 68.5597L94.6515 68.5597L94.6515 74.6992L100.791 74.6992Z" fill="#000002"/>
<path d="M94.6523 12.2773L94.6523 6.13781L78.7919 6.13781L78.7919 12.2773L94.6523 12.2773Z" fill="#000002"/>
<path d="M55.7676 12.2773L55.7676 6.13781L42.9769 6.13781L42.9769 12.2773L55.7676 12.2773Z" fill="#000002"/>
<path d="M42.9766 18.418L42.9766 12.2784L36.837 12.2784L36.837 18.418L42.9766 18.418Z" fill="#000002"/>
<path d="M36.8379 30.6992L36.8379 18.4201L30.6984 18.4201L30.6984 30.6992L36.8379 30.6992Z" fill="#000002"/>
<path d="M42.9766 69.582L42.9766 75.7216L36.837 75.7216L36.837 69.582L42.9766 69.582Z" fill="#000002"/>
<path d="M12.2793 69.582L12.2793 75.7216L6.13976 75.7216L6.13976 69.582L12.2793 69.582Z" fill="#000002"/>
<path d="M12.2793 81.8594L12.2793 87.9989L6.13976 87.9989L6.13976 81.8594L12.2793 81.8594Z" fill="#000002"/>
<path d="M6.14062 75.7227L6.14062 88.0017L0.00108951 88.0017L0.00109005 75.7227L6.14062 75.7227Z" fill="#000002"/>
<path d="M36.8379 57.3008L36.8379 69.5799L30.6984 69.5799L30.6984 57.3008L36.8379 57.3008Z" fill="#000002"/>
<path d="M36.8379 63.4414L36.8379 69.5809L12.2798 69.5809L12.2798 63.4414L36.8379 63.4414Z" fill="black"/>
<path d="M36.8379 75.7227L36.8379 81.8622L12.2798 81.8622L12.2798 75.7227L36.8379 75.7227Z" fill="#000002"/>
<path d="M30.6973 30.6992L30.6973 57.3039L24.5577 57.3039L24.5577 30.6992L30.6973 30.6992Z" fill="#000002"/>
<path d="M55.2559 81.8594L55.2559 75.7198L42.9768 75.7198L42.9768 81.8594L55.2559 81.8594Z" fill="#000002"/>
<path d="M94.6523 81.8594L94.6523 74.6966L78.7919 74.6966L78.7919 81.8594L94.6523 81.8594Z" fill="#000002"/>
<path d="M81.3496 88L81.3496 81.8605L55.2566 81.8605L55.2566 88L81.3496 88Z" fill="#000002"/>
<path d="M81.3496 6.14062L81.3496 0.00109005L55.7682 0.00108893L55.7682 6.14062L81.3496 6.14062Z" fill="#000002"/>
<path d="M12.2812 75.7227L12.2812 81.8622L6.14171 81.8622L6.14172 75.7227L12.2812 75.7227Z" fill="#E14141"/>
<path d="M36.8379 51.1641L36.8379 57.3036L30.6984 57.3036L30.6984 51.1641L36.8379 51.1641Z" fill="#E14141"/>
<path d="M42.9785 63.957L42.9785 69.5849L36.839 69.5849L36.839 63.957L42.9785 63.957Z" fill="#E14141"/>
<path d="M55.2578 62.4219L55.2578 68.5614L49.1183 68.5614L49.1183 62.4219L55.2578 62.4219Z" fill="#E14141"/>
<path d="M42.9785 37.3516L42.9785 49.6306L36.839 49.6306L36.839 37.3516L42.9785 37.3516Z" fill="#E14141"/>
<path d="M49.1172 31.2109L49.1172 37.3505L42.9777 37.3505L42.9777 31.2109L49.1172 31.2109Z" fill="#E14141"/>
<path d="M61.3965 31.2109L61.3965 37.3505L55.2569 37.3505L55.2569 31.2109L61.3965 31.2109Z" fill="#E14141"/>
<path d="M55.2578 37.3516L55.2578 50.1423L49.1183 50.1423L49.1183 37.3516L55.2578 37.3516Z" fill="#E14141"/>
<path d="M61.3965 49.6289L61.3965 62.4196L55.2569 62.4196L55.2569 49.6289L61.3965 49.6289Z" fill="#E14141"/>
<path d="M67.5371 62.4219L67.5371 68.5614L61.3976 68.5614L61.3976 62.4219L67.5371 62.4219Z" fill="#E14141"/>
<path d="M73.6758 55.7695L73.6758 62.4207L67.5362 62.4207L67.5362 55.7695L73.6758 55.7695Z" fill="#E14141"/>
<path d="M74.1875 31.2109L74.1875 37.3505L67.5363 37.3505L67.5363 31.2109L74.1875 31.2109Z" fill="#E14141"/>
<path d="M81.3496 37.3516L81.3496 43.4911L74.1868 43.4911L74.1868 37.3516L81.3496 37.3516Z" fill="#E14141"/>
<path d="M87.4902 49.6289L87.4902 55.7684L73.6763 55.7684L73.6763 49.6289L87.4902 49.6289Z" fill="#E14141"/>
<path d="M100.793 49.6289L100.793 55.7684L94.6534 55.7684L94.6534 49.6289L100.793 49.6289Z" fill="#E14141"/>
<path d="M94.6523 55.7695L94.6523 62.4207L87.4896 62.4207L87.4896 55.7695L94.6523 55.7695Z" fill="#E14141"/>
<path d="M94.6523 68.5625L94.6523 74.702L87.4896 74.702L87.4896 68.5625L94.6523 68.5625Z" fill="#E14141"/>
<path d="M81.8613 12.2812L81.8613 24.5603L75.2102 24.5603L75.2102 12.2812L81.8613 12.2812Z" fill="#E14141"/>
<path d="M67.5371 25.0742L67.5371 31.2138L61.3976 31.2138L61.3976 25.0742L67.5371 25.0742Z" fill="#E14141"/>
<path d="M67.5371 6.14062L67.5371 18.4197L61.3976 18.4197L61.3976 6.14062L67.5371 6.14062Z" fill="#E14141"/>
<path d="M67.5371 6.14062L67.5371 12.2802L78.7929 12.2802L78.7929 6.14063L67.5371 6.14062Z" fill="#E14141"/>
<path d="M61.9082 6.14062L61.9082 12.2802L55.7687 12.2802L55.7687 6.14062L61.9082 6.14062Z" fill="#E14141"/>
<path d="M73.6758 68.5625L73.6758 74.702L67.5362 74.702L67.5362 68.5625L73.6758 68.5625Z" fill="#E14141"/>
<path d="M67.5371 74.6992L67.5371 81.862L61.3976 81.862L61.3976 74.6992L67.5371 74.6992Z" fill="#E14141"/>
<path d="M78.793 74.6992L78.793 81.862L73.6767 81.862L73.6767 74.6992L78.793 74.6992Z" fill="#E14141"/>
<path d="M61.3965 68.5625L61.3965 74.702L55.2569 74.702L55.2569 68.5625L61.3965 68.5625Z" fill="#E14141"/>
<path d="M87.4902 62.4219L87.4902 68.5614L73.6763 68.5614L73.6763 62.4219L87.4902 62.4219Z" fill="#E14141"/>
<path d="M73.6758 43.4922L73.6758 49.6317L61.3967 49.6317L61.3967 43.4922L73.6758 43.4922Z" fill="#E14141"/>
<path d="M49.1172 51.6758L49.1172 62.42L42.9777 62.42L42.9777 51.6758L49.1172 51.6758Z" fill="#E14141"/>
<path d="M36.8379 30.6992L36.8379 36.8388L30.6984 36.8388L30.6984 30.6992L36.8379 30.6992Z" fill="#E14141"/>
<path d="M49.1172 69.5859L49.1172 75.7255L42.9777 75.7255L42.9777 69.5859L49.1172 69.5859Z" fill="#E14141"/>
<path d="M61.3965 18.4219L61.3965 25.073L36.8383 25.073L36.8383 18.4219L61.3965 18.4219Z" fill="#E14141"/>
<path d="M36.8379 69.5859L36.8379 75.7255L12.2798 75.7255L12.2798 69.5859L36.8379 69.5859Z" fill="#E14141"/>
<path d="M94.6523 12.2812L94.6523 24.5603L87.4896 24.5603L87.4896 12.2812L94.6523 12.2812Z" fill="#E14141"/>
<path d="M100.793 25.0742L100.793 37.8649L94.6534 37.8649L94.6534 25.0742L100.793 25.0742Z" fill="#E14141"/>
<path d="M94.6523 37.8633L94.6523 49.6307L87.4896 49.6307L87.4896 37.8633L94.6523 37.8633Z" fill="#E14141"/>
<path d="M106.932 37.8633L106.932 49.6307L100.792 49.6307L100.792 37.8633L106.932 37.8633Z" fill="#E14141"/>
<path d="M87.4902 24.5625L87.4902 37.3532L81.3507 37.3532L81.3507 24.5625L87.4902 24.5625Z" fill="#E14141"/>
<path d="M55.2578 68.5625L55.2578 75.7253L49.1183 75.7253L49.1183 68.5625L55.2578 68.5625Z" fill="#842628"/>
<path d="M61.3965 62.4219L61.3965 68.5614L55.2569 68.5614L55.2569 62.4219L61.3965 62.4219Z" fill="#842628"/>
<path d="M74.1875 37.3516L74.1875 43.4911L55.2573 43.4911L55.2573 37.3516L74.1875 37.3516Z" fill="#842628"/>
<path d="M61.3965 43.4922L61.3965 49.6317L55.2569 49.6317L55.2569 43.4922L61.3965 43.4922Z" fill="#842628"/>
<path d="M67.5371 31.2109L67.5371 37.3505L61.3976 37.3505L61.3976 31.2109L67.5371 31.2109Z" fill="#842628"/>
<path d="M94.6523 49.6289L94.6523 55.7684L87.4896 55.7684L87.4896 49.6289L94.6523 49.6289Z" fill="#842628"/>
<path d="M106.932 49.6289L106.932 57.3033L100.792 57.3033L100.792 49.6289L106.932 49.6289Z" fill="#842628"/>
<path d="M106.932 30.6992L106.932 37.862L100.792 37.862L100.792 30.6992L106.932 30.6992Z" fill="#842628"/>
<path d="M100.793 62.4219L100.793 68.5614L87.4906 68.5614L87.4906 62.4219L100.793 62.4219Z" fill="#842628"/>
<path d="M100.793 62.4219L100.793 55.7707L94.6534 55.7707L94.6534 62.4219L100.793 62.4219Z" fill="#842628"/>
<path d="M87.4902 12.2812L87.4902 24.5603L81.8623 24.5603L81.8623 12.2812L87.4902 12.2812Z" fill="#842628"/>
<path d="M93.1172 12.2812L93.1172 24.5603L87.4893 24.5603L87.4893 12.2812L93.1172 12.2812Z" fill="#842628"/>
<path d="M81.3496 43.4922L81.3496 49.6317L73.6752 49.6317L73.6752 43.4922L81.3496 43.4922Z" fill="#842628"/>
<path d="M67.5371 68.5625L67.5371 74.702L61.3976 74.702L61.3976 68.5625L67.5371 68.5625Z" fill="#842628"/>
<path d="M61.3965 74.6992L61.3965 81.862L55.2569 81.862L55.2569 74.6992L61.3965 74.6992Z" fill="#842628"/>
<path d="M73.6758 74.6992L73.6758 81.862L67.5362 81.862L67.5362 74.6992L73.6758 74.6992Z" fill="#842628"/>
<path d="M87.4902 68.5625L87.4902 74.702L73.6763 74.702L73.6763 68.5625L87.4902 68.5625Z" fill="#842628"/>
<path d="M73.6758 62.4219L73.6758 68.5614L67.5362 68.5614L67.5362 62.4219L73.6758 62.4219Z" fill="#842628"/>
<path d="M87.4902 55.7695L87.4902 62.4207L73.6763 62.4207L73.6763 55.7695L87.4902 55.7695Z" fill="#842628"/>
<path d="M73.6758 49.6289L73.6758 55.7684L67.5362 55.7684L67.5362 49.6289L73.6758 49.6289Z" fill="#842628"/>
<path d="M67.5371 49.6289L67.5371 62.4196L61.3976 62.4196L61.3976 49.6289L67.5371 49.6289Z" fill="#842628"/>
<path d="M49.1172 62.4219L49.1172 69.5847L42.9777 69.5847L42.9777 62.4219L49.1172 62.4219Z" fill="#842628"/>
<path d="M36.8379 36.8398L36.8379 51.1654L30.6984 51.1654L30.6984 36.8398L36.8379 36.8398Z" fill="#842628"/>
<path d="M42.9785 49.6289L42.9785 63.9545L36.839 63.9545L36.839 49.6289L42.9785 49.6289Z" fill="#842628"/>
<path d="M49.1172 37.3516L49.1172 51.6771L42.9777 51.6771L42.9777 37.3516L49.1172 37.3516Z" fill="#842628"/>
<path d="M55.2578 31.2109L55.2578 37.3505L49.1183 37.3505L49.1183 31.2109L55.2578 31.2109Z" fill="#842628"/>
<path d="M55.2578 50.1406L55.2578 62.4197L49.1183 62.4197L49.1183 50.1406L55.2578 50.1406Z" fill="#842628"/>
<path d="M42.9785 25.0742L42.9785 37.3533L36.839 37.3533L36.839 25.0742L42.9785 25.0742Z" fill="#842628"/>
<path d="M61.3965 25.0742L61.3965 31.2138L36.8383 31.2138L36.8383 25.0742L61.3965 25.0742Z" fill="#842628"/>
<path d="M61.3965 12.2812L61.3965 18.4208L42.9779 18.4208L42.9779 12.2812L61.3965 12.2812Z" fill="#842628"/>
<path d="M75.2109 18.4219L75.2109 25.073L61.397 25.073L61.397 18.4219L75.2109 18.4219Z" fill="#842628"/>
<path d="M74.1875 37.3516L74.1875 24.5609L81.3503 24.5609L81.3503 37.3516L74.1875 37.3516Z" fill="#842628"/>
<path d="M75.2109 12.2812L75.2109 31.2115L67.5365 31.2115L67.5365 12.2812L75.2109 12.2812Z" fill="#842628"/>
<path d="M94.6523 24.5625L94.6523 37.8648L87.4896 37.8648L87.4896 24.5625L94.6523 24.5625Z" fill="#842628"/>
<path d="M100.793 18.4219L100.793 25.073L94.6534 25.073L94.6534 18.4219L100.793 18.4219Z" fill="#842628"/>
<path d="M100.793 37.8633L100.793 49.6307L94.6534 49.6307L94.6534 37.8633L100.793 37.8633Z" fill="#842628"/>
<path d="M87.4902 37.3516L87.4902 49.6306L81.3507 49.6306L81.3507 37.3516L87.4902 37.3516Z" fill="#842628"/>
</svg>
