<svg width="210" height="129" viewBox="0 0 210 129" fill="none" xmlns="http://www.w3.org/2000/svg">
<path d="M129.703 86.4727H123.527V92.6486H129.703V86.4727Z" fill="#E2E2E2"/>
<path d="M123.528 92.6484H117.352V98.8244H123.528V92.6484Z" fill="#E2E2E2"/>
<path d="M117.352 86.4727H111.176V92.6486H117.352V86.4727Z" fill="#E2E2E2"/>
<path d="M111.178 92.6484H105V98.8244H111.178V92.6484Z" fill="#E2E2E2"/>
<path d="M209.998 98.8242H203.82V105.002H209.998V98.8242Z" fill="#7A7A7A"/>
<path d="M209.998 92.6484H203.82V98.8244H209.998V92.6484Z" fill="#7A7A7A"/>
<path d="M209.998 86.4727H203.82V92.6486H209.998V86.4727Z" fill="#7A7A7A"/>
<path d="M209.998 80.293H203.82V86.4689H209.998V80.293Z" fill="#7A7A7A"/>
<path d="M203.821 105H197.645V111.176H203.821V105Z" fill="#7A7A7A"/>
<path d="M203.821 98.8242H197.645V105.002H203.821V98.8242Z" fill="#999999"/>
<path d="M203.821 92.6484H197.645V98.8244H203.821V92.6484Z" fill="#999999"/>
<path d="M203.821 86.4727H197.645V92.6486H203.821V86.4727Z" fill="#999999"/>
<path d="M203.821 80.293H197.645V86.4689H203.821V80.293Z" fill="#999999"/>
<path d="M203.821 74.1172H197.645V80.295H203.821V74.1172Z" fill="#7A7A7A"/>
<path d="M197.645 105H191.469V111.176H197.645V105Z" fill="#999999"/>
<path d="M197.645 98.8242H191.469V105.002H197.645V98.8242Z" fill="#999999"/>
<path d="M197.645 92.6484H191.469V98.8244H197.645V92.6484Z" fill="#AFAFAF"/>
<path d="M197.645 86.4727H191.469V92.6486H197.645V86.4727Z" fill="#999999"/>
<path d="M197.645 80.293H191.469V86.4689H197.645V80.293Z" fill="#AFAFAF"/>
<path d="M197.645 74.1172H191.469V80.295H197.645V74.1172Z" fill="#999999"/>
<path d="M191.471 105H185.295V111.176H191.471V105Z" fill="#999999"/>
<path d="M191.471 98.8242H185.295V105.002H191.471V98.8242Z" fill="#999999"/>
<path d="M191.471 92.6484H185.295V98.8244H191.471V92.6484Z" fill="#3A3A3A"/>
<path d="M191.471 86.4727H185.295V92.6486H191.471V86.4727Z" fill="#3A3A3A"/>
<path d="M191.471 80.293H185.295V86.4689H191.471V80.293Z" fill="#AFAFAF"/>
<path d="M191.471 74.1172H185.295V80.295H191.471V74.1172Z" fill="#999999"/>
<path d="M191.471 67.9375H185.295V74.1135H191.471V67.9375Z" fill="#7A7A7A"/>
<path d="M185.295 105H179.117V111.176H185.295V105Z" fill="#999999"/>
<path d="M185.295 98.8242H179.117V105.002H185.295V98.8242Z" fill="#AFAFAF"/>
<path d="M185.295 92.6484H179.117V98.8244H185.295V92.6484Z" fill="#3A3A3A"/>
<path d="M185.295 80.293H179.117V86.4689H185.295V80.293Z" fill="#3A3A3A"/>
<path d="M185.295 74.1172H179.117V80.295H185.295V74.1172Z" fill="#999999"/>
<path d="M185.295 67.9375H179.117V74.1135H185.295V67.9375Z" fill="#999999"/>
<path d="M185.295 61.7617H179.117V67.9377H185.295V61.7617Z" fill="#7A7A7A"/>
<path d="M179.115 105H172.939V111.176H179.115V105Z" fill="#AFAFAF"/>
<path d="M179.115 98.8242H172.939V105.002H179.115V98.8242Z" fill="#AFAFAF"/>
<path d="M179.115 92.6484H172.939V98.8244H179.115V92.6484Z" fill="#3A3A3A"/>
<path d="M179.115 80.293H172.939V86.4689H179.115V80.293Z" fill="#3A3A3A"/>
<path d="M179.115 74.1172H172.939V80.295H179.115V74.1172Z" fill="#AFAFAF"/>
<path d="M179.115 67.9375H172.939V74.1135H179.115V67.9375Z" fill="#999999"/>
<path d="M179.115 61.7617H172.939V67.9377H179.115V61.7617Z" fill="#7A7A7A"/>
<path d="M172.942 105H166.766V111.176H172.942V105Z" fill="#3A3A3A"/>
<path d="M172.942 98.8242H166.766V105.002H172.942V98.8242Z" fill="#3A3A3A"/>
<path d="M172.942 80.293H166.766V86.4689H172.942V80.293Z" fill="#3A3A3A"/>
<path d="M172.942 74.1172H166.766V80.295H172.942V74.1172Z" fill="#AFAFAF"/>
<path d="M172.942 67.9375H166.766V74.1135H172.942V67.9375Z" fill="#999999"/>
<path d="M172.942 61.7617H166.766V67.9377H172.942V61.7617Z" fill="#7A7A7A"/>
<path d="M172.942 55.5859H166.766V61.7619H172.942V55.5859Z" fill="#7A7A7A"/>
<path d="M172.942 49.4102H166.766V55.588H172.942V49.4102Z" fill="#7A7A7A"/>
<path d="M172.942 43.2344H166.766V49.4103H172.942V43.2344Z" fill="#7A7A7A"/>
<path d="M166.764 80.293H160.588V86.4689H166.764V80.293Z" fill="#3A3A3A"/>
<path d="M166.764 74.1172H160.588V80.295H166.764V74.1172Z" fill="#999999"/>
<path d="M166.764 67.9375H160.588V74.1135H166.764V67.9375Z" fill="#7A7A7A"/>
<path d="M166.764 61.7617H160.588V67.9377H166.764V61.7617Z" fill="#999999"/>
<path d="M166.764 55.5859H160.588V61.7619H166.764V55.5859Z" fill="#7A7A7A"/>
<path d="M166.764 49.4102H160.588V55.588H166.764V49.4102Z" fill="#7A7A7A"/>
<path d="M166.764 43.2344H160.588V49.4103H166.764V43.2344Z" fill="#7A7A7A"/>
<path d="M166.764 37.0586H160.588V43.2346H166.764V37.0586Z" fill="#7A7A7A"/>
<path d="M166.764 30.8828H160.588V37.0606H166.764V30.8828Z" fill="#7A7A7A"/>
<path d="M160.588 86.4727H154.41V92.6486H160.588V86.4727Z" fill="#3A3A3A"/>
<path d="M160.588 80.293H154.41V86.4689H160.588V80.293Z" fill="#7A7A7A"/>
<path d="M160.588 74.1172H154.41V80.295H160.588V74.1172Z" fill="#999999"/>
<path d="M160.588 67.9375H154.41V74.1135H160.588V67.9375Z" fill="#999999"/>
<path d="M160.588 61.7617H154.41V67.9377H160.588V61.7617Z" fill="#999999"/>
<path d="M160.588 55.5859H154.41V61.7619H160.588V55.5859Z" fill="#999999"/>
<path d="M160.588 49.4102H154.41V55.588H160.588V49.4102Z" fill="#999999"/>
<path d="M160.588 43.2344H154.41V49.4103H160.588V43.2344Z" fill="#7A7A7A"/>
<path d="M160.588 37.0586H154.41V43.2346H160.588V37.0586Z" fill="#7A7A7A"/>
<path d="M160.588 30.8828H154.41V37.0606H160.588V30.8828Z" fill="#999999"/>
<path d="M160.588 24.7031H154.41V30.8791H160.588V24.7031Z" fill="#7A7A7A"/>
<path d="M154.41 92.6484H148.234V98.8244H154.41V92.6484Z" fill="#3A3A3A"/>
<path d="M154.41 86.4727H148.234V92.6486H154.41V86.4727Z" fill="#7A7A7A"/>
<path d="M154.41 80.293H148.234V86.4689H154.41V80.293Z" fill="#999999"/>
<path d="M154.41 74.1172H148.234V80.295H154.41V74.1172Z" fill="#999999"/>
<path d="M154.41 67.9375H148.234V74.1135H154.41V67.9375Z" fill="#999999"/>
<path d="M154.41 61.7617H148.234V67.9377H154.41V61.7617Z" fill="#999999"/>
<path d="M154.41 55.5859H148.234V61.7619H154.41V55.5859Z" fill="#999999"/>
<path d="M154.41 49.4102H148.234V55.588H154.41V49.4102Z" fill="#7A7A7A"/>
<path d="M154.41 43.2344H148.234V49.4103H154.41V43.2344Z" fill="#999999"/>
<path d="M154.41 37.0586H148.234V43.2346H154.41V37.0586Z" fill="#999999"/>
<path d="M154.41 30.8828H148.234V37.0606H154.41V30.8828Z" fill="#7A7A7A"/>
<path d="M154.41 24.7031H148.234V30.8791H154.41V24.7031Z" fill="#7A7A7A"/>
<path d="M154.41 18.5273H148.234V24.7033H154.41V18.5273Z" fill="#7A7A7A"/>
<path d="M148.235 98.8242H142.059V105.002H148.235V98.8242Z" fill="#3A3A3A"/>
<path d="M148.235 92.6484H142.059V98.8244H148.235V92.6484Z" fill="#7A7A7A"/>
<path d="M148.235 86.4727H142.059V92.6486H148.235V86.4727Z" fill="#999999"/>
<path d="M148.235 80.293H142.059V86.4689H148.235V80.293Z" fill="#999999"/>
<path d="M148.235 74.1172H142.059V80.295H148.235V74.1172Z" fill="#999999"/>
<path d="M148.235 67.9375H142.059V74.1135H148.235V67.9375Z" fill="#999999"/>
<path d="M148.235 61.7617H142.059V67.9377H148.235V61.7617Z" fill="#999999"/>
<path d="M148.235 55.5859H142.059V61.7619H148.235V55.5859Z" fill="#999999"/>
<path d="M148.235 49.4102H142.059V55.588H148.235V49.4102Z" fill="#999999"/>
<path d="M148.235 43.2344H142.059V49.4103H148.235V43.2344Z" fill="#999999"/>
<path d="M148.235 37.0586H142.059V43.2346H148.235V37.0586Z" fill="#7A7A7A"/>
<path d="M148.235 30.8828H142.059V37.0606H148.235V30.8828Z" fill="#999999"/>
<path d="M148.235 24.7031H142.059V30.8791H148.235V24.7031Z" fill="#7A7A7A"/>
<path d="M148.235 18.5273H142.059V24.7033H148.235V18.5273Z" fill="#7A7A7A"/>
<path d="M142.059 105H135.883V111.176H142.059V105Z" fill="#3A3A3A"/>
<path d="M142.059 98.8242H135.883V105.002H142.059V98.8242Z" fill="#7A7A7A"/>
<path d="M142.059 92.6484H135.883V98.8244H142.059V92.6484Z" fill="#999999"/>
<path d="M142.059 86.4727H135.883V92.6486H142.059V86.4727Z" fill="#3A3A3A"/>
<path d="M142.059 80.293H135.883V86.4689H142.059V80.293Z" fill="#AFAFAF"/>
<path d="M142.059 74.1172H135.883V80.295H142.059V74.1172Z" fill="#999999"/>
<path d="M142.059 67.9375H135.883V74.1135H142.059V67.9375Z" fill="#999999"/>
<path d="M142.059 61.7617H135.883V67.9377H142.059V61.7617Z" fill="#999999"/>
<path d="M142.059 55.5859H135.883V61.7619H142.059V55.5859Z" fill="#AFAFAF"/>
<path d="M142.059 49.4102H135.883V55.588H142.059V49.4102Z" fill="#3A3A3A"/>
<path d="M142.059 43.2344H135.883V49.4103H142.059V43.2344Z" fill="#999999"/>
<path d="M142.059 37.0586H135.883V43.2346H142.059V37.0586Z" fill="#999999"/>
<path d="M142.059 30.8828H135.883V37.0606H142.059V30.8828Z" fill="#999999"/>
<path d="M142.059 24.7031H135.883V30.8791H142.059V24.7031Z" fill="#7A7A7A"/>
<path d="M142.059 18.5273H135.883V24.7033H142.059V18.5273Z" fill="#999999"/>
<path d="M142.059 12.3555H135.883V18.5314H142.059V12.3555Z" fill="#7A7A7A"/>
<path d="M135.881 105H129.703V111.176H135.881V105Z" fill="#3A3A3A"/>
<path d="M135.881 98.8242H129.703V105.002H135.881V98.8242Z" fill="#999999"/>
<path d="M135.881 92.6484H129.703V98.8244H135.881V92.6484Z" fill="#3A3A3A"/>
<path d="M135.881 86.4727H129.703V92.6486H135.881V86.4727Z" fill="#CECECE"/>
<path d="M135.881 80.293H129.703V86.4689H135.881V80.293Z" fill="#3A3A3A"/>
<path d="M135.881 74.1172H129.703V80.295H135.881V74.1172Z" fill="#AFAFAF"/>
<path d="M135.881 67.9375H129.703V74.1135H135.881V67.9375Z" fill="#AFAFAF"/>
<path d="M135.881 61.7617H129.703V67.9377H135.881V61.7617Z" fill="#AFAFAF"/>
<path d="M135.881 55.5859H129.703V61.7619H135.881V55.5859Z" fill="#3A3A3A"/>
<path d="M135.881 49.4102H129.703V55.588H135.881V49.4102Z" fill="#999999"/>
<path d="M135.881 43.2344H129.703V49.4103H135.881V43.2344Z" fill="#999999"/>
<path d="M135.881 37.0586H129.703V43.2346H135.881V37.0586Z" fill="#999999"/>
<path d="M135.881 30.8828H129.703V37.0606H135.881V30.8828Z" fill="#999999"/>
<path d="M135.881 24.7031H129.703V30.8791H135.881V24.7031Z" fill="#999999"/>
<path d="M135.881 18.5273H129.703V24.7033H135.881V18.5273Z" fill="#999999"/>
<path d="M135.881 12.3555H129.703V18.5314H135.881V12.3555Z" fill="#7A7A7A"/>
<path d="M129.703 105H123.527V111.176H129.703V105Z" fill="#3A3A3A"/>
<path d="M129.703 98.8242H123.527V105.002H129.703V98.8242Z" fill="#999999"/>
<path d="M129.703 92.6484H123.527V98.8244H129.703V92.6484Z" fill="#3A3A3A"/>
<path d="M129.703 80.293H123.527V86.4689H129.703V80.293Z" fill="#999999"/>
<path d="M129.703 74.1172H123.527V80.295H129.703V74.1172Z" fill="#3A3A3A"/>
<path d="M129.703 67.9375H123.527V74.1135H129.703V67.9375Z" fill="#3A3A3A"/>
<path d="M129.703 61.7617H123.527V67.9377H129.703V61.7617Z" fill="#3A3A3A"/>
<path d="M129.703 55.5859H123.527V61.7619H129.703V55.5859Z" fill="#999999"/>
<path d="M129.703 49.4102H123.527V55.588H129.703V49.4102Z" fill="#999999"/>
<path d="M129.703 43.2344H123.527V49.4103H129.703V43.2344Z" fill="#999999"/>
<path d="M129.703 37.0586H123.527V43.2346H129.703V37.0586Z" fill="#7A7A7A"/>
<path d="M129.703 30.8828H123.527V37.0606H129.703V30.8828Z" fill="#7A7A7A"/>
<path d="M129.703 24.7031H123.527V30.8791H129.703V24.7031Z" fill="#7A7A7A"/>
<path d="M129.703 18.5273H123.527V24.7033H129.703V18.5273Z" fill="#7A7A7A"/>
<path d="M129.703 12.3555H123.527V18.5314H129.703V12.3555Z" fill="#7A7A7A"/>
<path d="M123.528 105H117.352V111.176H123.528V105Z" fill="#3A3A3A"/>
<path d="M123.528 98.8242H117.352V105.002H123.528V98.8242Z" fill="#3A3A3A"/>
<path d="M123.528 86.4727H117.352V92.6486H123.528V86.4727Z" fill="#CECECE"/>
<path d="M123.528 80.293H117.352V86.4689H123.528V80.293Z" fill="#999999"/>
<path d="M123.528 74.1172H117.352V80.295H123.528V74.1172Z" fill="#999999"/>
<path d="M123.528 67.9375H117.352V74.1135H123.528V67.9375Z" fill="#999999"/>
<path d="M123.528 61.7617H117.352V67.9377H123.528V61.7617Z" fill="#999999"/>
<path d="M123.528 55.5859H117.352V61.7619H123.528V55.5859Z" fill="#999999"/>
<path d="M123.528 49.4102H117.352V55.588H123.528V49.4102Z" fill="#999999"/>
<path d="M123.528 43.2344H117.352V49.4103H123.528V43.2344Z" fill="#999999"/>
<path d="M123.528 37.0586H117.352V43.2346H123.528V37.0586Z" fill="#999999"/>
<path d="M123.528 30.8828H117.352V37.0606H123.528V30.8828Z" fill="#999999"/>
<path d="M123.528 24.7031H117.352V30.8791H123.528V24.7031Z" fill="#999999"/>
<path d="M123.528 18.5273H117.352V24.7033H123.528V18.5273Z" fill="#999999"/>
<path d="M123.528 12.3555H117.352V18.5314H123.528V12.3555Z" fill="#7A7A7A"/>
<path d="M117.352 98.8242H111.176V105.002H117.352V98.8242Z" fill="#3A3A3A"/>
<path d="M117.352 92.6484H111.176V98.8244H117.352V92.6484Z" fill="#CECECE"/>
<path d="M117.352 80.293H111.176V86.4689H117.352V80.293Z" fill="#999999"/>
<path d="M117.352 74.1172H111.176V80.295H117.352V74.1172Z" fill="#999999"/>
<path d="M117.352 67.9375H111.176V74.1135H117.352V67.9375Z" fill="#999999"/>
<path d="M117.352 61.7617H111.176V67.9377H117.352V61.7617Z" fill="#999999"/>
<path d="M117.352 55.5859H111.176V61.7619H117.352V55.5859Z" fill="#999999"/>
<path d="M117.352 49.4102H111.176V55.588H117.352V49.4102Z" fill="#999999"/>
<path d="M117.352 43.2344H111.176V49.4103H117.352V43.2344Z" fill="#7A7A7A"/>
<path d="M117.352 37.0586H111.176V43.2346H117.352V37.0586Z" fill="#999999"/>
<path d="M117.352 30.8828H111.176V37.0606H117.352V30.8828Z" fill="#7A7A7A"/>
<path d="M117.352 24.7031H111.176V30.8791H117.352V24.7031Z" fill="#7A7A7A"/>
<path d="M117.352 18.5273H111.176V24.7033H117.352V18.5273Z" fill="#7A7A7A"/>
<path d="M117.352 12.3555H111.176V18.5314H117.352V12.3555Z" fill="#7A7A7A"/>
<path d="M111.178 98.8242H105V105.002H111.178V98.8242Z" fill="#3A3A3A"/>
<path d="M111.178 86.4727H105V92.6486H111.178V86.4727Z" fill="#CECECE"/>
<path d="M111.178 80.293H105V86.4689H111.178V80.293Z" fill="#999999"/>
<path d="M111.178 74.1172H105V80.295H111.178V74.1172Z" fill="#999999"/>
<path d="M111.178 67.9375H105V74.1135H111.178V67.9375Z" fill="#999999"/>
<path d="M111.178 61.7617H105V67.9377H111.178V61.7617Z" fill="#999999"/>
<path d="M111.178 55.5859H105V61.7619H111.178V55.5859Z" fill="#999999"/>
<path d="M111.178 49.4102H105V55.588H111.178V49.4102Z" fill="#999999"/>
<path d="M111.178 43.2344H105V49.4103H111.178V43.2344Z" fill="#999999"/>
<path d="M111.178 37.0586H105V43.2346H111.178V37.0586Z" fill="#999999"/>
<path d="M111.178 30.8828H105V37.0606H111.178V30.8828Z" fill="#999999"/>
<path d="M111.178 24.7031H105V30.8791H111.178V24.7031Z" fill="#999999"/>
<path d="M111.178 18.5273H105V24.7033H111.178V18.5273Z" fill="#999999"/>
<path d="M111.178 12.3555H105V18.5314H111.178V12.3555Z" fill="#7A7A7A"/>
<path d="M105 98.8242H98.8242V105.002H105V98.8242Z" fill="#3A3A3A"/>
<path d="M105 92.6484H98.8242V98.8244H105V92.6484Z" fill="#CECECE"/>
<path d="M105 86.4727H98.8242V92.6486H105V86.4727Z" fill="#3A3A3A"/>
<path d="M105 80.293H98.8242V86.4689H105V80.293Z" fill="#7A7A7A"/>
<path d="M105 74.1172H98.8242V80.295H105V74.1172Z" fill="#999999"/>
<path d="M105 67.9375H98.8242V74.1135H105V67.9375Z" fill="#999999"/>
<path d="M105 61.7617H98.8242V67.9377H105V61.7617Z" fill="#999999"/>
<path d="M105 55.5859H98.8242V61.7619H105V55.5859Z" fill="#999999"/>
<path d="M105 49.4102H98.8242V55.588H105V49.4102Z" fill="#999999"/>
<path d="M105 43.2344H98.8242V49.4103H105V43.2344Z" fill="#999999"/>
<path d="M105 37.0586H98.8242V43.2346H105V37.0586Z" fill="#7A7A7A"/>
<path d="M105 30.8828H98.8242V37.0606H105V30.8828Z" fill="#7A7A7A"/>
<path d="M105 24.7031H98.8242V30.8791H105V24.7031Z" fill="#7A7A7A"/>
<path d="M105 18.5273H98.8242V24.7033H105V18.5273Z" fill="#7A7A7A"/>
<path d="M105 12.3555H98.8242V18.5314H105V12.3555Z" fill="#7A7A7A"/>
<path d="M98.8225 98.8242H92.6465V105.002H98.8225V98.8242Z" fill="#3A3A3A"/>
<path d="M98.8225 92.6484H92.6465V98.8244H98.8225V92.6484Z" fill="#3A3A3A"/>
<path d="M98.8225 86.4727H92.6465V92.6486H98.8225V86.4727Z" fill="#7A7A7A"/>
<path d="M98.8225 80.293H92.6465V86.4689H98.8225V80.293Z" fill="#999999"/>
<path d="M98.8225 74.1172H92.6465V80.295H98.8225V74.1172Z" fill="#999999"/>
<path d="M98.8225 67.9375H92.6465V74.1135H98.8225V67.9375Z" fill="#999999"/>
<path d="M98.8225 61.7617H92.6465V67.9377H98.8225V61.7617Z" fill="#3A3A3A"/>
<path d="M98.8225 55.5859H92.6465V61.7619H98.8225V55.5859Z" fill="#999999"/>
<path d="M98.8225 49.4102H92.6465V55.588H98.8225V49.4102Z" fill="#3A3A3A"/>
<path d="M98.8225 43.2344H92.6465V49.4103H98.8225V43.2344Z" fill="#999999"/>
<path d="M98.8225 37.0586H92.6465V43.2346H98.8225V37.0586Z" fill="#999999"/>
<path d="M98.8225 30.8828H92.6465V37.0606H98.8225V30.8828Z" fill="#999999"/>
<path d="M98.8225 24.7031H92.6465V30.8791H98.8225V24.7031Z" fill="#999999"/>
<path d="M98.8225 18.5273H92.6465V24.7033H98.8225V18.5273Z" fill="#7A7A7A"/>
<path d="M98.8225 12.3555H92.6465V18.5314H98.8225V12.3555Z" fill="#7A7A7A"/>
<path d="M92.6466 98.8242H86.4688V105.002H92.6466V98.8242Z" fill="#3A3A3A"/>
<path d="M92.6466 92.6484H86.4688V98.8244H92.6466V92.6484Z" fill="#7A7A7A"/>
<path d="M92.6466 86.4727H86.4688V92.6486H92.6466V86.4727Z" fill="#999999"/>
<path d="M92.6466 80.293H86.4688V86.4689H92.6466V80.293Z" fill="#999999"/>
<path d="M92.6466 74.1172H86.4688V80.295H92.6466V74.1172Z" fill="#999999"/>
<path d="M92.6466 67.9375H86.4688V74.1135H92.6466V67.9375Z" fill="#999999"/>
<path d="M92.6466 61.7617H86.4688V67.9377H92.6466V61.7617Z" fill="#3A3A3A"/>
<path d="M92.6466 55.5859H86.4688V61.7619H92.6466V55.5859Z" fill="#999999"/>
<path d="M92.6466 49.4102H86.4688V55.588H92.6466V49.4102Z" fill="#3A3A3A"/>
<path d="M92.6466 43.2344H86.4688V49.4103H92.6466V43.2344Z" fill="#999999"/>
<path d="M92.6466 37.0586H86.4688V43.2346H92.6466V37.0586Z" fill="#999999"/>
<path d="M92.6466 30.8828H86.4688V37.0606H92.6466V30.8828Z" fill="#999999"/>
<path d="M92.6466 24.7031H86.4688V30.8791H92.6466V24.7031Z" fill="#999999"/>
<path d="M92.6466 18.5273H86.4688V24.7033H92.6466V18.5273Z" fill="#999999"/>
<path d="M92.6466 12.3555H86.4688V18.5314H92.6466V12.3555Z" fill="#7A7A7A"/>
<path d="M92.6466 6.17578H86.4688V12.3536H92.6466V6.17578Z" fill="#7A7A7A"/>
<path d="M86.4689 105H80.293V111.176H86.4689V105Z" fill="#3A3A3A"/>
<path d="M86.4689 98.8242H80.293V105.002H86.4689V98.8242Z" fill="#7A7A7A"/>
<path d="M86.4689 92.6484H80.293V98.8244H86.4689V92.6484Z" fill="#999999"/>
<path d="M86.4689 86.4727H80.293V92.6486H86.4689V86.4727Z" fill="#999999"/>
<path d="M86.4689 80.293H80.293V86.4689H86.4689V80.293Z" fill="#3A3A3A"/>
<path d="M86.4689 74.1172H80.293V80.295H86.4689V74.1172Z" fill="#999999"/>
<path d="M86.4689 67.9375H80.293V74.1135H86.4689V67.9375Z" fill="#999999"/>
<path d="M86.4689 61.7617H80.293V67.9377H86.4689V61.7617Z" fill="#999999"/>
<path d="M86.4689 55.5859H80.293V61.7619H86.4689V55.5859Z" fill="#FFA99F"/>
<path d="M86.4689 49.4102H80.293V55.588H86.4689V49.4102Z" fill="#999999"/>
<path d="M86.4689 43.2344H80.293V49.4103H86.4689V43.2344Z" fill="#999999"/>
<path d="M86.4689 37.0586H80.293V43.2346H86.4689V37.0586Z" fill="#3A3A3A"/>
<path d="M86.4689 30.8828H80.293V37.0606H86.4689V30.8828Z" fill="#999999"/>
<path d="M86.4689 24.7031H80.293V30.8791H86.4689V24.7031Z" fill="#999999"/>
<path d="M86.4689 18.5273H80.293V24.7033H86.4689V18.5273Z" fill="#999999"/>
<path d="M86.4689 12.3555H80.293V18.5314H86.4689V12.3555Z" fill="#FFBEAB"/>
<path d="M86.4689 6.17578H80.293V12.3536H86.4689V6.17578Z" fill="#999999"/>
<path d="M86.4689 0H80.293V6.17597H86.4689V0Z" fill="#7A7A7A"/>
<path d="M80.2932 105H74.1172V111.176H80.2932V105Z" fill="#3A3A3A"/>
<path d="M80.2932 98.8242H74.1172V105.002H80.2932V98.8242Z" fill="#AFAFAF"/>
<path d="M80.2932 92.6484H74.1172V98.8244H80.2932V92.6484Z" fill="#999999"/>
<path d="M80.2932 86.4727H74.1172V92.6486H80.2932V86.4727Z" fill="#3A3A3A"/>
<path d="M80.2932 80.293H74.1172V86.4689H80.2932V80.293Z" fill="#999999"/>
<path d="M80.2932 74.1172H74.1172V80.295H80.2932V74.1172Z" fill="#999999"/>
<path d="M80.2932 67.9375H74.1172V74.1135H80.2932V67.9375Z" fill="#999999"/>
<path d="M80.2932 61.7617H74.1172V67.9377H80.2932V61.7617Z" fill="#999999"/>
<path d="M80.2932 55.5859H74.1172V61.7619H80.2932V55.5859Z" fill="#FFA99F"/>
<path d="M80.2932 49.4102H74.1172V55.588H80.2932V49.4102Z" fill="#999999"/>
<path d="M80.2932 43.2344H74.1172V49.4103H80.2932V43.2344Z" fill="#3A3A3A"/>
<path d="M80.2932 37.0586H74.1172V43.2346H80.2932V37.0586Z" fill="#999999"/>
<path d="M80.2932 30.8828H74.1172V37.0606H80.2932V30.8828Z" fill="#999999"/>
<path d="M80.2932 24.7031H74.1172V30.8791H80.2932V24.7031Z" fill="#999999"/>
<path d="M80.2932 18.5273H74.1172V24.7033H80.2932V18.5273Z" fill="#999999"/>
<path d="M80.2932 12.3555H74.1172V18.5314H80.2932V12.3555Z" fill="#FFBEAB"/>
<path d="M80.2932 6.17578H74.1172V12.3536H80.2932V6.17578Z" fill="#FFBEAB"/>
<path d="M80.2932 0H74.1172V6.17597H80.2932V0Z" fill="#AFAFAF"/>
<path d="M74.1174 105H67.9414V111.176H74.1174V105Z" fill="#3A3A3A"/>
<path d="M74.1174 98.8242H67.9414V105.002H74.1174V98.8242Z" fill="#999999"/>
<path d="M74.1174 92.6484H67.9414V98.8244H74.1174V92.6484Z" fill="#AFAFAF"/>
<path d="M74.1174 86.4727H67.9414V92.6486H74.1174V86.4727Z" fill="#3A3A3A"/>
<path d="M74.1174 80.293H67.9414V86.4689H74.1174V80.293Z" fill="#999999"/>
<path d="M74.1174 74.1172H67.9414V80.295H74.1174V74.1172Z" fill="#999999"/>
<path d="M74.1174 67.9375H67.9414V74.1135H74.1174V67.9375Z" fill="#999999"/>
<path d="M74.1174 61.7617H67.9414V67.9377H74.1174V61.7617Z" fill="#999999"/>
<path d="M74.1174 55.5859H67.9414V61.7619H74.1174V55.5859Z" fill="#999999"/>
<path d="M74.1174 49.4102H67.9414V55.588H74.1174V49.4102Z" fill="#999999"/>
<path d="M74.1174 43.2344H67.9414V49.4103H74.1174V43.2344Z" fill="#999999"/>
<path d="M74.1174 37.0586H67.9414V43.2346H74.1174V37.0586Z" fill="#3A3A3A"/>
<path d="M74.1174 30.8828H67.9414V37.0606H74.1174V30.8828Z" fill="#999999"/>
<path d="M74.1174 24.7031H67.9414V30.8791H74.1174V24.7031Z" fill="#999999"/>
<path d="M74.1174 18.5273H67.9414V24.7033H74.1174V18.5273Z" fill="#999999"/>
<path d="M74.1174 12.3555H67.9414V18.5314H74.1174V12.3555Z" fill="#999999"/>
<path d="M74.1174 6.17578H67.9414V12.3536H74.1174V6.17578Z" fill="#AFAFAF"/>
<path d="M67.9415 86.4727H61.7637V92.6486H67.9415V86.4727Z" fill="#999999"/>
<path d="M67.9415 80.293H61.7637V86.4689H67.9415V80.293Z" fill="#999999"/>
<path d="M67.9415 74.1172H61.7637V80.295H67.9415V74.1172Z" fill="#999999"/>
<path d="M67.9415 67.9375H61.7637V74.1135H67.9415V67.9375Z" fill="#999999"/>
<path d="M67.9415 61.7617H61.7637V67.9377H67.9415V61.7617Z" fill="#999999"/>
<path d="M67.9415 55.5859H61.7637V61.7619H67.9415V55.5859Z" fill="#999999"/>
<path d="M67.9415 49.4102H61.7637V55.588H67.9415V49.4102Z" fill="#3A3A3A"/>
<path d="M67.9415 43.2344H61.7637V49.4103H67.9415V43.2344Z" fill="#999999"/>
<path d="M67.9415 37.0586H61.7637V43.2346H67.9415V37.0586Z" fill="#999999"/>
<path d="M67.9415 30.8828H61.7637V37.0606H67.9415V30.8828Z" fill="#999999"/>
<path d="M67.9415 24.7031H61.7637V30.8791H67.9415V24.7031Z" fill="#999999"/>
<path d="M67.9415 18.5273H61.7637V24.7033H67.9415V18.5273Z" fill="#7A7A7A"/>
<path d="M67.9415 12.3555H61.7637V18.5314H67.9415V12.3555Z" fill="#7A7A7A"/>
<path d="M67.9415 6.17578H61.7637V12.3536H67.9415V6.17578Z" fill="#7A7A7A"/>
<path d="M61.7619 92.6484H55.5859V98.8244H61.7619V92.6484Z" fill="#3A3A3A"/>
<path d="M61.7619 86.4727H55.5859V92.6486H61.7619V86.4727Z" fill="#999999"/>
<path d="M61.7619 80.293H55.5859V86.4689H61.7619V80.293Z" fill="#999999"/>
<path d="M61.7619 74.1172H55.5859V80.295H61.7619V74.1172Z" fill="#999999"/>
<path d="M61.7619 67.9375H55.5859V74.1135H61.7619V67.9375Z" fill="#999999"/>
<path d="M61.7619 61.7617H55.5859V67.9377H61.7619V61.7617Z" fill="#999999"/>
<path d="M61.7619 55.5859H55.5859V61.7619H61.7619V55.5859Z" fill="#3A3A3A"/>
<path d="M61.7619 49.4102H55.5859V55.588H61.7619V49.4102Z" fill="#999999"/>
<path d="M61.7619 43.2344H55.5859V49.4103H61.7619V43.2344Z" fill="#999999"/>
<path d="M61.7619 37.0586H55.5859V43.2346H61.7619V37.0586Z" fill="#999999"/>
<path d="M61.7619 30.8828H55.5859V37.0606H61.7619V30.8828Z" fill="#999999"/>
<path d="M61.7619 24.7031H55.5859V30.8791H61.7619V24.7031Z" fill="#999999"/>
<path d="M61.7619 18.5273H55.5859V24.7033H61.7619V18.5273Z" fill="#999999"/>
<path d="M61.7619 12.3555H55.5859V18.5314H61.7619V12.3555Z" fill="#999999"/>
<path d="M61.7619 6.17578H55.5859V12.3536H61.7619V6.17578Z" fill="#AFAFAF"/>
<path d="M55.5861 105H49.4102V111.176H55.5861V105Z" fill="#3A3A3A"/>
<path d="M55.5861 98.8242H49.4102V105.002H55.5861V98.8242Z" fill="#AFAFAF"/>
<path d="M55.5861 92.6484H49.4102V98.8244H55.5861V92.6484Z" fill="#999999"/>
<path d="M55.5861 86.4727H49.4102V92.6486H55.5861V86.4727Z" fill="#3A3A3A"/>
<path d="M55.5861 80.293H49.4102V86.4689H55.5861V80.293Z" fill="#999999"/>
<path d="M55.5861 74.1172H49.4102V80.295H55.5861V74.1172Z" fill="#999999"/>
<path d="M55.5861 67.9375H49.4102V74.1135H55.5861V67.9375Z" fill="#999999"/>
<path d="M55.5861 61.7617H49.4102V67.9377H55.5861V61.7617Z" fill="#999999"/>
<path d="M55.5861 55.5859H49.4102V61.7619H55.5861V55.5859Z" fill="#999999"/>
<path d="M55.5861 49.4102H49.4102V55.588H55.5861V49.4102Z" fill="#3A3A3A"/>
<path d="M55.5861 43.2344H49.4102V49.4103H55.5861V43.2344Z" fill="#FFBEAB"/>
<path d="M55.5861 37.0586H49.4102V43.2346H55.5861V37.0586Z" fill="#999999"/>
<path d="M55.5861 30.8828H49.4102V37.0606H55.5861V30.8828Z" fill="#999999"/>
<path d="M55.5861 24.7031H49.4102V30.8791H55.5861V24.7031Z" fill="#999999"/>
<path d="M55.5861 18.5273H49.4102V24.7033H55.5861V18.5273Z" fill="#7A7A7A"/>
<path d="M55.5861 12.3555H49.4102V18.5314H55.5861V12.3555Z" fill="#7A7A7A"/>
<path d="M55.5861 6.17578H49.4102V12.3536H55.5861V6.17578Z" fill="#7A7A7A"/>
<path d="M49.4103 105H43.2344V111.176H49.4103V105Z" fill="#3A3A3A"/>
<path d="M49.4103 98.8242H43.2344V105.002H49.4103V98.8242Z" fill="#999999"/>
<path d="M49.4103 92.6484H43.2344V98.8244H49.4103V92.6484Z" fill="#999999"/>
<path d="M49.4103 86.4727H43.2344V92.6486H49.4103V86.4727Z" fill="#3A3A3A"/>
<path d="M49.4103 80.293H43.2344V86.4689H49.4103V80.293Z" fill="#999999"/>
<path d="M49.4103 74.1172H43.2344V80.295H49.4103V74.1172Z" fill="#999999"/>
<path d="M49.4103 67.9375H43.2344V74.1135H49.4103V67.9375Z" fill="#999999"/>
<path d="M49.4103 61.7617H43.2344V67.9377H49.4103V61.7617Z" fill="#999999"/>
<path d="M49.4103 55.5859H43.2344V61.7619H49.4103V55.5859Z" fill="#3A3A3A"/>
<path d="M49.4103 49.4102H43.2344V55.588H49.4103V49.4102Z" fill="#999999"/>
<path d="M49.4103 43.2344H43.2344V49.4103H49.4103V43.2344Z" fill="#999999"/>
<path d="M49.4103 37.0586H43.2344V43.2346H49.4103V37.0586Z" fill="#999999"/>
<path d="M49.4103 30.8828H43.2344V37.0606H49.4103V30.8828Z" fill="#999999"/>
<path d="M49.4103 24.7031H43.2344V30.8791H49.4103V24.7031Z" fill="#999999"/>
<path d="M49.4103 18.5273H43.2344V24.7033H49.4103V18.5273Z" fill="#999999"/>
<path d="M49.4103 12.3555H43.2344V18.5314H49.4103V12.3555Z" fill="#999999"/>
<path d="M49.4103 6.17578H43.2344V12.3536H49.4103V6.17578Z" fill="#AFAFAF"/>
<path d="M43.2364 105H37.0586V111.176H43.2364V105Z" fill="#3A3A3A"/>
<path d="M43.2364 98.8242H37.0586V105.002H43.2364V98.8242Z" fill="#AFAFAF"/>
<path d="M43.2364 92.6484H37.0586V98.8244H43.2364V92.6484Z" fill="#999999"/>
<path d="M43.2364 86.4727H37.0586V92.6486H43.2364V86.4727Z" fill="#999999"/>
<path d="M43.2364 80.293H37.0586V86.4689H43.2364V80.293Z" fill="#3A3A3A"/>
<path d="M43.2364 74.1172H37.0586V80.295H43.2364V74.1172Z" fill="#999999"/>
<path d="M43.2364 67.9375H37.0586V74.1135H43.2364V67.9375Z" fill="#999999"/>
<path d="M43.2364 61.7617H37.0586V67.9377H43.2364V61.7617Z" fill="#999999"/>
<path d="M43.2364 55.5859H37.0586V61.7619H43.2364V55.5859Z" fill="#999999"/>
<path d="M43.2364 49.4102H37.0586V55.588H43.2364V49.4102Z" fill="#3A3A3A"/>
<path d="M43.2364 43.2344H37.0586V49.4103H43.2364V43.2344Z" fill="#999999"/>
<path d="M43.2364 37.0586H37.0586V43.2346H43.2364V37.0586Z" fill="#3A3A3A"/>
<path d="M43.2364 30.8828H37.0586V37.0606H43.2364V30.8828Z" fill="#999999"/>
<path d="M43.2364 24.7031H37.0586V30.8791H43.2364V24.7031Z" fill="#999999"/>
<path d="M43.2364 18.5273H37.0586V24.7033H43.2364V18.5273Z" fill="#999999"/>
<path d="M43.2364 12.3555H37.0586V18.5314H43.2364V12.3555Z" fill="#FFBEAB"/>
<path d="M43.2364 6.17578H37.0586V12.3536H43.2364V6.17578Z" fill="#999999"/>
<path d="M37.0568 105H30.8809V111.176H37.0568V105Z" fill="#3A3A3A"/>
<path d="M37.0568 98.8242H30.8809V105.002H37.0568V98.8242Z" fill="#AFAFAF"/>
<path d="M37.0568 92.6484H30.8809V98.8244H37.0568V92.6484Z" fill="#999999"/>
<path d="M37.0568 86.4727H30.8809V92.6486H37.0568V86.4727Z" fill="#999999"/>
<path d="M37.0568 80.293H30.8809V86.4689H37.0568V80.293Z" fill="#999999"/>
<path d="M37.0568 74.1172H30.8809V80.295H37.0568V74.1172Z" fill="#999999"/>
<path d="M37.0568 67.9375H30.8809V74.1135H37.0568V67.9375Z" fill="#999999"/>
<path d="M37.0568 61.7617H30.8809V67.9377H37.0568V61.7617Z" fill="#999999"/>
<path d="M37.0568 55.5859H30.8809V61.7619H37.0568V55.5859Z" fill="#999999"/>
<path d="M37.0568 49.4102H30.8809V55.588H37.0568V49.4102Z" fill="#999999"/>
<path d="M37.0568 43.2344H30.8809V49.4103H37.0568V43.2344Z" fill="#3A3A3A"/>
<path d="M37.0568 37.0586H30.8809V43.2346H37.0568V37.0586Z" fill="#999999"/>
<path d="M37.0568 30.8828H30.8809V37.0606H37.0568V30.8828Z" fill="#999999"/>
<path d="M37.0568 24.7031H30.8809V30.8791H37.0568V24.7031Z" fill="#999999"/>
<path d="M37.0568 18.5273H30.8809V24.7033H37.0568V18.5273Z" fill="#999999"/>
<path d="M37.0568 12.3555H30.8809V18.5314H37.0568V12.3555Z" fill="#FFBEAB"/>
<path d="M37.0568 6.17578H30.8809V12.3536H37.0568V6.17578Z" fill="#FFBEAB"/>
<path d="M37.0568 0H30.8809V6.17597H37.0568V0Z" fill="#AFAFAF"/>
<path d="M30.883 98.8242H24.707V105.002H30.883V98.8242Z" fill="#3A3A3A"/>
<path d="M30.883 92.6484H24.707V98.8244H30.883V92.6484Z" fill="#AFAFAF"/>
<path d="M30.883 86.4727H24.707V92.6486H30.883V86.4727Z" fill="#999999"/>
<path d="M30.883 80.293H24.707V86.4689H30.883V80.293Z" fill="#999999"/>
<path d="M30.883 74.1172H24.707V80.295H30.883V74.1172Z" fill="#999999"/>
<path d="M30.883 67.9375H24.707V74.1135H30.883V67.9375Z" fill="#999999"/>
<path d="M30.883 61.7617H24.707V67.9377H30.883V61.7617Z" fill="#999999"/>
<path d="M30.883 55.5859H24.707V61.7619H30.883V55.5859Z" fill="#FFA99F"/>
<path d="M30.883 49.4102H24.707V55.588H30.883V49.4102Z" fill="#999999"/>
<path d="M30.883 43.2344H24.707V49.4103H30.883V43.2344Z" fill="#999999"/>
<path d="M30.883 37.0586H24.707V43.2346H30.883V37.0586Z" fill="#3A3A3A"/>
<path d="M30.883 30.8828H24.707V37.0606H30.883V30.8828Z" fill="#999999"/>
<path d="M30.883 24.7031H24.707V30.8791H30.883V24.7031Z" fill="#999999"/>
<path d="M30.883 18.5273H24.707V24.7033H30.883V18.5273Z" fill="#999999"/>
<path d="M30.883 12.3555H24.707V18.5314H30.883V12.3555Z" fill="#AFAFAF"/>
<path d="M30.883 6.17578H24.707V12.3536H30.883V6.17578Z" fill="#AFAFAF"/>
<path d="M24.7072 92.6484H18.5312V98.8244H24.7072V92.6484Z" fill="#3A3A3A"/>
<path d="M24.7072 86.4727H18.5312V92.6486H24.7072V86.4727Z" fill="#AFAFAF"/>
<path d="M24.7072 80.293H18.5312V86.4689H24.7072V80.293Z" fill="#AFAFAF"/>
<path d="M24.7072 74.1172H18.5312V80.295H24.7072V74.1172Z" fill="#999999"/>
<path d="M24.7072 67.9375H18.5312V74.1135H24.7072V67.9375Z" fill="#999999"/>
<path d="M24.7072 61.7617H18.5312V67.9377H24.7072V61.7617Z" fill="#999999"/>
<path d="M24.7072 55.5859H18.5312V61.7619H24.7072V55.5859Z" fill="#FFA99F"/>
<path d="M24.7072 49.4102H18.5312V55.588H24.7072V49.4102Z" fill="#999999"/>
<path d="M24.7072 43.2344H18.5312V49.4103H24.7072V43.2344Z" fill="#999999"/>
<path d="M24.7072 37.0586H18.5312V43.2346H24.7072V37.0586Z" fill="#999999"/>
<path d="M24.7072 30.8828H18.5312V37.0606H24.7072V30.8828Z" fill="#999999"/>
<path d="M24.7072 24.7031H18.5312V30.8791H24.7072V24.7031Z" fill="#AFAFAF"/>
<path d="M24.7072 18.5273H18.5312V24.7033H24.7072V18.5273Z" fill="#AFAFAF"/>
<path d="M18.5294 86.4727H12.3516V92.6486H18.5294V86.4727Z" fill="#3A3A3A"/>
<path d="M18.5294 80.293H12.3516V86.4689H18.5294V80.293Z" fill="#7A7A7A"/>
<path d="M18.5294 74.1172H12.3516V80.295H18.5294V74.1172Z" fill="#999999"/>
<path d="M18.5294 67.9375H12.3516V74.1135H18.5294V67.9375Z" fill="#7A7A7A"/>
<path d="M18.5294 61.7617H12.3516V67.9377H18.5294V61.7617Z" fill="#3A3A3A"/>
<path d="M18.5294 55.5859H12.3516V61.7619H18.5294V55.5859Z" fill="#FFA99F"/>
<path d="M18.5294 49.4102H12.3516V55.588H18.5294V49.4102Z" fill="#3A3A3A"/>
<path d="M18.5294 43.2344H12.3516V49.4103H18.5294V43.2344Z" fill="#7A7A7A"/>
<path d="M18.5294 37.0586H12.3516V43.2346H18.5294V37.0586Z" fill="#7A7A7A"/>
<path d="M18.5294 30.8828H12.3516V37.0606H18.5294V30.8828Z" fill="#AFAFAF"/>
<path d="M12.3518 80.293H6.17578V86.4689H12.3518V80.293Z" fill="#AFAFAF"/>
<path d="M12.3518 74.1172H6.17578V80.295H12.3518V74.1172Z" fill="#AFAFAF"/>
<path d="M12.3518 67.9375H6.17578V74.1135H12.3518V67.9375Z" fill="#AFAFAF"/>
<path d="M12.3518 61.7617H6.17578V67.9377H12.3518V61.7617Z" fill="#3A3A3A"/>
<path d="M12.3518 55.5859H6.17578V61.7619H12.3518V55.5859Z" fill="#AFAFAF"/>
<path d="M12.3518 49.4102H6.17578V55.588H12.3518V49.4102Z" fill="#3A3A3A"/>
<path d="M12.3518 43.2344H6.17578V49.4103H12.3518V43.2344Z" fill="#AFAFAF"/>
<path d="M12.3518 37.0586H6.17578V43.2346H12.3518V37.0586Z" fill="#AFAFAF"/>
<path d="M6.17597 61.7617H0V67.9377H6.17597V61.7617Z" fill="#3A3A3A"/>
<path d="M6.17597 49.4102H0V55.588H6.17597V49.4102Z" fill="#3A3A3A"/>
<path d="M94 105.711L94 85.9461L89.4389 85.9461L89.4389 105.711L94 105.711Z" fill="#000002"/>
<rect width="9.12222" height="4.56111" transform="matrix(4.37114e-08 -1 -1 -4.37114e-08 89.4395 85.9492)" fill="#000002"/>
<rect width="9.12222" height="4.56111" transform="matrix(4.37114e-08 -1 -1 -4.37114e-08 89.4395 114.836)" fill="#000002"/>
<path d="M84.877 76.8242L84.877 72.2631L80.3158 72.2631L80.3158 76.8242L84.877 76.8242Z" fill="#000002"/>
<path d="M84.877 118.637L84.877 114.076L80.3158 114.076L80.3158 118.637L84.877 118.637Z" fill="#000002"/>
<path d="M80.3164 72.2617L80.3164 67.7006L68.5335 67.7006L68.5335 72.2617L80.3164 72.2617Z" fill="#000002"/>
<path d="M51.4297 72.2617L51.4297 67.7006L41.9274 67.7006L41.9274 72.2617L51.4297 72.2617Z" fill="#000002"/>
<path d="M41.9277 76.8242L41.9277 72.2631L37.3666 72.2631L37.3666 76.8242L41.9277 76.8242Z" fill="#000002"/>
<path d="M37.3672 85.9492L37.3672 76.827L32.8061 76.827L32.8061 85.9492L37.3672 85.9492Z" fill="#000002"/>
<path d="M41.9277 114.836L41.9277 119.397L37.3666 119.397L37.3666 114.836L41.9277 114.836Z" fill="#000002"/>
<path d="M19.1211 114.836L19.1211 119.397L14.56 119.397L14.56 114.836L19.1211 114.836Z" fill="#000002"/>
<path d="M19.1211 123.957L19.1211 128.518L14.56 128.518L14.56 123.957L19.1211 123.957Z" fill="#000002"/>
<path d="M14.5605 119.398L14.5605 128.521L9.99944 128.521L9.99944 119.398L14.5605 119.398Z" fill="#000002"/>
<path d="M37.3672 105.711L37.3672 114.833L32.8061 114.833L32.8061 105.711L37.3672 105.711Z" fill="#000002"/>
<path d="M37.3672 110.273L37.3672 114.835L19.1228 114.835L19.1228 110.273L37.3672 110.273Z" fill="black"/>
<path d="M37.3672 119.398L37.3672 123.96L19.1228 123.96L19.1228 119.398L37.3672 119.398Z" fill="#000002"/>
<path d="M32.8047 85.9492L32.8047 105.714L28.2436 105.714L28.2436 85.9492L32.8047 85.9492Z" fill="#000002"/>
<path d="M51.0508 123.957L51.0508 119.396L41.9286 119.396L41.9286 123.957L51.0508 123.957Z" fill="#000002"/>
<path d="M80.3164 123.957L80.3164 118.636L68.5335 118.636L68.5335 123.957L80.3164 123.957Z" fill="#000002"/>
<path d="M70.4336 128.52L70.4336 123.958L51.0489 123.958L51.0489 128.52L70.4336 128.52Z" fill="#000002"/>
<path d="M70.4336 67.7031L70.4336 63.142L51.429 63.142L51.429 67.7031L70.4336 67.7031Z" fill="#000002"/>
<path d="M19.123 119.395L19.123 123.956L14.5619 123.956L14.5619 119.395L19.123 119.395Z" fill="#E14141"/>
<path d="M37.3672 101.152L37.3672 105.713L32.8061 105.713L32.8061 101.152L37.3672 101.152Z" fill="#E14141"/>
<path d="M41.9277 110.656L41.9277 114.837L37.3666 114.837L37.3666 110.656L41.9277 110.656Z" fill="#E14141"/>
<path d="M51.0508 109.516L51.0508 114.077L46.4897 114.077L46.4897 109.516L51.0508 109.516Z" fill="#E14141"/>
<path d="M41.9277 90.8906L41.9277 100.013L37.3666 100.013L37.3666 90.8906L41.9277 90.8906Z" fill="#E14141"/>
<path d="M46.4902 86.3281L46.4902 90.8892L41.9291 90.8892L41.9291 86.3281L46.4902 86.3281Z" fill="#E14141"/>
<path d="M55.6113 86.3281L55.6113 90.8892L51.0502 90.8892L51.0502 86.3281L55.6113 86.3281Z" fill="#E14141"/>
<path d="M51.0508 90.8906L51.0508 100.393L46.4897 100.393L46.4897 90.8906L51.0508 90.8906Z" fill="#E14141"/>
<path d="M55.6113 100.012L55.6113 109.514L51.0502 109.514L51.0502 100.012L55.6113 100.012Z" fill="#E14141"/>
<path d="M60.1719 109.516L60.1719 114.077L55.6108 114.077L55.6108 109.516L60.1719 109.516Z" fill="#E14141"/>
<path d="M64.7344 104.574L64.7344 109.515L60.1733 109.515L60.1733 104.574L64.7344 104.574Z" fill="#E14141"/>
<path d="M65.1133 86.3281L65.1133 90.8892L60.1721 90.8892L60.1721 86.3281L65.1133 86.3281Z" fill="#E14141"/>
<path d="M70.4355 90.8906L70.4355 95.4517L65.1143 95.4517L65.1143 90.8906L70.4355 90.8906Z" fill="#E14141"/>
<path d="M74.9961 100.012L74.9961 104.573L64.7336 104.573L64.7336 100.012L74.9961 100.012Z" fill="#E14141"/>
<path d="M84.8789 100.012L84.8789 104.573L80.3178 104.573L80.3178 100.012L84.8789 100.012Z" fill="#E14141"/>
<path d="M80.3164 104.574L80.3164 109.515L74.9951 109.515L74.9951 104.574L80.3164 104.574Z" fill="#E14141"/>
<path d="M80.3164 114.078L80.3164 118.639L74.9951 118.639L74.9951 114.078L80.3164 114.078Z" fill="#E14141"/>
<path d="M70.8145 72.2656L70.8145 81.3878L65.8733 81.3878L65.8733 72.2656L70.8145 72.2656Z" fill="#E14141"/>
<path d="M60.1719 81.7695L60.1719 86.3306L55.6108 86.3306L55.6108 81.7695L60.1719 81.7695Z" fill="#E14141"/>
<path d="M60.1719 67.7031L60.1719 76.8253L55.6108 76.8253L55.6108 67.7031L60.1719 67.7031Z" fill="#E14141"/>
<path d="M60.1719 67.7031L60.1719 72.2642L68.5339 72.2642L68.5339 67.7031L60.1719 67.7031Z" fill="#E14141"/>
<path d="M55.9902 67.7031L55.9902 72.2642L51.4291 72.2642L51.4291 67.7031L55.9902 67.7031Z" fill="#E14141"/>
<path d="M64.7344 114.078L64.7344 118.639L60.1733 118.639L60.1733 114.078L64.7344 114.078Z" fill="#E14141"/>
<path d="M60.1719 118.637L60.1719 123.958L55.6108 123.958L55.6108 118.637L60.1719 118.637Z" fill="#E14141"/>
<path d="M68.5352 118.637L68.5352 123.958L64.7342 123.958L64.7342 118.637L68.5352 118.637Z" fill="#E14141"/>
<path d="M55.6113 114.078L55.6113 118.639L51.0502 118.639L51.0502 114.078L55.6113 114.078Z" fill="#E14141"/>
<path d="M74.9961 109.516L74.9961 114.077L64.7336 114.077L64.7336 109.516L74.9961 109.516Z" fill="#E14141"/>
<path d="M64.7344 95.4531L64.7344 100.014L55.6122 100.014L55.6122 95.4531L64.7344 95.4531Z" fill="#E14141"/>
<path d="M46.4902 101.531L46.4902 109.513L41.9291 109.513L41.9291 101.531L46.4902 101.531Z" fill="#E14141"/>
<path d="M37.3672 85.9492L37.3672 90.5103L32.8061 90.5103L32.8061 85.9492L37.3672 85.9492Z" fill="#E14141"/>
<path d="M46.4902 114.836L46.4902 119.397L41.9291 119.397L41.9291 114.836L46.4902 114.836Z" fill="#E14141"/>
<path d="M55.6113 76.8281L55.6113 81.7693L37.3669 81.7693L37.3669 76.8281L55.6113 76.8281Z" fill="#E14141"/>
<path d="M37.3672 114.836L37.3672 119.397L19.1228 119.397L19.1228 114.836L37.3672 114.836Z" fill="#E14141"/>
<path d="M80.3164 72.2656L80.3164 81.3878L74.9951 81.3878L74.9951 72.2656L80.3164 72.2656Z" fill="#E14141"/>
<path d="M84.8789 81.7695L84.8789 91.2718L80.3178 91.2718L80.3178 81.7695L84.8789 81.7695Z" fill="#E14141"/>
<path d="M80.3164 91.2695L80.3164 100.012L74.9951 100.012L74.9951 91.2695L80.3164 91.2695Z" fill="#E14141"/>
<path d="M89.4395 91.2695L89.4395 100.012L84.8783 100.012L84.8783 91.2695L89.4395 91.2695Z" fill="#E14141"/>
<path d="M74.9961 81.3867L74.9961 90.889L70.435 90.889L70.435 81.3867L74.9961 81.3867Z" fill="#E14141"/>
<path d="M51.0508 114.078L51.0508 119.399L46.4897 119.399L46.4897 114.078L51.0508 114.078Z" fill="#842628"/>
<path d="M55.6113 109.516L55.6113 114.077L51.0502 114.077L51.0502 109.516L55.6113 109.516Z" fill="#842628"/>
<path d="M65.1133 90.8906L65.1133 95.4517L51.0499 95.4517L51.0499 90.8906L65.1133 90.8906Z" fill="#842628"/>
<path d="M55.6113 95.4531L55.6113 100.014L51.0502 100.014L51.0502 95.4531L55.6113 95.4531Z" fill="#842628"/>
<path d="M60.1719 86.3281L60.1719 90.8892L55.6108 90.8892L55.6108 86.3281L60.1719 86.3281Z" fill="#842628"/>
<path d="M80.3164 100.012L80.3164 104.573L74.9951 104.573L74.9951 100.012L80.3164 100.012Z" fill="#842628"/>
<path d="M89.4395 100.012L89.4395 105.713L84.8783 105.713L84.8783 100.012L89.4395 100.012Z" fill="#842628"/>
<path d="M89.4395 85.9492L89.4395 91.2705L84.8783 91.2705L84.8783 85.9492L89.4395 85.9492Z" fill="#842628"/>
<path d="M84.8789 109.516L84.8789 114.077L74.9965 114.077L74.9965 109.516L84.8789 109.516Z" fill="#842628"/>
<path d="M84.8789 109.516L84.8789 104.574L80.3178 104.574L80.3178 109.516L84.8789 109.516Z" fill="#842628"/>
<path d="M74.9961 72.2656L74.9961 81.3878L70.8151 81.3878L70.8151 72.2656L74.9961 72.2656Z" fill="#842628"/>
<path d="M79.1777 72.2656L79.1777 81.3878L74.9967 81.3878L74.9967 72.2656L79.1777 72.2656Z" fill="#842628"/>
<path d="M70.4355 95.4531L70.4355 100.014L64.7342 100.014L64.7342 95.4531L70.4355 95.4531Z" fill="#842628"/>
<path d="M60.1719 114.078L60.1719 118.639L55.6108 118.639L55.6108 114.078L60.1719 114.078Z" fill="#842628"/>
<path d="M55.6113 118.637L55.6113 123.958L51.0502 123.958L51.0502 118.637L55.6113 118.637Z" fill="#842628"/>
<path d="M64.7344 118.637L64.7344 123.958L60.1733 123.958L60.1733 118.637L64.7344 118.637Z" fill="#842628"/>
<path d="M74.9961 114.078L74.9961 118.639L64.7336 118.639L64.7336 114.078L74.9961 114.078Z" fill="#842628"/>
<path d="M64.7344 109.516L64.7344 114.077L60.1733 114.077L60.1733 109.516L64.7344 109.516Z" fill="#842628"/>
<path d="M74.9961 104.574L74.9961 109.515L64.7336 109.515L64.7336 104.574L74.9961 104.574Z" fill="#842628"/>
<path d="M64.7344 100.012L64.7344 104.573L60.1733 104.573L60.1733 100.012L64.7344 100.012Z" fill="#842628"/>
<path d="M60.1719 100.012L60.1719 109.514L55.6108 109.514L55.6108 100.012L60.1719 100.012Z" fill="#842628"/>
<path d="M46.4902 109.516L46.4902 114.837L41.9291 114.837L41.9291 109.516L46.4902 109.516Z" fill="#842628"/>
<path d="M37.3672 90.5078L37.3672 101.15L32.8061 101.15L32.8061 90.5078L37.3672 90.5078Z" fill="#842628"/>
<path d="M41.9277 100.012L41.9277 110.654L37.3666 110.654L37.3666 100.012L41.9277 100.012Z" fill="#842628"/>
<path d="M46.4902 90.8906L46.4902 101.533L41.9291 101.533L41.9291 90.8906L46.4902 90.8906Z" fill="#842628"/>
<path d="M51.0508 86.3281L51.0508 90.8892L46.4897 90.8892L46.4897 86.3281L51.0508 86.3281Z" fill="#842628"/>
<path d="M51.0508 100.391L51.0508 109.513L46.4897 109.513L46.4897 100.391L51.0508 100.391Z" fill="#842628"/>
<path d="M41.9277 81.7695L41.9277 90.8917L37.3666 90.8917L37.3666 81.7695L41.9277 81.7695Z" fill="#842628"/>
<path d="M55.6113 81.7695L55.6113 86.3306L37.3669 86.3306L37.3669 81.7695L55.6113 81.7695Z" fill="#842628"/>
<path d="M55.6113 72.2656L55.6113 76.8267L41.928 76.8267L41.928 72.2656L55.6113 72.2656Z" fill="#842628"/>
<path d="M65.873 76.8281L65.873 81.7693L55.6106 81.7693L55.6106 76.8281L65.873 76.8281Z" fill="#842628"/>
<path d="M65.1133 90.8906L65.1133 81.3883L70.4346 81.3883L70.4346 90.8906L65.1133 90.8906Z" fill="#842628"/>
<path d="M65.873 72.2656L65.873 86.329L60.1717 86.329L60.1717 72.2656L65.873 72.2656Z" fill="#842628"/>
<path d="M80.3164 81.3906L80.3164 91.273L74.9951 91.273L74.9951 81.3906L80.3164 81.3906Z" fill="#842628"/>
<path d="M84.8789 76.8281L84.8789 81.7693L80.3178 81.7693L80.3178 76.8281L84.8789 76.8281Z" fill="#842628"/>
<path d="M84.8789 91.2695L84.8789 100.012L80.3178 100.012L80.3178 91.2695L84.8789 91.2695Z" fill="#842628"/>
<path d="M74.9961 90.8906L74.9961 100.013L70.435 100.013L70.435 90.8906L74.9961 90.8906Z" fill="#842628"/>
<path d="M98.8225 98.8242H92.6465V105.002H98.8225V98.8242Z" fill="#3A3A3A"/>
<path d="M98.8225 92.6484H92.6465V98.8244H98.8225V92.6484Z" fill="#3A3A3A"/>
<path d="M98.8225 86.4727H92.6465V92.6486H98.8225V86.4727Z" fill="#7A7A7A"/>
<path d="M98.8225 80.293H92.6465V86.4689H98.8225V80.293Z" fill="#999999"/>
<path d="M98.8225 74.1172H92.6465V80.295H98.8225V74.1172Z" fill="#999999"/>
<path d="M98.8225 67.9375H92.6465V74.1135H98.8225V67.9375Z" fill="#999999"/>
<path d="M98.8225 61.7617H92.6465V67.9377H98.8225V61.7617Z" fill="#3A3A3A"/>
<path d="M92.6466 98.8242H86.4688V105.002H92.6466V98.8242Z" fill="#3A3A3A"/>
<path d="M92.6466 92.6484H86.4688V98.8244H92.6466V92.6484Z" fill="#7A7A7A"/>
<path d="M92.6466 86.4727H86.4688V92.6486H92.6466V86.4727Z" fill="#999999"/>
<path d="M92.6466 80.293H86.4688V86.4689H92.6466V80.293Z" fill="#999999"/>
<path d="M92.6466 67.9375H86.4688V74.1135H92.6466V67.9375Z" fill="#999999"/>
<path d="M92.6466 61.7617H86.4688V67.9377H92.6466V61.7617Z" fill="#3A3A3A"/>
<path d="M86.4689 105H80.293V111.176H86.4689V105Z" fill="#3A3A3A"/>
<path d="M86.4689 98.8242H80.293V105.002H86.4689V98.8242Z" fill="#7A7A7A"/>
<path d="M86.4689 92.6484H80.293V98.8244H86.4689V92.6484Z" fill="#999999"/>
<path d="M86.4689 86.4727H80.293V92.6486H86.4689V86.4727Z" fill="#999999"/>
<path d="M86.4689 80.293H80.293V86.4689H86.4689V80.293Z" fill="#3A3A3A"/>
<path d="M86.4689 61.7617H80.293V67.9377H86.4689V61.7617Z" fill="#999999"/>
<path d="M80.2932 105H74.1172V111.176H80.2932V105Z" fill="#3A3A3A"/>
<path d="M80.2932 98.8242H74.1172V105.002H80.2932V98.8242Z" fill="#AFAFAF"/>
<path d="M80.2932 92.6484H74.1172V98.8244H80.2932V92.6484Z" fill="#999999"/>
<path d="M80.2932 86.4727H74.1172V92.6486H80.2932V86.4727Z" fill="#3A3A3A"/>
<path d="M74.1174 105H67.9414V111.176H74.1174V105Z" fill="#3A3A3A"/>
<path d="M74.1174 98.8242H67.9414V105.002H74.1174V98.8242Z" fill="#999999"/>
<path d="M74.1174 92.6484H67.9414V98.8244H74.1174V92.6484Z" fill="#AFAFAF"/>
<path d="M74.1174 86.4727H67.9414V92.6486H74.1174V86.4727Z" fill="#3A3A3A"/>
<path d="M55.5861 105H49.4102V111.176H55.5861V105Z" fill="#3A3A3A"/>
<path d="M55.5861 98.8242H49.4102V105.002H55.5861V98.8242Z" fill="#AFAFAF"/>
<path d="M55.5861 92.6484H49.4102V98.8244H55.5861V92.6484Z" fill="#999999"/>
<path d="M55.5861 86.4727H49.4102V92.6486H55.5861V86.4727Z" fill="#3A3A3A"/>
<path d="M49.4103 105H43.2344V111.176H49.4103V105Z" fill="#3A3A3A"/>
<path d="M49.4103 98.8242H43.2344V105.002H49.4103V98.8242Z" fill="#999999"/>
<path d="M49.4103 92.6484H43.2344V98.8244H49.4103V92.6484Z" fill="#999999"/>
<path d="M49.4103 86.4727H43.2344V92.6486H49.4103V86.4727Z" fill="#3A3A3A"/>
<path d="M43.2364 105H37.0586V111.176H43.2364V105Z" fill="#3A3A3A"/>
<path d="M43.2364 98.8242H37.0586V105.002H43.2364V98.8242Z" fill="#AFAFAF"/>
<path d="M43.2364 92.6484H37.0586V98.8244H43.2364V92.6484Z" fill="#999999"/>
<path d="M43.2364 86.4727H37.0586V92.6486H43.2364V86.4727Z" fill="#999999"/>
<path d="M43.2364 80.293H37.0586V86.4689H43.2364V80.293Z" fill="#3A3A3A"/>
<path d="M43.2364 61.7617H37.0586V67.9377H43.2364V61.7617Z" fill="#999999"/>
<path d="M37.0568 105H30.8809V111.176H37.0568V105Z" fill="#3A3A3A"/>
<path d="M37.0568 98.8242H30.8809V105.002H37.0568V98.8242Z" fill="#AFAFAF"/>
<path d="M37.0568 92.6484H30.8809V98.8244H37.0568V92.6484Z" fill="#999999"/>
<path d="M37.0568 86.4727H30.8809V92.6486H37.0568V86.4727Z" fill="#999999"/>
<path d="M37.0568 80.293H30.8809V86.4689H37.0568V80.293Z" fill="#999999"/>
<path d="M37.0568 67.9375H30.8809V74.1135H37.0568V67.9375Z" fill="#999999"/>
<path d="M37.0568 61.7617H30.8809V67.9377H37.0568V61.7617Z" fill="#999999"/>
<path d="M30.883 98.8242H24.707V105.002H30.883V98.8242Z" fill="#3A3A3A"/>
<path d="M30.883 92.6484H24.707V98.8244H30.883V92.6484Z" fill="#AFAFAF"/>
<path d="M30.883 86.4727H24.707V92.6486H30.883V86.4727Z" fill="#999999"/>
<path d="M30.883 80.293H24.707V86.4689H30.883V80.293Z" fill="#999999"/>
<path d="M30.883 74.1172H24.707V80.295H30.883V74.1172Z" fill="#999999"/>
<path d="M30.883 67.9375H24.707V74.1135H30.883V67.9375Z" fill="#999999"/>
<path d="M30.883 61.7617H24.707V67.9377H30.883V61.7617Z" fill="#999999"/>
<path d="M61.7619 92.6484H55.5859V98.8244H61.7619V92.6484Z" fill="#3A3A3A"/>
<path d="M61.7619 98.8242H55.5859V105.002H61.7619V98.8242Z" fill="#3A3A3A"/>
<path d="M67.9415 98.8242H61.7637V105.002H67.9415V98.8242Z" fill="#3A3A3A"/>
<path d="M67.9415 92.6484H61.7637V98.8244H67.9415V92.6484Z" fill="#3A3A3A"/>
</svg>
