<svg width="56" height="64" viewBox="0 0 56 64" fill="none" xmlns="http://www.w3.org/2000/svg">
<rect y="32" width="8" height="8" fill="#F4AC20"/>
<rect y="16" width="8" height="8" fill="#F4AC20"/>
<rect x="8" y="32" width="16" height="8" fill="#F4AC20"/>
<rect width="16" height="8" fill="#F4AC20"/>
<rect x="16" y="8" width="8" height="8" fill="#F4AC20"/>
<rect x="24" y="8" width="8" height="8" fill="#F8CE40"/>
<rect x="32" width="8" height="8" fill="#F4AC20"/>
<rect x="40" y="8" width="16" height="8" fill="#F4AC20"/>
<rect x="32" y="8" width="8" height="16" fill="#F4AC20"/>
<rect x="48" y="24" width="8" height="8" fill="#F4AC20"/>
<rect x="32" y="40" width="24" height="8" fill="#F4AC20"/>
<rect x="24" y="32" width="8" height="8" fill="#F4AC20"/>
<rect x="40" y="32" width="8" height="8" fill="#F4AC20"/>
<rect x="40" y="56" width="8" height="8" fill="#F4AC20"/>
<rect x="24" y="48" width="16" height="8" fill="#F4AC20"/>
<rect x="8" y="16" width="16" height="8" fill="#F8CE40"/>
<rect x="32" y="24" width="8" height="8" fill="#F8CE40"/>
<rect x="8" y="40" width="8" height="16" fill="#F8CE40"/>
<rect y="40" width="8" height="8" fill="#F8CE40"/>
<rect x="24" y="16" width="8" height="16" fill="#F8CE40"/>
<rect x="40" y="16" width="8" height="16" fill="#F8CE40"/>
<rect x="32" y="32" width="8" height="8" fill="#F8CE40"/>
<rect x="40" y="8" width="8" height="8" fill="#F8CE40"/>
<rect x="48" y="32" width="8" height="8" fill="#F8CE40"/>
<rect y="24" width="8" height="8" fill="#F8CE40"/>
<rect x="16" y="32" width="8" height="8" fill="#F8CE40"/>
<rect x="24" width="8" height="8" fill="#F8CE40"/>
<rect x="48" y="16" width="8" height="8" fill="#F8CE40"/>
<rect x="8" y="8" width="8" height="8" fill="#F8CE40"/>
<rect x="32" width="24" height="8" fill="#F8CE40"/>
<rect y="8" width="8" height="8" fill="#F8CE40"/>
<rect x="24" y="40" width="8" height="16" fill="#F8CE40"/>
<rect x="32" y="56" width="8" height="8" fill="#F8CE40"/>
<rect x="48" y="56" width="8" height="8" fill="#F8CE40"/>
<rect x="24" y="56" width="8" height="8" fill="#F4AC20"/>
<rect x="8" y="56" width="8" height="8" fill="#F4AC20"/>
<rect y="48" width="8" height="16" fill="#F4AC20"/>
<rect x="16" y="56" width="8" height="8" fill="#F8CE40"/>
<rect x="40" y="48" width="16" height="8" fill="#F8CE40"/>
<rect x="16" width="8" height="8" fill="#F8CE40"/>
<rect x="16" y="40" width="8" height="16" fill="#F4AC20"/>
<rect x="8" y="24" width="16" height="8" fill="#F4AC20"/>
<rect x="16" y="24" width="8" height="8" fill="#F8CE40"/>
<rect x="24" y="16" width="8" height="8" fill="#F4AC20"/>
<rect x="40" width="8" height="8" fill="#F4AC20"/>
<rect x="24" width="8" height="8" fill="#F4AC20"/>
</svg>
