<svg width="212" height="142" viewBox="0 0 212 142" fill="none" xmlns="http://www.w3.org/2000/svg">
<path d="M0.00120926 10.0938H5.04883V15.1414H0.00120926V10.0938Z" fill="#3A3A3A"/>
<path d="M0.00120926 5.04688H5.04883V10.0945H0.00120926V5.04688Z" fill="#3A3A3A"/>
<path d="M5.04808 15.1406H10.0957V20.1882H5.04808V15.1406Z" fill="#3A3A3A"/>
<path d="M5.04808 10.0938H10.0957V15.1414H5.04808V10.0938Z" fill="#999999"/>
<path d="M5.04808 5.04688H10.0957V10.0945H5.04808V5.04688Z" fill="#999999"/>
<path d="M5.04808 0H10.0957V5.04762H5.04808V0Z" fill="#7A7A7A"/>
<path d="M10.095 15.1406H15.1426V20.1882H10.095V15.1406Z" fill="#3A3A3A"/>
<path d="M10.095 10.0938H15.1426V15.1414H10.095V10.0938Z" fill="#7A7A7A"/>
<path d="M10.095 5.04688H15.1426V10.0945H10.095V5.04688Z" fill="#999999"/>
<path d="M10.095 0H15.1426V5.04762H10.095V0Z" fill="#7A7A7A"/>
<path d="M15.1418 20.1875H20.1895V25.3881H15.1418V20.1875Z" fill="#3A3A3A"/>
<path d="M15.1418 15.1406H20.1895V20.1882H15.1418V15.1406Z" fill="#999999"/>
<path d="M15.1418 10.0938H20.1895V15.1414H15.1418V10.0938Z" fill="#999999"/>
<path d="M15.1418 5.04688H20.1895V10.0945H15.1418V5.04688Z" fill="#7A7A7A"/>
<path d="M20.1887 25.3906H25.2363V30.4382H20.1887V25.3906Z" fill="#3A3A3A"/>
<path d="M20.1899 20.3438H24.9316V25.3914H20.1899V20.3438Z" fill="#999999"/>
<path d="M20.1887 15.2969H25.2363V20.3445H20.1887V15.2969Z" fill="#7A7A7A"/>
<path d="M20.1887 10.25H25.2363V15.2976H20.1887V10.25Z" fill="#7A7A7A"/>
<path d="M25.2395 30.4375H30.2871V35.4851H25.2395V30.4375Z" fill="#3A3A3A"/>
<path d="M25.2395 25.3906H30.2871V30.4382H25.2395V25.3906Z" fill="#999999"/>
<path d="M24.9328 20.3438H29.9805V25.3914H24.9328V20.3438Z" fill="#7A7A7A"/>
<path d="M25.2395 15.2969H30.2871V20.3445H25.2395V15.2969Z" fill="#7A7A7A"/>
<path d="M30.2864 30.4375H35.334V35.4851H30.2864V30.4375Z" fill="#3A3A3A"/>
<path d="M30.2864 25.3906H35.334V30.4382H30.2864V25.3906Z" fill="#7A7A7A"/>
<path d="M29.9797 20.3438H35.0273V25.3914H29.9797V20.3438Z" fill="#7A7A7A"/>
<path d="M35.3332 35.4844H40.3809V40.532H35.3332V35.4844Z" fill="#3A3A3A"/>
<path d="M35.3332 30.4375H40.3809V35.4851H35.3332V30.4375Z" fill="#7A7A7A"/>
<path d="M35.3332 25.3906H40.3809V30.4382H35.3332V25.3906Z" fill="#999999"/>
<path d="M35.0266 20.3438H40.0742V25.3914H35.0266V20.3438Z" fill="#7A7A7A"/>
<path d="M40.3801 40.5312H45.4277V45.5789H40.3801V40.5312Z" fill="#3A3A3A"/>
<path d="M40.3801 35.4844H45.4277V40.532H40.3801V35.4844Z" fill="#999999"/>
<path d="M40.3801 30.4375H45.4277V35.4851H40.3801V30.4375Z" fill="#999999"/>
<path d="M40.3801 25.3906H45.4277V30.4382H40.3801V25.3906Z" fill="#7A7A7A"/>
<path d="M45.4289 40.5312H50.4766V45.5789H45.4289V40.5312Z" fill="#3A3A3A"/>
<path d="M45.4289 35.4844H50.4766V40.532H45.4289V35.4844Z" fill="#7A7A7A"/>
<path d="M45.4289 30.4375H50.4766V35.4851H45.4289V30.4375Z" fill="#7A7A7A"/>
<path d="M50.4758 45.582H55.5234V50.6297H50.4758V45.582Z" fill="#3A3A3A"/>
<path d="M50.4758 40.5312H55.5234V45.5789H50.4758V40.5312Z" fill="#999999"/>
<path d="M50.4758 35.4844H55.5234V40.532H50.4758V35.4844Z" fill="#999999"/>
<path d="M50.4758 30.4375H55.5234V35.4851H50.4758V30.4375Z" fill="#7A7A7A"/>
<path d="M55.5246 45.582H60.5723V50.6297H55.5246V45.582Z" fill="#3A3A3A"/>
<path d="M55.5246 40.5312H60.5723V45.5789H55.5246V40.5312Z" fill="#999999"/>
<path d="M55.5246 35.4844H60.5723V40.532H55.5246V35.4844Z" fill="#7A7A7A"/>
<path d="M60.5715 55.6758H65.6191V60.7234H60.5715V55.6758Z" fill="#3A3A3A"/>
<path d="M60.5715 50.6289H65.6191V55.6765H60.5715V50.6289Z" fill="#3A3A3A"/>
<path d="M60.5715 45.582H65.6191V50.6297H60.5715V45.582Z" fill="#3A3A3A"/>
<path d="M60.5715 40.5312H65.6191V45.5789H60.5715V40.5312Z" fill="#7A7A7A"/>
<path d="M60.5715 35.4844H65.6191V40.532H60.5715V35.4844Z" fill="#7A7A7A"/>
<path d="M65.6184 91.0078H70.666V96.0554H65.6184V91.0078Z" fill="#3A3A3A"/>
<path d="M65.6184 96.0586H70.666V101.106H65.6184V96.0586Z" fill="#3A3A3A"/>
<path d="M65.6184 101.105H70.666V106.153H65.6184V101.105Z" fill="#3A3A3A"/>
<path d="M65.6184 106.152H70.666V111.2H65.6184V106.152Z" fill="#3A3A3A"/>
<path d="M70.6672 111.199H75.7148V116.247H70.6672V111.199Z" fill="#3A3A3A"/>
<path d="M70.6672 116.25H75.7148V121.298H70.6672V116.25Z" fill="#3A3A3A"/>
<path d="M65.6184 111.199H70.666V116.247H65.6184V111.199Z" fill="#3A3A3A"/>
<path d="M70.6672 121.297H75.7148V126.344H70.6672V121.297Z" fill="#3A3A3A"/>
<path d="M70.6672 126.344H75.7148V131.391H70.6672V126.344Z" fill="#3A3A3A"/>
<path d="M75.7153 131.391H85.8105V136.438H75.7153V131.391Z" fill="#3A3A3A"/>
<path d="M75.7141 126.344H80.7617V131.391H75.7141V126.344Z" fill="#3A3A3A"/>
<path d="M85.8098 136.438H90.8574V141.485H85.8098V136.438Z" fill="#3A3A3A"/>
<path d="M80.7629 136.438H85.8105V141.485H80.7629V136.438Z" fill="#3A3A3A"/>
<path d="M90.8567 131.391H95.9043V136.438H90.8567V131.391Z" fill="#3A3A3A"/>
<path d="M95.9055 126.344H100.953V131.391H95.9055V126.344Z" fill="#3A3A3A"/>
<path d="M90.8567 131.391H95.9043V136.438H90.8567V131.391Z" fill="#3A3A3A"/>
<path d="M95.9055 131.391H100.953V136.438H95.9055V131.391Z" fill="#3A3A3A"/>
<path d="M90.8567 136.438H95.9043V141.485H90.8567V136.438Z" fill="#3A3A3A"/>
<path d="M95.9055 121.297H100.953V126.344H95.9055V121.297Z" fill="#3A3A3A"/>
<path d="M90.8567 116.25H95.9043V121.298H90.8567V116.25Z" fill="#3A3A3A"/>
<path d="M65.6184 85.9609H70.666V91.0086H65.6184V85.9609Z" fill="#3A3A3A"/>
<path d="M65.6184 80.9141H70.666V85.9617H65.6184V80.9141Z" fill="#3A3A3A"/>
<path d="M65.6184 75.8672H70.666V80.9148H65.6184V75.8672Z" fill="#3A3A3A"/>
<path d="M65.6184 70.8203H70.666V75.8679H65.6184V70.8203Z" fill="#7A7A7A"/>
<path d="M65.6184 65.7734H70.666V70.8211H65.6184V65.7734Z" fill="#7A7A7A"/>
<path d="M65.6184 60.7266H70.666V65.7742H65.6184V60.7266Z" fill="#7A7A7A"/>
<path d="M65.6184 55.6758H70.666V60.7234H65.6184V55.6758Z" fill="#7A7A7A"/>
<path d="M65.6184 50.6289H70.666V55.6765H65.6184V50.6289Z" fill="#7A7A7A"/>
<path d="M65.6184 45.582H70.666V50.6297H65.6184V45.582Z" fill="#7A7A7A"/>
<path d="M65.6184 40.5312H70.666V45.5789H65.6184V40.5312Z" fill="#7A7A7A"/>
<path d="M65.6184 35.4844H70.666V40.532H65.6184V35.4844Z" fill="#7A7A7A"/>
<path d="M70.6672 91.0078H75.7148V96.0554H70.6672V91.0078Z" fill="#999999"/>
<path d="M70.6672 106.152H75.7148V111.2H70.6672V106.152Z" fill="#999999"/>
<path d="M70.6672 85.9609H75.7148V91.0086H70.6672V85.9609Z" fill="#7A7A7A"/>
<path d="M70.6672 80.9141H75.7148V85.9617H70.6672V80.9141Z" fill="#7A7A7A"/>
<path d="M70.6672 75.8672H75.7148V80.9148H70.6672V75.8672Z" fill="#7A7A7A"/>
<path d="M70.6672 70.8203H75.7148V75.8679H70.6672V70.8203Z" fill="#7A7A7A"/>
<path d="M70.6672 65.7734H75.7148V70.8211H70.6672V65.7734Z" fill="#7A7A7A"/>
<path d="M70.6672 60.7266H75.7148V65.7742H70.6672V60.7266Z" fill="#7A7A7A"/>
<path d="M70.6672 55.6758H75.7148V60.7234H70.6672V55.6758Z" fill="#999999"/>
<path d="M70.6672 50.6289H75.7148V55.6765H70.6672V50.6289Z" fill="#7A7A7A"/>
<path d="M70.6672 45.582H75.7148V50.6297H70.6672V45.582Z" fill="#7A7A7A"/>
<path d="M70.6672 40.5312H75.7148V45.5789H70.6672V40.5312Z" fill="#7A7A7A"/>
<path d="M70.6672 35.4844H75.7148V40.532H70.6672V35.4844Z" fill="#7A7A7A"/>
<path d="M70.6672 30.4375H75.7148V35.4851H70.6672V30.4375Z" fill="#7A7A7A"/>
<path d="M85.8098 111.199H90.8574V116.247H85.8098V111.199Z" fill="#3A3A3A"/>
<path d="M75.7141 101.105H80.7617V106.153H75.7141V101.105Z" fill="#AFAFAF"/>
<path d="M75.7141 106.152H80.7617V111.2H75.7141V106.152Z" fill="#AFAFAF"/>
<path d="M75.7141 111.199H80.7617V116.247H75.7141V111.199Z" fill="#AFAFAF"/>
<path d="M75.7141 116.25H80.7617V121.298H75.7141V116.25Z" fill="#AFAFAF"/>
<path d="M80.7629 116.25H85.8105V121.298H80.7629V116.25Z" fill="#AFAFAF"/>
<path d="M80.7629 121.297H85.8105V126.344H80.7629V121.297Z" fill="#AFAFAF"/>
<path d="M85.8098 121.297H90.8574V126.344H85.8098V121.297Z" fill="#AFAFAF"/>
<path d="M85.8098 126.344H90.8574V131.391H85.8098V126.344Z" fill="#AFAFAF"/>
<path d="M75.7141 96.0586H80.7617V101.106H75.7141V96.0586Z" fill="#7A7A7A"/>
<path d="M70.6672 96.0586H75.7148V106.154H70.6672V96.0586Z" fill="#7A7A7A"/>
<path d="M75.7141 91.0078H80.7617V96.0554H75.7141V91.0078Z" fill="#7A7A7A"/>
<path d="M75.7141 85.9609H80.7617V91.0086H75.7141V85.9609Z" fill="#7A7A7A"/>
<path d="M75.7141 80.9141H80.7617V85.9617H75.7141V80.9141Z" fill="#7A7A7A"/>
<path d="M75.7141 75.8672H80.7617V80.9148H75.7141V75.8672Z" fill="#7A7A7A"/>
<path d="M75.7141 70.8203H80.7617V75.8679H75.7141V70.8203Z" fill="#999999"/>
<path d="M75.7141 65.7734H80.7617V70.8211H75.7141V65.7734Z" fill="#999999"/>
<path d="M75.7141 60.7266H80.7617V65.7742H75.7141V60.7266Z" fill="#999999"/>
<path d="M75.7141 55.6758H80.7617V60.7234H75.7141V55.6758Z" fill="#999999"/>
<path d="M75.7141 50.6289H80.7617V55.6765H75.7141V50.6289Z" fill="#999999"/>
<path d="M75.7141 45.582H80.7617V50.6297H75.7141V45.582Z" fill="#999999"/>
<path d="M75.7141 40.5312H80.7617V45.5789H75.7141V40.5312Z" fill="#7A7A7A"/>
<path d="M75.7141 35.4844H80.7617V40.532H75.7141V35.4844Z" fill="#7A7A7A"/>
<path d="M75.7141 30.4375H80.7617V35.4851H75.7141V30.4375Z" fill="#7A7A7A"/>
<path d="M75.7141 25.3906H80.7617V30.4382H75.7141V25.3906Z" fill="#7A7A7A"/>
<path d="M90.8567 111.199H95.9043V116.247H90.8567V111.199Z" fill="#3A3A3A"/>
<path d="M80.7629 101.105H85.8105V106.153H80.7629V101.105Z" fill="#AFAFAF"/>
<path d="M80.7629 96.0586H85.8105V101.106H80.7629V96.0586Z" fill="#999999"/>
<path d="M85.8098 116.25H90.8574V121.298H85.8098V116.25Z" fill="#999999"/>
<path d="M90.8567 121.297H95.9043V126.344H90.8567V121.297Z" fill="#999999"/>
<path d="M90.8567 126.344H95.9043V131.391H90.8567V126.344Z" fill="#999999"/>
<path d="M85.8098 131.391H90.8574V136.438H85.8098V131.391Z" fill="#7A7A7A"/>
<path d="M80.7629 126.344H85.8105V131.391H80.7629V126.344Z" fill="#999999"/>
<path d="M75.7141 121.297H80.7617V126.344H75.7141V121.297Z" fill="#999999"/>
<path d="M80.7629 106.152H85.8105V116.248H80.7629V106.152Z" fill="#999999"/>
<path d="M80.7629 91.0078H85.8105V96.0554H80.7629V91.0078Z" fill="#999999"/>
<path d="M80.7629 85.9609H85.8105V91.0086H80.7629V85.9609Z" fill="#999999"/>
<path d="M80.7629 80.9141H85.8105V85.9617H80.7629V80.9141Z" fill="#7A7A7A"/>
<path d="M80.7629 75.8672H85.8105V80.9148H80.7629V75.8672Z" fill="#999999"/>
<path d="M80.7629 70.8203H85.8105V75.8679H80.7629V70.8203Z" fill="#999999"/>
<path d="M80.7629 65.7734H85.8105V70.8211H80.7629V65.7734Z" fill="#999999"/>
<path d="M80.7629 60.7266H85.8105V65.7742H80.7629V60.7266Z" fill="#999999"/>
<path d="M80.7629 55.6758H85.8105V60.7234H80.7629V55.6758Z" fill="#7A7A7A"/>
<path d="M80.7629 50.6289H85.8105V55.6765H80.7629V50.6289Z" fill="#999999"/>
<path d="M80.7629 45.582H85.8105V50.6297H80.7629V45.582Z" fill="#999999"/>
<path d="M80.7629 40.5312H85.8105V45.5789H80.7629V40.5312Z" fill="#7A7A7A"/>
<path d="M80.7629 35.4844H85.8105V40.532H80.7629V35.4844Z" fill="#7A7A7A"/>
<path d="M80.7629 30.4375H85.8105V35.4851H80.7629V30.4375Z" fill="#7A7A7A"/>
<path d="M80.7629 25.3906H85.8105V30.4382H80.7629V25.3906Z" fill="#7A7A7A"/>
<path d="M85.8098 106.152H90.8574V111.2H85.8098V106.152Z" fill="#3A3A3A"/>
<path d="M85.8098 101.105H90.8574V106.153H85.8098V101.105Z" fill="#3A3A3A"/>
<path d="M85.8098 96.0586H90.8574V101.106H85.8098V96.0586Z" fill="#AFAFAF"/>
<path d="M85.8098 91.0078H90.8574V96.0554H85.8098V91.0078Z" fill="#7A7A7A"/>
<path d="M85.8098 85.9609H90.8574V91.0086H85.8098V85.9609Z" fill="#999999"/>
<path d="M85.8098 80.9141H90.8574V85.9617H85.8098V80.9141Z" fill="#7A7A7A"/>
<path d="M85.8098 75.8672H90.8574V80.9148H85.8098V75.8672Z" fill="#7A7A7A"/>
<path d="M85.8098 70.8203H90.8574V75.8679H85.8098V70.8203Z" fill="#999999"/>
<path d="M85.8098 65.7734H90.8574V70.8211H85.8098V65.7734Z" fill="#7A7A7A"/>
<path d="M85.8098 60.7266H90.8574V65.7742H85.8098V60.7266Z" fill="#999999"/>
<path d="M85.8098 55.6758H90.8574V60.7234H85.8098V55.6758Z" fill="#999999"/>
<path d="M85.8098 50.6289H90.8574V55.6765H85.8098V50.6289Z" fill="#999999"/>
<path d="M85.8098 45.582H90.8574V50.6297H85.8098V45.582Z" fill="#999999"/>
<path d="M85.8098 40.5312H90.8574V45.5789H85.8098V40.5312Z" fill="#999999"/>
<path d="M85.8098 35.4844H90.8574V40.532H85.8098V35.4844Z" fill="#7A7A7A"/>
<path d="M85.8098 30.4375H90.8574V35.4851H85.8098V30.4375Z" fill="#7A7A7A"/>
<path d="M85.8098 25.3906H90.8574V30.4382H85.8098V25.3906Z" fill="#7A7A7A"/>
<path d="M90.8567 106.152H95.9043V111.2H90.8567V106.152Z" fill="#3A3A3A"/>
<path d="M90.8567 101.105H95.9043V106.153H90.8567V101.105Z" fill="#CECECE"/>
<path d="M90.8567 96.0586H95.9043V101.106H90.8567V96.0586Z" fill="#3A3A3A"/>
<path d="M90.8567 91.0078H95.9043V96.0554H90.8567V91.0078Z" fill="#AFAFAF"/>
<path d="M90.8567 85.9609H95.9043V91.0086H90.8567V85.9609Z" fill="#999999"/>
<path d="M90.8567 80.9141H95.9043V85.9617H90.8567V80.9141Z" fill="#999999"/>
<path d="M90.8567 75.8672H95.9043V80.9148H90.8567V75.8672Z" fill="#999999"/>
<path d="M90.8567 70.8203H95.9043V75.8679H90.8567V70.8203Z" fill="#999999"/>
<path d="M90.8567 65.7734H95.9043V70.8211H90.8567V65.7734Z" fill="#999999"/>
<path d="M90.8567 60.7266H95.9043V65.7742H90.8567V60.7266Z" fill="#999999"/>
<path d="M90.8567 55.6758H95.9043V60.7234H90.8567V55.6758Z" fill="#999999"/>
<path d="M90.8567 50.6289H95.9043V55.6765H90.8567V50.6289Z" fill="#999999"/>
<path d="M90.8567 45.582H95.9043V50.6297H90.8567V45.582Z" fill="#999999"/>
<path d="M90.8567 40.5312H95.9043V45.5789H90.8567V40.5312Z" fill="#7A7A7A"/>
<path d="M90.8567 35.4844H95.9043V40.532H90.8567V35.4844Z" fill="#999999"/>
<path d="M90.8567 30.4375H95.9043V35.4851H90.8567V30.4375Z" fill="#7A7A7A"/>
<path d="M90.8567 25.3906H95.9043V30.4382H90.8567V25.3906Z" fill="#7A7A7A"/>
<path d="M95.9055 106.152H100.953V111.2H95.9055V106.152Z" fill="#3A3A3A"/>
<path d="M95.9055 101.105H100.953V106.153H95.9055V101.105Z" fill="#CECECE"/>
<path d="M95.9055 96.0586H100.953V101.106H95.9055V96.0586Z" fill="#CECECE"/>
<path d="M95.9055 91.0078H100.953V96.0554H95.9055V91.0078Z" fill="#3A3A3A"/>
<path d="M95.9055 85.9609H100.953V91.0086H95.9055V85.9609Z" fill="#7A7A7A"/>
<path d="M95.9055 80.9141H100.953V85.9617H95.9055V80.9141Z" fill="#999999"/>
<path d="M95.9055 75.8672H100.953V80.9148H95.9055V75.8672Z" fill="#999999"/>
<path d="M95.9055 70.8203H100.953V75.8679H95.9055V70.8203Z" fill="#999999"/>
<path d="M95.9055 65.7734H100.953V70.8211H95.9055V65.7734Z" fill="#999999"/>
<path d="M95.9055 60.7266H100.953V65.7742H95.9055V60.7266Z" fill="#999999"/>
<path d="M95.9055 55.6758H100.953V60.7234H95.9055V55.6758Z" fill="#999999"/>
<path d="M95.9055 50.6289H100.953V55.6765H95.9055V50.6289Z" fill="#999999"/>
<path d="M95.9055 45.582H100.953V50.6297H95.9055V45.582Z" fill="#999999"/>
<path d="M95.9055 40.5312H100.953V45.5789H95.9055V40.5312Z" fill="#999999"/>
<path d="M95.9055 35.4844H100.953V40.532H95.9055V35.4844Z" fill="#7A7A7A"/>
<path d="M95.9055 30.4375H100.953V35.4851H95.9055V30.4375Z" fill="#7A7A7A"/>
<path d="M95.9055 25.3906H100.953V30.4382H95.9055V25.3906Z" fill="#7A7A7A"/>
<path d="M100.952 106.152H106V111.2H100.952V106.152Z" fill="#3A3A3A"/>
<path d="M100.952 101.105H106V106.153H100.952V101.105Z" fill="#CECECE"/>
<path d="M100.952 96.0586H106V101.106H100.952V96.0586Z" fill="#CECECE"/>
<path d="M100.952 91.0078H106V96.0554H100.952V91.0078Z" fill="#7A7A7A"/>
<path d="M100.952 85.9609H106V91.0086H100.952V85.9609Z" fill="#7A7A7A"/>
<path d="M100.952 80.9141H106V85.9617H100.952V80.9141Z" fill="#999999"/>
<path d="M100.952 75.8672H106V80.9148H100.952V75.8672Z" fill="#999999"/>
<path d="M100.952 70.8203H106V75.8679H100.952V70.8203Z" fill="#999999"/>
<path d="M100.952 65.7734H106V70.8211H100.952V65.7734Z" fill="#999999"/>
<path d="M100.952 60.7266H106V65.7742H100.952V60.7266Z" fill="#999999"/>
<path d="M100.952 55.6758H106V60.7234H100.952V55.6758Z" fill="#999999"/>
<path d="M100.952 50.6289H106V55.6765H100.952V50.6289Z" fill="#7A7A7A"/>
<path d="M100.952 45.582H106V50.6297H100.952V45.582Z" fill="#999999"/>
<path d="M100.952 40.5312H106V45.5789H100.952V40.5312Z" fill="#999999"/>
<path d="M100.952 35.4844H106V40.532H100.952V35.4844Z" fill="#999999"/>
<path d="M100.952 30.4375H106V35.4851H100.952V30.4375Z" fill="#999999"/>
<path d="M100.952 25.3906H106V30.4382H100.952V25.3906Z" fill="#7A7A7A"/>
<path d="M100.952 20.3438H106V25.3914H100.952V20.3438Z" fill="#7A7A7A"/>
<path d="M105.999 106.152H111.047V111.2H105.999V106.152Z" fill="#3A3A3A"/>
<path d="M105.999 101.105H111.047V106.153H105.999V101.105Z" fill="#CECECE"/>
<path d="M105.999 96.0586H111.047V101.106H105.999V96.0586Z" fill="#E2E2E2"/>
<path d="M105.999 91.0078H111.047V96.0554H105.999V91.0078Z" fill="#7A7A7A"/>
<path d="M105.999 85.9609H111.047V91.0086H105.999V85.9609Z" fill="#999999"/>
<path d="M105.999 80.9141H111.047V85.9617H105.999V80.9141Z" fill="#999999"/>
<path d="M105.999 75.8672H111.047V80.9148H105.999V75.8672Z" fill="#999999"/>
<path d="M105.999 70.8203H111.047V75.8679H105.999V70.8203Z" fill="#999999"/>
<path d="M105.999 65.7734H111.047V70.8211H105.999V65.7734Z" fill="#999999"/>
<path d="M105.999 60.7266H111.047V65.7742H105.999V60.7266Z" fill="#999999"/>
<path d="M105.999 55.6758H111.047V60.7234H105.999V55.6758Z" fill="#999999"/>
<path d="M105.999 50.6289H111.047V55.6765H105.999V50.6289Z" fill="#999999"/>
<path d="M105.999 45.582H111.047V50.6297H105.999V45.582Z" fill="#999999"/>
<path d="M105.999 40.5312H111.047V45.5789H105.999V40.5312Z" fill="#999999"/>
<path d="M105.999 35.4844H111.047V40.532H105.999V35.4844Z" fill="#999999"/>
<path d="M105.999 30.4375H111.047V35.4851H105.999V30.4375Z" fill="#999999"/>
<path d="M105.999 25.3906H111.047V30.4382H105.999V25.3906Z" fill="#999999"/>
<path d="M105.999 20.3438H111.047V25.3914H105.999V20.3438Z" fill="#7A7A7A"/>
<path d="M111.048 106.152H116.096V111.2H111.048V106.152Z" fill="#3A3A3A"/>
<path d="M111.048 101.105H116.096V106.153H111.048V101.105Z" fill="#CECECE"/>
<path d="M111.048 96.0586H116.096V101.106H111.048V96.0586Z" fill="#CECECE"/>
<path d="M111.048 91.0078H116.096V96.0554H111.048V91.0078Z" fill="#CECECE"/>
<path d="M111.048 85.9609H116.096V91.0086H111.048V85.9609Z" fill="#7A7A7A"/>
<path d="M111.048 80.9141H116.096V85.9617H111.048V80.9141Z" fill="#999999"/>
<path d="M111.048 75.8672H116.096V80.9148H111.048V75.8672Z" fill="#999999"/>
<path d="M111.048 70.8203H116.096V75.8679H111.048V70.8203Z" fill="#999999"/>
<path d="M111.048 65.7734H116.096V70.8211H111.048V65.7734Z" fill="#999999"/>
<path d="M111.048 60.7266H116.096V65.7742H111.048V60.7266Z" fill="#999999"/>
<path d="M111.048 55.6758H116.096V60.7234H111.048V55.6758Z" fill="#999999"/>
<path d="M111.048 50.6289H116.096V55.6765H111.048V50.6289Z" fill="#999999"/>
<path d="M111.048 45.582H116.096V50.6297H111.048V45.582Z" fill="#999999"/>
<path d="M111.048 40.5312H116.096V45.5789H111.048V40.5312Z" fill="#7A7A7A"/>
<path d="M111.048 35.4844H116.096V40.532H111.048V35.4844Z" fill="#999999"/>
<path d="M111.048 30.4375H116.096V35.4851H111.048V30.4375Z" fill="#999999"/>
<path d="M111.048 25.3906H116.096V30.4382H111.048V25.3906Z" fill="#999999"/>
<path d="M111.048 20.3438H116.096V25.3914H111.048V20.3438Z" fill="#7A7A7A"/>
<path d="M116.095 106.152H121.143V111.2H116.095V106.152Z" fill="#3A3A3A"/>
<path d="M116.095 101.105H121.143V106.153H116.095V101.105Z" fill="#E2E2E2"/>
<path d="M116.095 96.0586H121.143V101.106H116.095V96.0586Z" fill="#CECECE"/>
<path d="M116.095 91.0078H121.143V96.0554H116.095V91.0078Z" fill="#CECECE"/>
<path d="M116.095 85.9609H121.143V91.0086H116.095V85.9609Z" fill="#999999"/>
<path d="M116.095 80.9141H121.143V85.9617H116.095V80.9141Z" fill="#999999"/>
<path d="M116.095 75.8672H121.143V80.9148H116.095V75.8672Z" fill="#999999"/>
<path d="M116.095 70.8203H121.143V75.8679H116.095V70.8203Z" fill="#999999"/>
<path d="M116.095 65.7734H121.143V70.8211H116.095V65.7734Z" fill="#999999"/>
<path d="M116.095 60.7266H121.143V65.7742H116.095V60.7266Z" fill="#999999"/>
<path d="M116.095 55.6758H121.143V60.7234H116.095V55.6758Z" fill="#999999"/>
<path d="M116.095 50.6289H121.143V55.6765H116.095V50.6289Z" fill="#999999"/>
<path d="M116.095 45.582H121.143V50.6297H116.095V45.582Z" fill="#999999"/>
<path d="M116.095 40.5312H121.143V45.5789H116.095V40.5312Z" fill="#999999"/>
<path d="M116.095 35.4844H121.143V40.532H116.095V35.4844Z" fill="#7A7A7A"/>
<path d="M116.095 30.4375H121.143V35.4851H116.095V30.4375Z" fill="#7A7A7A"/>
<path d="M116.095 25.3906H121.143V30.4382H116.095V25.3906Z" fill="#999999"/>
<path d="M116.095 20.3438H121.143V25.3914H116.095V20.3438Z" fill="#7A7A7A"/>
<path d="M121.144 106.152H126.191V111.2H121.144V106.152Z" fill="#3A3A3A"/>
<path d="M121.144 101.105H126.191V106.153H121.144V101.105Z" fill="#E2E2E2"/>
<path d="M121.144 96.0586H126.191V101.106H121.144V96.0586Z" fill="#CECECE"/>
<path d="M121.144 91.0078H126.191V96.0554H121.144V91.0078Z" fill="#E2E2E2"/>
<path d="M121.144 85.9609H126.191V91.0086H121.144V85.9609Z" fill="#999999"/>
<path d="M121.144 80.9141H126.191V85.9617H121.144V80.9141Z" fill="#999999"/>
<path d="M121.144 75.8672H126.191V80.9148H121.144V75.8672Z" fill="#999999"/>
<path d="M121.144 70.8203H126.191V75.8679H121.144V70.8203Z" fill="#999999"/>
<path d="M121.144 65.7734H126.191V70.8211H121.144V65.7734Z" fill="#999999"/>
<path d="M121.144 60.7266H126.191V65.7742H121.144V60.7266Z" fill="#999999"/>
<path d="M121.144 55.6758H126.191V60.7234H121.144V55.6758Z" fill="#999999"/>
<path d="M121.144 50.6289H126.191V55.6765H121.144V50.6289Z" fill="#999999"/>
<path d="M121.144 45.582H126.191V50.6297H121.144V45.582Z" fill="#999999"/>
<path d="M121.144 40.5312H126.191V45.5789H121.144V40.5312Z" fill="#999999"/>
<path d="M121.144 35.4844H126.191V40.532H121.144V35.4844Z" fill="#999999"/>
<path d="M121.144 30.4375H126.191V35.4851H121.144V30.4375Z" fill="#999999"/>
<path d="M121.144 25.3906H126.191V30.4382H121.144V25.3906Z" fill="#7A7A7A"/>
<path d="M121.144 20.3438H126.191V25.3914H121.144V20.3438Z" fill="#7A7A7A"/>
<path d="M126.191 106.152H131.238V111.2H126.191V106.152Z" fill="#3A3A3A"/>
<path d="M126.191 101.105H131.238V106.153H126.191V101.105Z" fill="#CECECE"/>
<path d="M126.191 96.0586H131.238V101.106H126.191V96.0586Z" fill="#E2E2E2"/>
<path d="M126.191 91.0078H131.238V96.0554H126.191V91.0078Z" fill="#E2E2E2"/>
<path d="M126.191 85.9609H131.238V91.0086H126.191V85.9609Z" fill="#999999"/>
<path d="M126.191 80.9141H131.238V85.9617H126.191V80.9141Z" fill="#999999"/>
<path d="M126.191 75.8672H131.238V80.9148H126.191V75.8672Z" fill="#999999"/>
<path d="M126.191 70.8203H131.238V75.8679H126.191V70.8203Z" fill="#999999"/>
<path d="M126.191 65.7734H131.238V70.8211H126.191V65.7734Z" fill="#999999"/>
<path d="M126.191 60.7266H131.238V65.7742H126.191V60.7266Z" fill="#999999"/>
<path d="M126.191 55.6758H131.238V60.7234H126.191V55.6758Z" fill="#999999"/>
<path d="M126.191 50.6289H131.238V55.6765H126.191V50.6289Z" fill="#999999"/>
<path d="M126.191 45.582H131.238V50.6297H126.191V45.582Z" fill="#999999"/>
<path d="M126.191 40.5312H131.238V45.5789H126.191V40.5312Z" fill="#999999"/>
<path d="M126.191 35.4844H131.238V40.532H126.191V35.4844Z" fill="#999999"/>
<path d="M126.191 30.4375H131.238V35.4851H126.191V30.4375Z" fill="#999999"/>
<path d="M126.191 25.3906H131.238V30.4382H126.191V25.3906Z" fill="#7A7A7A"/>
<path d="M126.191 20.3438H131.238V25.3914H126.191V20.3438Z" fill="#7A7A7A"/>
<path d="M131.238 106.152H136.285V111.2H131.238V106.152Z" fill="#3A3A3A"/>
<path d="M131.238 101.105H136.285V106.153H131.238V101.105Z" fill="#E2E2E2"/>
<path d="M131.238 96.0586H136.285V101.106H131.238V96.0586Z" fill="#E2E2E2"/>
<path d="M131.238 91.0078H136.285V96.0554H131.238V91.0078Z" fill="#E2E2E2"/>
<path d="M131.238 85.9609H136.285V91.0086H131.238V85.9609Z" fill="#999999"/>
<path d="M131.238 80.9141H136.285V85.9617H131.238V80.9141Z" fill="#999999"/>
<path d="M131.238 75.8672H136.285V80.9148H131.238V75.8672Z" fill="#999999"/>
<path d="M131.238 70.8203H136.285V75.8679H131.238V70.8203Z" fill="#999999"/>
<path d="M131.238 65.7734H136.285V70.8211H131.238V65.7734Z" fill="#999999"/>
<path d="M131.238 60.7266H136.285V65.7742H131.238V60.7266Z" fill="#999999"/>
<path d="M131.238 55.6758H136.285V60.7234H131.238V55.6758Z" fill="#999999"/>
<path d="M131.238 50.6289H136.285V55.6765H131.238V50.6289Z" fill="#999999"/>
<path d="M131.238 45.582H136.285V50.6297H131.238V45.582Z" fill="#999999"/>
<path d="M131.238 40.5312H136.285V45.5789H131.238V40.5312Z" fill="#7A7A7A"/>
<path d="M131.238 35.4844H136.285V40.532H131.238V35.4844Z" fill="#999999"/>
<path d="M131.238 30.4375H136.285V35.4851H131.238V30.4375Z" fill="#999999"/>
<path d="M131.238 25.3906H136.285V30.4382H131.238V25.3906Z" fill="#AFAFAF"/>
<path d="M131.238 20.3438H136.285V25.3914H131.238V20.3438Z" fill="#999999"/>
<path d="M131.238 15.2969H136.285V20.3445H131.238V15.2969Z" fill="#7A7A7A"/>
<path d="M136.284 106.152H141.332V111.2H136.284V106.152Z" fill="#3A3A3A"/>
<path d="M136.284 101.105H141.332V106.153H136.284V101.105Z" fill="#E2E2E2"/>
<path d="M136.284 96.0586H141.332V101.106H136.284V96.0586Z" fill="#E2E2E2"/>
<path d="M136.284 91.0078H141.332V96.0554H136.284V91.0078Z" fill="#E2E2E2"/>
<path d="M136.284 85.9609H141.332V91.0086H136.284V85.9609Z" fill="#999999"/>
<path d="M136.284 80.9141H141.332V85.9617H136.284V80.9141Z" fill="#999999"/>
<path d="M136.284 75.8672H141.332V80.9148H136.284V75.8672Z" fill="#999999"/>
<path d="M136.284 70.8203H141.332V75.8679H136.284V70.8203Z" fill="#999999"/>
<path d="M136.284 65.7734H141.332V70.8211H136.284V65.7734Z" fill="#999999"/>
<path d="M136.284 60.7266H141.332V65.7742H136.284V60.7266Z" fill="#999999"/>
<path d="M136.284 55.6758H141.332V60.7234H136.284V55.6758Z" fill="#999999"/>
<path d="M136.284 50.6289H141.332V55.6765H136.284V50.6289Z" fill="#999999"/>
<path d="M136.284 45.582H141.332V50.6297H136.284V45.582Z" fill="#999999"/>
<path d="M136.284 40.5312H141.332V45.5789H136.284V40.5312Z" fill="#999999"/>
<path d="M136.284 35.4844H141.332V40.532H136.284V35.4844Z" fill="#7A7A7A"/>
<path d="M136.284 30.4375H141.332V35.4851H136.284V30.4375Z" fill="#7A7A7A"/>
<path d="M136.284 25.3906H141.332V30.4382H136.284V25.3906Z" fill="#999999"/>
<path d="M136.284 20.3438H141.332V25.3914H136.284V20.3438Z" fill="#AFAFAF"/>
<path d="M136.284 15.2969H141.332V20.3445H136.284V15.2969Z" fill="#AFAFAF"/>
<path d="M141.333 106.152H146.381V111.2H141.333V106.152Z" fill="#3A3A3A"/>
<path d="M141.333 101.105H146.381V106.153H141.333V101.105Z" fill="#E2E2E2"/>
<path d="M141.333 96.0586H146.381V101.106H141.333V96.0586Z" fill="#E2E2E2"/>
<path d="M141.333 91.0078H146.381V96.0554H141.333V91.0078Z" fill="#E2E2E2"/>
<path d="M141.333 85.9609H146.381V91.0086H141.333V85.9609Z" fill="#999999"/>
<path d="M141.333 80.9141H146.381V85.9617H141.333V80.9141Z" fill="#999999"/>
<path d="M141.333 75.8672H146.381V80.9148H141.333V75.8672Z" fill="#999999"/>
<path d="M141.333 70.8203H146.381V75.8679H141.333V70.8203Z" fill="#999999"/>
<path d="M141.333 65.7734H146.381V70.8211H141.333V65.7734Z" fill="#999999"/>
<path d="M141.333 60.7266H146.381V65.7742H141.333V60.7266Z" fill="#999999"/>
<path d="M141.333 55.6758H146.381V60.7234H141.333V55.6758Z" fill="#999999"/>
<path d="M141.333 50.6289H146.381V55.6765H141.333V50.6289Z" fill="#999999"/>
<path d="M141.333 45.582H146.381V50.6297H141.333V45.582Z" fill="#999999"/>
<path d="M141.333 40.5312H146.381V45.5789H141.333V40.5312Z" fill="#999999"/>
<path d="M141.333 35.4844H146.381V40.532H141.333V35.4844Z" fill="#999999"/>
<path d="M141.333 30.4375H146.381V35.4851H141.333V30.4375Z" fill="#7A7A7A"/>
<path d="M141.333 25.3906H146.381V30.4382H141.333V25.3906Z" fill="#7A7A7A"/>
<path d="M141.333 20.3438H146.381V25.3914H141.333V20.3438Z" fill="#7A7A7A"/>
<path d="M141.333 15.2969H146.381V20.3445H141.333V15.2969Z" fill="#7A7A7A"/>
<path d="M146.382 106.152H151.43V111.2H146.382V106.152Z" fill="#3A3A3A"/>
<path d="M146.382 101.105H151.43V106.153H146.382V101.105Z" fill="#E2E2E2"/>
<path d="M146.382 96.0586H151.43V101.106H146.382V96.0586Z" fill="#E2E2E2"/>
<path d="M146.382 91.0078H151.43V96.0554H146.382V91.0078Z" fill="#9B9B9B"/>
<path d="M146.382 85.9609H151.43V91.0086H146.382V85.9609Z" fill="#999999"/>
<path d="M146.382 80.9141H151.43V85.9617H146.382V80.9141Z" fill="#999999"/>
<path d="M146.382 75.8672H151.43V80.9148H146.382V75.8672Z" fill="#999999"/>
<path d="M146.382 70.8203H151.43V75.8679H146.382V70.8203Z" fill="#999999"/>
<path d="M146.382 65.7734H151.43V70.8211H146.382V65.7734Z" fill="#999999"/>
<path d="M146.382 60.7266H151.43V65.7742H146.382V60.7266Z" fill="#999999"/>
<path d="M146.382 55.6758H151.43V60.7234H146.382V55.6758Z" fill="#999999"/>
<path d="M146.382 50.6289H151.43V55.6765H146.382V50.6289Z" fill="#999999"/>
<path d="M146.382 45.582H151.43V50.6297H146.382V45.582Z" fill="#999999"/>
<path d="M146.382 40.5312H151.43V45.5789H146.382V40.5312Z" fill="#999999"/>
<path d="M146.382 35.4844H151.43V40.532H146.382V35.4844Z" fill="#999999"/>
<path d="M146.382 30.4375H151.43V35.4851H146.382V30.4375Z" fill="#999999"/>
<path d="M146.382 25.3906H151.43V30.4382H146.382V25.3906Z" fill="#999999"/>
<path d="M146.382 20.3438H151.43V25.3914H146.382V20.3438Z" fill="#7A7A7A"/>
<path d="M146.382 15.2969H151.43V20.3445H146.382V15.2969Z" fill="#AFAFAF"/>
<path d="M151.429 106.152H156.477V111.2H151.429V106.152Z" fill="#3A3A3A"/>
<path d="M151.429 96.0586H156.477V101.106H151.429V96.0586Z" fill="#E2E2E2"/>
<path d="M151.429 91.0078H156.477V96.0554H151.429V91.0078Z" fill="#999999"/>
<path d="M151.429 85.9609H156.477V91.0086H151.429V85.9609Z" fill="#999999"/>
<path d="M151.429 80.9141H156.477V85.9617H151.429V80.9141Z" fill="#999999"/>
<path d="M151.429 75.8672H156.477V80.9148H151.429V75.8672Z" fill="#999999"/>
<path d="M151.429 70.8203H156.477V75.8679H151.429V70.8203Z" fill="#999999"/>
<path d="M151.429 65.7734H156.477V70.8211H151.429V65.7734Z" fill="#999999"/>
<path d="M151.429 60.7266H156.477V65.7742H151.429V60.7266Z" fill="#999999"/>
<path d="M151.429 55.6758H156.477V60.7234H151.429V55.6758Z" fill="#999999"/>
<path d="M151.429 50.6289H156.477V55.6765H151.429V50.6289Z" fill="#999999"/>
<path d="M151.429 45.582H156.477V50.6297H151.429V45.582Z" fill="#999999"/>
<path d="M151.429 40.5312H156.477V45.5789H151.429V40.5312Z" fill="#999999"/>
<path d="M151.429 35.4844H156.477V40.532H151.429V35.4844Z" fill="#999999"/>
<path d="M151.429 30.4375H156.477V35.4851H151.429V30.4375Z" fill="#999999"/>
<path d="M151.429 25.3906H156.477V30.4382H151.429V25.3906Z" fill="#AFAFAF"/>
<path d="M151.429 20.3438H156.477V25.3914H151.429V20.3438Z" fill="#AFAFAF"/>
<path d="M151.429 15.2969H156.477V20.3445H151.429V15.2969Z" fill="#7A7A7A"/>
<path d="M156.476 101.105H161.523V106.153H156.476V101.105Z" fill="#3A3A3A"/>
<path d="M156.476 96.0586H161.523V101.106H156.476V96.0586Z" fill="#515150"/>
<path d="M166.572 96.0586H171.619V101.106H166.572V96.0586Z" fill="#9B9B9B"/>
<path d="M156.476 91.0078H161.523V96.0554H156.476V91.0078Z" fill="#999999"/>
<path d="M156.476 85.9609H161.523V91.0086H156.476V85.9609Z" fill="#999999"/>
<path d="M156.476 80.9141H161.523V85.9617H156.476V80.9141Z" fill="#999999"/>
<path d="M156.476 75.8672H161.523V80.9148H156.476V75.8672Z" fill="#999999"/>
<path d="M156.476 70.8203H161.523V75.8679H156.476V70.8203Z" fill="#999999"/>
<path d="M156.476 65.7734H161.523V70.8211H156.476V65.7734Z" fill="#999999"/>
<path d="M156.476 60.7266H161.523V65.7742H156.476V60.7266Z" fill="#999999"/>
<path d="M156.476 55.6758H161.523V60.7234H156.476V55.6758Z" fill="#999999"/>
<path d="M156.476 50.6289H161.523V55.6765H156.476V50.6289Z" fill="#999999"/>
<path d="M156.476 45.582H161.523V50.6297H156.476V45.582Z" fill="#999999"/>
<path d="M156.476 40.5312H161.523V45.5789H156.476V40.5312Z" fill="#999999"/>
<path d="M156.476 35.4844H161.523V40.532H156.476V35.4844Z" fill="#999999"/>
<path d="M156.476 30.4375H161.523V35.4851H156.476V30.4375Z" fill="#999999"/>
<path d="M156.476 25.3906H161.523V30.4382H156.476V25.3906Z" fill="#999999"/>
<path d="M156.476 20.3438H161.523V25.3914H156.476V20.3438Z" fill="#7A7A7A"/>
<path d="M156.476 15.2969H161.523V20.3445H156.476V15.2969Z" fill="#AFAFAF"/>
<path d="M161.523 101.105H166.57V106.153H161.523V101.105Z" fill="#3A3A3A"/>
<path d="M181.714 101.105H186.762V106.153H181.714V101.105Z" fill="#3A3A3A"/>
<path d="M181.714 96.0586H186.762V101.106H181.714V96.0586Z" fill="#999999"/>
<path d="M161.523 80.9141H166.57V85.9617H161.523V80.9141Z" fill="#999999"/>
<path d="M161.523 75.8672H166.57V80.9148H161.523V75.8672Z" fill="#999999"/>
<path d="M161.523 70.8203H166.57V75.8679H161.523V70.8203Z" fill="#999999"/>
<path d="M161.523 65.7734H166.57V70.8211H161.523V65.7734Z" fill="#999999"/>
<path d="M161.523 60.7266H166.57V65.7742H161.523V60.7266Z" fill="#999999"/>
<path d="M161.523 55.6758H166.57V60.7234H161.523V55.6758Z" fill="#999999"/>
<path d="M161.523 50.6289H166.57V55.6765H161.523V50.6289Z" fill="#999999"/>
<path d="M161.523 45.582H166.57V50.6297H161.523V45.582Z" fill="#999999"/>
<path d="M161.523 40.5312H166.57V45.5789H161.523V40.5312Z" fill="#999999"/>
<path d="M161.523 35.4844H166.57V40.532H161.523V35.4844Z" fill="#999999"/>
<path d="M161.523 30.4375H166.57V35.4851H161.523V30.4375Z" fill="#999999"/>
<path d="M161.523 25.3906H166.57V30.4382H161.523V25.3906Z" fill="#AFAFAF"/>
<path d="M161.523 20.3438H166.57V25.3914H161.523V20.3438Z" fill="#7A7A7A"/>
<path d="M161.523 15.2969H166.57V20.3445H161.523V15.2969Z" fill="#7A7A7A"/>
<path d="M181.716 106.152H176.668V111.2H181.716V106.152Z" fill="#3A3A3A"/>
<path d="M186.762 106.152H181.715V111.2H186.762V106.152Z" fill="#3A3A3A"/>
<path d="M166.572 80.9141H171.619V85.9617H166.572V80.9141Z" fill="#999999"/>
<path d="M166.572 75.8672H171.619V80.9148H166.572V75.8672Z" fill="#999999"/>
<path d="M166.572 70.8203H171.619V75.8679H166.572V70.8203Z" fill="#999999"/>
<path d="M166.572 65.7734H171.619V70.8211H166.572V65.7734Z" fill="#999999"/>
<path d="M166.572 60.7266H171.619V65.7742H166.572V60.7266Z" fill="#999999"/>
<path d="M166.572 55.6758H171.619V60.7234H166.572V55.6758Z" fill="#999999"/>
<path d="M166.572 50.6289H171.619V55.6765H166.572V50.6289Z" fill="#999999"/>
<path d="M166.572 45.582H171.619V50.6297H166.572V45.582Z" fill="#999999"/>
<path d="M166.572 40.5312H171.619V45.5789H166.572V40.5312Z" fill="#999999"/>
<path d="M166.572 35.4844H171.619V40.532H166.572V35.4844Z" fill="#999999"/>
<path d="M166.572 30.4375H171.619V35.4851H166.572V30.4375Z" fill="#999999"/>
<path d="M166.572 25.3906H171.619V30.4382H166.572V25.3906Z" fill="#999999"/>
<path d="M166.572 20.3438H171.619V25.3914H166.572V20.3438Z" fill="#999999"/>
<path d="M166.572 15.2969H171.619V20.3445H166.572V15.2969Z" fill="#999999"/>
<path d="M166.572 10.25H171.619V15.2976H166.572V10.25Z" fill="#999999"/>
<path d="M181.716 111.199H176.668V116.247H181.716V111.199Z" fill="#3A3A3A"/>
<path d="M176.667 106.152H171.619V111.2H176.667V106.152Z" fill="#999999"/>
<path d="M181.716 101.105H176.668V106.153H181.716V101.105Z" fill="#999999"/>
<path d="M171.62 80.9141H176.668V85.9617H171.62V80.9141Z" fill="#999999"/>
<path d="M171.62 91.0078H176.668V96.0554H171.62V91.0078Z" fill="#999999"/>
<path d="M171.62 85.9609H176.668V91.0086H171.62V85.9609Z" fill="#999999"/>
<path d="M161.523 85.9609H166.57V91.0086H161.523V85.9609Z" fill="#999999"/>
<path d="M161.523 91.0078H166.57V96.0554H161.523V91.0078Z" fill="#999999"/>
<path d="M161.523 96.0586H166.57V101.106H161.523V96.0586Z" fill="#999999"/>
<path d="M166.572 91.0078H171.619V96.0554H166.572V91.0078Z" fill="#999999"/>
<path d="M176.667 91.0078H181.715V96.0554H176.667V91.0078Z" fill="#999999"/>
<path d="M171.62 75.8672H176.668V80.9148H171.62V75.8672Z" fill="#999999"/>
<path d="M171.62 70.8203H176.668V75.8679H171.62V70.8203Z" fill="#999999"/>
<path d="M171.62 65.7734H176.668V70.8211H171.62V65.7734Z" fill="#999999"/>
<path d="M171.62 60.7266H176.668V65.7742H171.62V60.7266Z" fill="#3A3A3A"/>
<path d="M171.62 55.6758H176.668V60.7234H171.62V55.6758Z" fill="#999999"/>
<path d="M171.62 50.6289H176.668V55.6765H171.62V50.6289Z" fill="#3A3A3A"/>
<path d="M171.62 45.582H176.668V50.6297H171.62V45.582Z" fill="#999999"/>
<path d="M171.62 40.5312H176.668V45.5789H171.62V40.5312Z" fill="#999999"/>
<path d="M171.62 35.4844H176.668V40.532H171.62V35.4844Z" fill="#999999"/>
<path d="M171.62 30.4375H176.668V35.4851H171.62V30.4375Z" fill="#AFAFAF"/>
<path d="M171.62 25.3906H176.668V30.4382H171.62V25.3906Z" fill="#999999"/>
<path d="M171.62 20.3438H176.668V25.3914H171.62V20.3438Z" fill="#AFAFAF"/>
<path d="M171.62 15.2969H176.668V20.3445H171.62V15.2969Z" fill="#999999"/>
<path d="M171.62 10.25H176.668V15.2976H171.62V10.25Z" fill="#999999"/>
<path d="M181.716 116.25H176.668V121.298H181.716V116.25Z" fill="#3A3A3A"/>
<path d="M176.667 111.199H171.619V116.247H176.667V111.199Z" fill="#999999"/>
<path d="M176.667 106.152H171.619V111.2H176.667V106.152Z" fill="#AFAFAF"/>
<path d="M176.667 101.105H171.619V106.153H176.667V101.105Z" fill="#999999"/>
<path d="M181.716 96.0586H176.668V101.106H181.716V96.0586Z" fill="#999999"/>
<path d="M176.667 96.0586H171.619V101.106H176.667V96.0586Z" fill="#999999"/>
<path d="M176.667 80.9141H181.715V85.9617H176.667V80.9141Z" fill="#999999"/>
<path d="M176.667 75.8672H181.715V80.9148H176.667V75.8672Z" fill="#999999"/>
<path d="M176.667 70.8203H181.715V75.8679H176.667V70.8203Z" fill="#999999"/>
<path d="M176.667 65.7734H181.715V70.8211H176.667V65.7734Z" fill="#999999"/>
<path d="M176.667 60.7266H181.715V65.7742H176.667V60.7266Z" fill="#3A3A3A"/>
<path d="M176.667 55.6758H181.715V60.7234H176.667V55.6758Z" fill="#999999"/>
<path d="M176.667 50.6289H181.715V55.6765H176.667V50.6289Z" fill="#3A3A3A"/>
<path d="M176.667 45.582H181.715V50.6297H176.667V45.582Z" fill="#999999"/>
<path d="M176.667 40.5312H181.715V45.5789H176.667V40.5312Z" fill="#999999"/>
<path d="M176.667 35.4844H181.715V40.532H176.667V35.4844Z" fill="#999999"/>
<path d="M176.667 30.4375H181.715V35.4851H176.667V30.4375Z" fill="#999999"/>
<path d="M176.667 25.3906H181.715V30.4382H176.667V25.3906Z" fill="#AFAFAF"/>
<path d="M176.667 20.3438H181.715V25.3914H176.667V20.3438Z" fill="#999999"/>
<path d="M176.667 15.2969H181.715V20.3445H176.667V15.2969Z" fill="#FFBEAB"/>
<path d="M176.667 10.25H181.715V15.2976H176.667V10.25Z" fill="#FFBEAB"/>
<path d="M176.667 5.20312H181.715V10.2507H176.667V5.20312Z" fill="#AFAFAF"/>
<path d="M176.667 116.25H171.619V121.298H176.667V116.25Z" fill="#3A3A3A"/>
<path d="M171.618 111.199H166.57V116.247H171.618V111.199Z" fill="#999999"/>
<path d="M171.618 106.152H166.57V111.2H171.618V106.152Z" fill="#999999"/>
<path d="M171.618 101.105H166.57V106.153H171.618V101.105Z" fill="#999999"/>
<path d="M181.714 80.9141H186.762V85.9617H181.714V80.9141Z" fill="#AFAFAF"/>
<path d="M181.714 75.8672H186.762V80.9148H181.714V75.8672Z" fill="#999999"/>
<path d="M181.714 70.8203H186.762V75.8679H181.714V70.8203Z" fill="#999999"/>
<path d="M181.714 65.7734H186.762V70.8211H181.714V65.7734Z" fill="#999999"/>
<path d="M181.714 60.7266H186.762V65.7742H181.714V60.7266Z" fill="#3A3A3A"/>
<path d="M181.714 55.6758H186.762V60.7234H181.714V55.6758Z" fill="#999999"/>
<path d="M181.714 50.6289H186.762V55.6765H181.714V50.6289Z" fill="#3A3A3A"/>
<path d="M181.714 45.582H186.762V50.6297H181.714V45.582Z" fill="#999999"/>
<path d="M181.714 40.5312H186.762V45.5789H181.714V40.5312Z" fill="#999999"/>
<path d="M181.714 35.4844H186.762V40.532H181.714V35.4844Z" fill="#999999"/>
<path d="M181.714 30.4375H186.762V35.4851H181.714V30.4375Z" fill="#AFAFAF"/>
<path d="M181.714 25.3906H186.762V30.4382H181.714V25.3906Z" fill="#999999"/>
<path d="M181.714 20.3438H186.762V25.3914H181.714V20.3438Z" fill="#AFAFAF"/>
<path d="M176.667 121.297H171.619V126.344H176.667V121.297Z" fill="#3A3A3A"/>
<path d="M166.571 111.199H161.523V116.247H166.571V111.199Z" fill="#999999"/>
<path d="M166.571 106.152H161.523V111.2H166.571V106.152Z" fill="#AFAFAF"/>
<path d="M166.571 101.105H161.523V106.153H166.571V101.105Z" fill="#AFAFAF"/>
<path d="M186.761 80.9141H191.809V85.9617H186.761V80.9141Z" fill="#999999"/>
<path d="M186.761 75.8672H191.809V80.9148H186.761V75.8672Z" fill="#999999"/>
<path d="M186.761 70.8203H191.809V75.8679H186.761V70.8203Z" fill="#999999"/>
<path d="M186.761 65.7734H191.809V70.8211H186.761V65.7734Z" fill="#999999"/>
<path d="M186.761 60.7266H191.809V65.7742H186.761V60.7266Z" fill="#999999"/>
<path d="M186.761 55.6758H191.809V60.7234H186.761V55.6758Z" fill="#999999"/>
<path d="M186.761 50.6289H191.809V55.6765H186.761V50.6289Z" fill="#999999"/>
<path d="M186.761 45.582H191.809V50.6297H186.761V45.582Z" fill="#999999"/>
<path d="M186.761 40.5312H191.809V45.5789H186.761V40.5312Z" fill="#999999"/>
<path d="M186.761 35.4844H191.809V40.532H186.761V35.4844Z" fill="#999999"/>
<path d="M186.761 30.4375H191.809V35.4851H186.761V30.4375Z" fill="#999999"/>
<path d="M186.761 25.3906H191.809V30.4382H186.761V25.3906Z" fill="#AFAFAF"/>
<path d="M171.618 121.297H166.57V126.344H171.618V121.297Z" fill="#3A3A3A"/>
<path d="M171.618 116.25H166.57V121.298H171.618V116.25Z" fill="#999999"/>
<path d="M151.428 121.297H146.381V126.344H151.428V121.297Z" fill="#999999"/>
<path d="M151.428 116.25H146.381V121.298H151.428V116.25Z" fill="#999999"/>
<path d="M161.524 111.199H156.477V116.247H161.524V111.199Z" fill="#AFAFAF"/>
<path d="M161.524 106.152H156.477V111.2H161.524V106.152Z" fill="#3A3A3A"/>
<path d="M161.524 101.105H156.477V106.153H161.524V101.105Z" fill="#3A3A3A"/>
<path d="M191.808 80.9141H196.855V85.9617H191.808V80.9141Z" fill="#AFAFAF"/>
<path d="M186.761 85.9609H191.809V91.0086H186.761V85.9609Z" fill="#AFAFAF"/>
<path d="M181.714 91.0078H186.762V96.0554H181.714V91.0078Z" fill="#AFAFAF"/>
<path d="M181.714 85.9609H186.762V91.0086H181.714V85.9609Z" fill="#AFAFAF"/>
<path d="M176.667 85.9609H181.715V91.0086H176.667V85.9609Z" fill="#AFAFAF"/>
<path d="M166.572 85.9609H171.619V91.0086H166.572V85.9609Z" fill="#AFAFAF"/>
<path d="M191.808 75.8672H196.855V80.9148H191.808V75.8672Z" fill="#999999"/>
<path d="M191.808 70.8203H196.855V75.8679H191.808V70.8203Z" fill="#999999"/>
<path d="M191.808 65.7734H196.855V70.8211H191.808V65.7734Z" fill="#999999"/>
<path d="M191.808 60.7266H196.855V65.7742H191.808V60.7266Z" fill="#999999"/>
<path d="M191.808 55.6758H196.855V60.7234H191.808V55.6758Z" fill="#999999"/>
<path d="M191.808 50.6289H196.855V55.6765H191.808V50.6289Z" fill="#999999"/>
<path d="M191.808 45.582H196.855V50.6297H191.808V45.582Z" fill="#3A3A3A"/>
<path d="M191.808 40.5312H196.855V45.5789H191.808V40.5312Z" fill="#3A3A3A"/>
<path d="M191.808 35.4844H196.855V40.532H191.808V35.4844Z" fill="#3A3A3A"/>
<path d="M191.808 30.4375H196.855V35.4851H191.808V30.4375Z" fill="#AFAFAF"/>
<path d="M171.618 126.344H166.57V131.391H171.618V126.344Z" fill="#3A3A3A"/>
<path d="M166.571 116.25H161.523V121.298H166.571V116.25Z" fill="#AFAFAF"/>
<path d="M156.477 111.199H151.43V116.247H156.477V111.199Z" fill="#3A3A3A"/>
<path d="M156.477 106.152H151.43V111.2H156.477V106.152Z" fill="#515150"/>
<path d="M196.859 80.9141H201.906V85.9617H196.859V80.9141Z" fill="#AFAFAF"/>
<path d="M196.859 75.8672H201.906V80.9148H196.859V75.8672Z" fill="#AFAFAF"/>
<path d="M196.859 70.8203H201.906V75.8679H196.859V70.8203Z" fill="#999999"/>
<path d="M196.859 65.7734H201.906V70.8211H196.859V65.7734Z" fill="#999999"/>
<path d="M196.859 60.7266H201.906V65.7742H196.859V60.7266Z" fill="#999999"/>
<path d="M196.859 55.6758H201.906V60.7234H196.859V55.6758Z" fill="#3A3A3A"/>
<path d="M196.859 50.6289H201.906V55.6765H196.859V50.6289Z" fill="#999999"/>
<path d="M196.859 45.582H201.906V50.6297H196.859V45.582Z" fill="#999999"/>
<path d="M196.859 40.5312H201.906V45.5789H196.859V40.5312Z" fill="#AFAFAF"/>
<path d="M166.571 126.344H161.523V131.391H166.571V126.344Z" fill="#3A3A3A"/>
<path d="M161.524 131.391H156.477V136.438H161.524V131.391Z" fill="#3A3A3A"/>
<path d="M166.571 131.391H161.523V136.438H166.571V131.391Z" fill="#3A3A3A"/>
<path d="M151.428 131.391H146.381V136.438H151.428V131.391Z" fill="#3A3A3A"/>
<path d="M156.477 131.391H151.43V136.438H156.477V131.391Z" fill="#3A3A3A"/>
<path d="M146.38 126.344H141.332V131.391H146.38V126.344Z" fill="#3A3A3A"/>
<path d="M166.571 121.297H161.523V126.344H166.571V121.297Z" fill="#999999"/>
<path d="M161.524 126.344H146.381V131.391H161.524V126.344Z" fill="#999999"/>
<path d="M161.525 116.25H151.43V121.298H161.525V116.25Z" fill="#AFAFAF"/>
<path d="M161.525 121.297H151.43V126.344H161.525V121.297Z" fill="#AFAFAF"/>
<path d="M151.428 106.152H146.381V111.2H151.428V106.152Z" fill="#515150"/>
<path d="M201.906 70.8203H206.953V75.8679H201.906V70.8203Z" fill="#AFAFAF"/>
<path d="M201.906 65.7734H206.953V70.8211H201.906V65.7734Z" fill="#999999"/>
<path d="M201.906 60.7266H206.953V65.7742H201.906V60.7266Z" fill="#3A3A3A"/>
<path d="M201.906 55.6758H206.953V60.7234H201.906V55.6758Z" fill="#999999"/>
<path d="M201.906 50.6289H206.953V55.6765H201.906V50.6289Z" fill="#999999"/>
<path d="M201.906 45.582H206.953V50.6297H201.906V45.582Z" fill="#AFAFAF"/>
<path d="M146.38 121.297H141.332V126.344H146.38V121.297Z" fill="#3A3A3A"/>
<path d="M151.428 116.25H146.381V121.298H151.428V116.25Z" fill="#3A3A3A"/>
<path d="M206.952 65.7734H212V70.8211H206.952V65.7734Z" fill="#AFAFAF"/>
<path d="M206.952 60.7266H212V65.7742H206.952V60.7266Z" fill="#AFAFAF"/>
<path d="M206.952 55.6758H212V60.7234H206.952V55.6758Z" fill="#3A3A3A"/>
<path d="M206.952 50.6289H212V55.6765H206.952V50.6289Z" fill="#FFA99F"/>
<path d="M60.5715 70.8203H65.6191V75.8679H60.5715V70.8203Z" fill="#3A3A3A"/>
<path d="M60.5715 65.7734H65.6191V70.8211H60.5715V65.7734Z" fill="#3A3A3A"/>
<path d="M60.5715 60.7266H65.6191V65.7742H60.5715V60.7266Z" fill="#3A3A3A"/>
</svg>
