<svg width="219" height="133" viewBox="0 0 219 133" fill="none" xmlns="http://www.w3.org/2000/svg">
<path d="M6.33274 10.4038L11.373 10.668L11.1092 15.7025L6.06889 15.4384L6.33274 10.4038Z" fill="#3A3A3A"/>
<path d="M6.59837 5.37257L11.6387 5.63672L11.3747 10.6729L6.33444 10.4087L6.59837 5.37257Z" fill="#3A3A3A"/>
<path d="M11.1105 15.7084L16.1523 15.9727L15.8885 21.0073L10.8467 20.743L11.1105 15.7084Z" fill="#3A3A3A"/>
<path d="M11.3761 10.6694L16.418 10.9336L16.1541 15.9682L11.1123 15.7039L11.3761 10.6694Z" fill="#999999"/>
<path d="M11.6379 5.63811L16.6797 5.90234L16.4158 10.9385L11.3739 10.6742L11.6379 5.63811Z" fill="#999999"/>
<path d="M11.9015 0.602957L16.9434 0.867188L16.6795 5.90176L11.6377 5.63753L11.9015 0.602957Z" fill="#7A7A7A"/>
<path d="M16.153 15.9741L21.1934 16.2383L20.9295 21.2729L15.8892 21.0087L16.153 15.9741Z" fill="#3A3A3A"/>
<path d="M16.4167 10.9351L21.457 11.1992L21.1932 16.2338L16.1529 15.9696L16.4167 10.9351Z" fill="#7A7A7A"/>
<path d="M16.6804 5.90382L21.7207 6.16797L21.4568 11.2041L16.4164 10.9399L16.6804 5.90382Z" fill="#999999"/>
<path d="M16.9441 0.860848L21.9844 1.125L21.7205 6.15957L16.6802 5.89542L16.9441 0.860848Z" fill="#7A7A7A"/>
<path d="M20.9284 21.2671L25.9688 21.5312L25.7049 26.5658L20.6646 26.3017L20.9284 21.2671Z" fill="#3A3A3A"/>
<path d="M21.1921 16.2358L26.2324 16.5L25.9686 21.5346L20.9283 21.2705L21.1921 16.2358Z" fill="#999999"/>
<path d="M21.4577 11.1968L26.498 11.4609L26.2342 16.4955L21.1939 16.2314L21.4577 11.1968Z" fill="#999999"/>
<path d="M21.7214 6.16554L26.7617 6.42969L26.4978 11.4658L21.4575 11.2017L21.7214 6.16554Z" fill="#7A7A7A"/>
<path d="M25.7038 26.5679L30.7441 26.832L30.4802 31.8682L25.4399 31.604L25.7038 26.5679Z" fill="#3A3A3A"/>
<path d="M25.9695 21.5327L31.0098 21.7969L30.7459 26.8314L25.7056 26.5673L25.9695 21.5327Z" fill="#999999"/>
<path d="M26.2331 16.5015L31.2734 16.7656L31.0096 21.8002L25.9693 21.5361L26.2331 16.5015Z" fill="#7A7A7A"/>
<path d="M26.4949 11.4624L31.5352 11.7266L31.2713 16.7611L26.231 16.497L26.4949 11.4624Z" fill="#7A7A7A"/>
<path d="M30.4797 31.8647L35.5215 32.1289L35.2576 37.1635L30.2158 36.8992L30.4797 31.8647Z" fill="#3A3A3A"/>
<path d="M30.7433 26.8334L35.7852 27.0977L35.5212 32.1338L30.4794 31.8696L30.7433 26.8334Z" fill="#999999"/>
<path d="M31.009 21.7983L36.0508 22.0625L35.7869 27.0971L30.7451 26.8328L31.009 21.7983Z" fill="#7A7A7A"/>
<path d="M31.2707 16.767L36.3125 17.0312L36.0486 22.0659L31.0068 21.8016L31.2707 16.767Z" fill="#7A7A7A"/>
<path d="M35.5261 32.1265L40.5664 32.3906L40.3026 37.4252L35.2623 37.161L35.5261 32.1265Z" fill="#3A3A3A"/>
<path d="M35.7898 27.0952L40.8301 27.3594L40.5661 32.3955L35.5258 32.1314L35.7898 27.0952Z" fill="#7A7A7A"/>
<path d="M36.0534 22.0601L41.0938 22.3242L40.8299 27.3588L35.7896 27.0946L36.0534 22.0601Z" fill="#7A7A7A"/>
<path d="M40.3015 37.4351L45.3418 37.6992L45.0779 42.7338L40.0376 42.4697L40.3015 37.4351Z" fill="#3A3A3A"/>
<path d="M40.5652 32.3921L45.6055 32.6562L45.3416 37.6908L40.3013 37.4267L40.5652 32.3921Z" fill="#7A7A7A"/>
<path d="M40.8308 27.3608L45.8711 27.625L45.6072 32.6611L40.5669 32.397L40.8308 27.3608Z" fill="#999999"/>
<path d="M41.0945 22.3218L46.1348 22.5859L45.8709 27.6205L40.8306 27.3564L41.0945 22.3218Z" fill="#7A7A7A"/>
<path d="M41.3796 113.224L46.4199 113.488L46.1561 118.523L41.1158 118.259L41.3796 113.224Z" fill="#3A3A3A"/>
<path d="M41.6433 108.185L46.6836 108.449L46.4197 113.484L41.3794 113.22L41.6433 108.185Z" fill="#3A3A3A"/>
<path d="M41.907 103.138L46.9473 103.402L46.6833 108.438L41.643 108.174L41.907 103.138Z" fill="#515150"/>
<path d="M45.073 42.728L50.1133 42.9922L49.8494 48.0268L44.8091 47.7626L45.073 42.728Z" fill="#3A3A3A"/>
<path d="M45.3367 37.7007L50.377 37.9648L50.1131 42.9995L45.0728 42.7353L45.3367 37.7007Z" fill="#999999"/>
<path d="M45.6023 32.6577L50.6426 32.9219L50.3787 37.9564L45.3384 37.6923L45.6023 32.6577Z" fill="#999999"/>
<path d="M45.864 27.6265L50.9043 27.8906L50.6404 32.9268L45.6001 32.6626L45.864 27.6265Z" fill="#7A7A7A"/>
<path d="M46.1593 118.513L51.2012 118.777L50.9373 123.812L45.8955 123.548L46.1593 118.513Z" fill="#3A3A3A"/>
<path d="M46.4211 113.49L51.4629 113.754L51.199 118.788L46.1572 118.524L46.4211 113.49Z" fill="#999999"/>
<path d="M46.6867 108.447L51.7285 108.711L51.4647 113.746L46.4228 113.481L46.6867 108.447Z" fill="#999999"/>
<path d="M46.9504 103.404L51.9922 103.668L51.7283 108.704L46.6864 108.44L46.9504 103.404Z" fill="#3A3A3A"/>
<path d="M47.214 98.3764L52.2559 98.6406L51.992 103.675L46.9502 103.411L47.214 98.3764Z" fill="#515150"/>
<path d="M50.1164 42.9936L55.1582 43.2578L54.8944 48.2924L49.8525 48.0282L50.1164 42.9936Z" fill="#3A3A3A"/>
<path d="M50.38 37.9662L55.4219 38.2305L55.158 43.2651L50.1162 43.0008L50.38 37.9662Z" fill="#7A7A7A"/>
<path d="M50.6437 32.9194L55.6855 33.1836L55.4217 38.2182L50.3799 37.9539L50.6437 32.9194Z" fill="#7A7A7A"/>
<path d="M51.2019 118.779L56.2422 119.043L55.9783 124.078L50.938 123.813L51.2019 118.779Z" fill="#3A3A3A"/>
<path d="M51.4656 113.751L56.5059 114.016L56.242 119.05L51.2017 118.786L51.4656 113.751Z" fill="#999999"/>
<path d="M51.7312 108.712L56.7715 108.977L56.5076 114.011L51.4673 113.747L51.7312 108.712Z" fill="#999999"/>
<path d="M51.9929 103.669L57.0332 103.934L56.7693 108.97L51.729 108.706L51.9929 103.669Z" fill="#3A3A3A"/>
<path d="M52.2585 98.6421L57.2988 98.9062L57.035 103.941L51.9947 103.677L52.2585 98.6421Z" fill="#515150"/>
<path d="M54.8972 48.2866L59.9375 48.5508L59.6736 53.5869L54.6333 53.3227L54.8972 48.2866Z" fill="#3A3A3A"/>
<path d="M55.1609 43.2554L60.2012 43.5195L59.9373 48.5541L54.897 48.29L55.1609 43.2554Z" fill="#999999"/>
<path d="M55.4245 38.228L60.4648 38.4922L60.201 43.5268L55.1607 43.2626L55.4245 38.228Z" fill="#999999"/>
<path d="M55.6882 33.1851L60.7285 33.4492L60.4647 38.4838L55.4244 38.2196L55.6882 33.1851Z" fill="#7A7A7A"/>
<path d="M56.2409 119.041L61.2812 119.305L61.0174 124.339L55.9771 124.075L56.2409 119.041Z" fill="#3A3A3A"/>
<path d="M56.5027 114.017L61.543 114.281L61.2791 119.316L56.2388 119.052L56.5027 114.017Z" fill="#AFAFAF"/>
<path d="M56.7683 108.978L61.8086 109.242L61.5447 114.277L56.5044 114.013L56.7683 108.978Z" fill="#999999"/>
<path d="M57.032 103.931L62.0723 104.195L61.8083 109.231L56.768 108.967L57.032 103.931Z" fill="#3A3A3A"/>
<path d="M57.2976 98.9077L62.3379 99.1719L62.074 104.206L57.0337 103.942L57.2976 98.9077Z" fill="#515150"/>
<path d="M59.9343 48.5523L64.9746 48.8164L64.7107 53.8525L59.6704 53.5884L59.9343 48.5523Z" fill="#3A3A3A"/>
<path d="M60.1999 43.5171L65.2402 43.7812L64.9764 48.8159L59.9361 48.5517L60.1999 43.5171Z" fill="#999999"/>
<path d="M60.4617 38.4937L65.502 38.7578L65.2381 43.7924L60.1978 43.5283L60.4617 38.4937Z" fill="#7A7A7A"/>
<path d="M61.5461 114.283L66.5879 114.547L66.324 119.581L61.2822 119.317L61.5461 114.283Z" fill="#3A3A3A"/>
<path d="M61.8117 109.24L66.8535 109.504L66.5897 114.539L61.5478 114.274L61.8117 109.24Z" fill="#AFAFAF"/>
<path d="M62.0754 104.197L67.1172 104.461L66.8533 109.497L61.8114 109.233L62.0754 104.197Z" fill="#999999"/>
<path d="M62.3371 99.1694L67.3789 99.4336L67.1151 104.468L62.0732 104.204L62.3371 99.1694Z" fill="#3A3A3A"/>
<path d="M62.6027 94.1381L67.6445 94.4023L67.3807 99.4369L62.3389 99.1727L62.6027 94.1381Z" fill="#515150"/>
<path d="M63.6574 73.9858L68.6992 74.25L68.4354 79.2846L63.3935 79.0204L63.6574 73.9858Z" fill="#3A3A3A"/>
<path d="M63.9191 68.9623L68.9609 69.2266L68.697 74.2627L63.6552 73.9984L63.9191 68.9623Z" fill="#3A3A3A"/>
<path d="M64.1847 63.935L69.2266 64.1992L68.9627 69.2338L63.9209 68.9696L64.1847 63.935Z" fill="#3A3A3A"/>
<path d="M64.4484 58.8959L69.4902 59.1602L69.2264 64.1947L64.1846 63.9305L64.4484 58.8959Z" fill="#3A3A3A"/>
<path d="M64.714 53.8569L69.7559 54.1211L69.492 59.1557L64.4502 58.8915L64.714 53.8569Z" fill="#3A3A3A"/>
<path d="M64.9777 48.8178L70.0195 49.082L69.7556 54.1181L64.7138 53.8539L64.9777 48.8178Z" fill="#3A3A3A"/>
<path d="M65.2394 43.7826L70.2812 44.0469L70.0174 49.0815L64.9756 48.8173L65.2394 43.7826Z" fill="#7A7A7A"/>
<path d="M65.505 38.7592L70.5469 39.0234L70.283 44.058L65.2412 43.7938L65.505 38.7592Z" fill="#7A7A7A"/>
<path d="M66.5866 114.544L71.627 114.809L71.3631 119.843L66.3228 119.579L66.5866 114.544Z" fill="#3A3A3A"/>
<path d="M66.8523 109.505L71.8926 109.77L71.6287 114.804L66.5884 114.54L66.8523 109.505Z" fill="#AFAFAF"/>
<path d="M67.1159 104.462L72.1562 104.727L71.8923 109.763L66.852 109.499L67.1159 104.462Z" fill="#999999"/>
<path d="M67.3796 99.4351L72.4199 99.6992L72.1561 104.734L67.1157 104.47L67.3796 99.4351Z" fill="#3A3A3A"/>
<path d="M67.6433 94.4038L72.6836 94.668L72.4197 99.7025L67.3794 99.4384L67.6433 94.4038Z" fill="#3A3A3A"/>
<path d="M67.9069 89.3608L72.9473 89.625L72.6833 94.6611L67.643 94.397L67.9069 89.3608Z" fill="#3A3A3A"/>
<path d="M68.1706 84.3296L73.2109 84.5938L72.9471 89.6284L67.9068 89.3642L68.1706 84.3296Z" fill="#3A3A3A"/>
<path d="M68.4362 79.2983L73.4766 79.5625L73.2127 84.5971L68.1724 84.3329L68.4362 79.2983Z" fill="#3A3A3A"/>
<path d="M68.6999 74.2476L73.7402 74.5117L73.4764 79.5463L68.4361 79.2822L68.6999 74.2476Z" fill="#7A7A7A"/>
<path d="M68.9636 69.228L74.0039 69.4922L73.74 74.5283L68.6997 74.2641L68.9636 69.228Z" fill="#7A7A7A"/>
<path d="M69.2273 64.2007L74.2676 64.4648L74.0037 69.4995L68.9634 69.2353L69.2273 64.2007Z" fill="#7A7A7A"/>
<path d="M69.489 59.1616L74.5293 59.4258L74.2654 64.4604L69.2251 64.1962L69.489 59.1616Z" fill="#7A7A7A"/>
<path d="M69.7546 54.1226L74.7949 54.3867L74.5311 59.4213L69.4907 59.1572L69.7546 54.1226Z" fill="#7A7A7A"/>
<path d="M70.0183 49.0796L75.0586 49.3438L74.7947 54.3798L69.7543 54.1157L70.0183 49.0796Z" fill="#7A7A7A"/>
<path d="M70.2819 44.0444L75.3223 44.3086L75.0584 49.3432L70.0181 49.0791L70.2819 44.0444Z" fill="#7A7A7A"/>
<path d="M70.5456 39.021L75.5859 39.2852L75.3221 44.3198L70.2818 44.0556L70.5456 39.021Z" fill="#7A7A7A"/>
<path d="M71.8953 109.771L76.9355 110.035L76.6717 115.07L71.6314 114.806L71.8953 109.771Z" fill="#3A3A3A"/>
<path d="M72.1589 104.728L77.1992 104.992L76.9353 110.028L71.895 109.764L72.1589 104.728Z" fill="#999999"/>
<path d="M72.4226 99.7007L77.4629 99.9648L77.199 104.999L72.1587 104.735L72.4226 99.7007Z" fill="#7A7A7A"/>
<path d="M72.6863 94.6694L77.7266 94.9336L77.4627 99.9682L72.4224 99.704L72.6863 94.6694Z" fill="#999999"/>
<path d="M72.9499 89.6226L77.9902 89.8867L77.7263 94.9229L72.686 94.6587L72.9499 89.6226Z" fill="#7A7A7A"/>
<path d="M73.2136 84.5913L78.2539 84.8555L77.9901 89.8901L72.9498 89.6259L73.2136 84.5913Z" fill="#7A7A7A"/>
<path d="M73.4773 79.564L78.5176 79.8281L78.2537 84.8627L73.2134 84.5985L73.4773 79.564Z" fill="#7A7A7A"/>
<path d="M73.741 74.5132L78.7812 74.7773L78.5174 79.812L73.4771 79.5478L73.741 74.5132Z" fill="#7A7A7A"/>
<path d="M74.0066 69.4898L79.0469 69.7539L78.7829 74.79L73.7427 74.5259L74.0066 69.4898Z" fill="#7A7A7A"/>
<path d="M74.2683 64.4663L79.3086 64.7305L79.0447 69.7651L74.0044 69.5009L74.2683 64.4663Z" fill="#7A7A7A"/>
<path d="M74.5339 59.4233L79.5742 59.6875L79.3104 64.7221L74.2701 64.4579L74.5339 59.4233Z" fill="#999999"/>
<path d="M74.7976 54.3843L79.8379 54.6484L79.574 59.683L74.5337 59.4189L74.7976 54.3843Z" fill="#7A7A7A"/>
<path d="M75.0613 49.3452L80.1016 49.6094L79.8376 54.6455L74.7973 54.3813L75.0613 49.3452Z" fill="#7A7A7A"/>
<path d="M75.3249 44.3101L80.3652 44.5742L80.1014 49.6088L75.0611 49.3447L75.3249 44.3101Z" fill="#7A7A7A"/>
<path d="M75.5886 39.2866L80.6289 39.5508L80.3651 44.5854L75.3248 44.3212L75.5886 39.2866Z" fill="#7A7A7A"/>
<path d="M75.8523 34.2437L80.8926 34.5078L80.6287 39.5424L75.5884 39.2782L75.8523 34.2437Z" fill="#7A7A7A"/>
<path d="M76.9304 110.033L81.9707 110.297L81.7069 115.331L76.6665 115.067L76.9304 110.033Z" fill="#3A3A3A"/>
<path d="M77.1941 104.99L82.2344 105.254L81.9704 110.29L76.9301 110.026L77.1941 104.99Z" fill="#AFAFAF"/>
<path d="M77.4577 99.9624L82.498 100.227L82.2342 105.261L77.1939 104.997L77.4577 99.9624Z" fill="#7A7A7A"/>
<path d="M77.7214 94.9312L82.7617 95.1953L82.4979 100.23L77.4576 99.9657L77.7214 94.9312Z" fill="#7A7A7A"/>
<path d="M77.9851 89.8843L83.0254 90.1484L82.7615 95.1846L77.7211 94.9204L77.9851 89.8843Z" fill="#7A7A7A"/>
<path d="M78.2507 84.8569L83.291 85.1211L83.0272 90.1557L77.9869 89.8916L78.2507 84.8569Z" fill="#7A7A7A"/>
<path d="M78.5144 79.8257L83.5547 80.0898L83.2908 85.1244L78.2505 84.8603L78.5144 79.8257Z" fill="#7A7A7A"/>
<path d="M78.778 74.7788L83.8184 75.043L83.5545 80.0776L78.5142 79.8134L78.778 74.7788Z" fill="#999999"/>
<path d="M79.0417 69.7554L84.082 70.0195L83.8181 75.0556L78.7778 74.7915L79.0417 69.7554Z" fill="#999999"/>
<path d="M79.3054 64.7241L84.3457 64.9883L84.0819 70.0229L79.0415 69.7587L79.3054 64.7241Z" fill="#999999"/>
<path d="M79.5691 59.689L84.6094 59.9531L84.3455 64.9877L79.3052 64.7235L79.5691 59.689Z" fill="#999999"/>
<path d="M79.8327 54.6499L84.873 54.9141L84.6092 59.9487L79.5689 59.6845L79.8327 54.6499Z" fill="#999999"/>
<path d="M80.0964 49.6108L85.1367 49.875L84.8728 54.9111L79.8325 54.6469L80.0964 49.6108Z" fill="#999999"/>
<path d="M80.3601 44.5757L85.4004 44.8398L85.1365 49.8745L80.0962 49.6103L80.3601 44.5757Z" fill="#7A7A7A"/>
<path d="M80.6238 39.5483L85.6641 39.8125L85.4002 44.8471L80.3599 44.583L80.6238 39.5483Z" fill="#7A7A7A"/>
<path d="M80.8874 34.5093L85.9277 34.7734L85.6639 39.808L80.6236 39.5439L80.8874 34.5093Z" fill="#7A7A7A"/>
<path d="M81.153 29.478L86.1934 29.7422L85.9294 34.7783L80.8891 34.5142L81.153 29.478Z" fill="#7A7A7A"/>
<path d="M81.9679 110.298L87.0098 110.562L86.7459 115.597L81.7041 115.333L81.9679 110.298Z" fill="#3A3A3A"/>
<path d="M82.2336 105.255L87.2754 105.52L87.0115 110.556L81.9696 110.291L82.2336 105.255Z" fill="#AFAFAF"/>
<path d="M82.4953 100.228L87.5371 100.492L87.2733 105.527L82.2314 105.263L82.4953 100.228Z" fill="#999999"/>
<path d="M82.759 95.1967L87.8008 95.4609L87.5369 100.496L82.4951 100.231L82.759 95.1967Z" fill="#999999"/>
<path d="M83.0246 90.1498L88.0664 90.4141L87.8025 95.4502L82.7606 95.186L83.0246 90.1498Z" fill="#999999"/>
<path d="M83.2883 85.1225L88.3301 85.3867L88.0662 90.4213L83.0244 90.1571L83.2883 85.1225Z" fill="#7A7A7A"/>
<path d="M83.55 80.0912L88.5918 80.3555L88.3279 85.39L83.2861 85.1258L83.55 80.0912Z" fill="#999999"/>
<path d="M83.8156 75.0405L88.8574 75.3047L88.5936 80.3393L83.5517 80.0751L83.8156 75.0405Z" fill="#999999"/>
<path d="M84.0793 70.0209L89.1211 70.2852L88.8572 75.3213L83.8153 75.057L84.0793 70.0209Z" fill="#999999"/>
<path d="M84.3429 64.9897L89.3848 65.2539L89.1209 70.2885L84.0791 70.0243L84.3429 64.9897Z" fill="#999999"/>
<path d="M84.6066 59.9545L89.6484 60.2188L89.3846 65.2533L84.3428 64.9891L84.6066 59.9545Z" fill="#7A7A7A"/>
<path d="M84.8703 54.9155L89.9121 55.1797L89.6483 60.2143L84.6064 59.9501L84.8703 54.9155Z" fill="#999999"/>
<path d="M85.1359 49.8725L90.1777 50.1367L89.9138 55.1728L84.872 54.9086L85.1359 49.8725Z" fill="#999999"/>
<path d="M85.3976 44.8373L90.4395 45.1016L90.1756 50.1362L85.1338 49.8719L85.3976 44.8373Z" fill="#7A7A7A"/>
<path d="M85.6613 39.8139L90.7031 40.0781L90.4393 45.1127L85.3974 44.8485L85.6613 39.8139Z" fill="#7A7A7A"/>
<path d="M85.9269 34.7709L90.9688 35.0352L90.7049 40.0697L85.6631 39.8055L85.9269 34.7709Z" fill="#7A7A7A"/>
<path d="M86.1906 29.7397L91.2324 30.0039L90.9685 35.04L85.9267 34.7758L86.1906 29.7397Z" fill="#7A7A7A"/>
<path d="M87.0163 110.564L92.0566 110.828L91.7928 115.863L86.7525 115.599L87.0163 110.564Z" fill="#3A3A3A"/>
<path d="M87.28 105.521L92.3203 105.785L92.0564 110.821L87.0161 110.557L87.28 105.521Z" fill="#3A3A3A"/>
<path d="M87.5437 100.494L92.584 100.758L92.3201 105.792L87.2798 105.528L87.5437 100.494Z" fill="#AFAFAF"/>
<path d="M87.8074 95.4624L92.8477 95.7266L92.5838 100.761L87.5435 100.497L87.8074 95.4624Z" fill="#7A7A7A"/>
<path d="M88.071 90.4116L93.1113 90.6758L92.8474 95.7119L87.8071 95.4478L88.071 90.4116Z" fill="#999999"/>
<path d="M88.3367 85.3882L93.377 85.6523L93.1131 90.687L88.0728 90.4228L88.3367 85.3882Z" fill="#7A7A7A"/>
<path d="M88.6003 80.3569L93.6406 80.6211L93.3768 85.6557L88.3365 85.3915L88.6003 80.3569Z" fill="#7A7A7A"/>
<path d="M88.864 75.3062L93.9043 75.5703L93.6404 80.6049L88.6001 80.3408L88.864 75.3062Z" fill="#999999"/>
<path d="M89.1277 70.2827L94.168 70.5469L93.904 75.583L88.8637 75.3188L89.1277 70.2827Z" fill="#7A7A7A"/>
<path d="M89.3913 65.2554L94.4316 65.5195L94.1678 70.5541L89.1275 70.29L89.3913 65.2554Z" fill="#999999"/>
<path d="M89.655 60.2163L94.6953 60.4805L94.4315 65.515L89.3912 65.2509L89.655 60.2163Z" fill="#999999"/>
<path d="M89.9187 55.1773L94.959 55.4414L94.6951 60.476L89.6548 60.2119L89.9187 55.1773Z" fill="#999999"/>
<path d="M90.1824 50.1382L95.2227 50.4023L94.9587 55.4384L89.9184 55.1743L90.1824 50.1382Z" fill="#999999"/>
<path d="M90.446 45.103L95.4863 45.3672L95.2225 50.4018L90.1822 50.1376L90.446 45.103Z" fill="#999999"/>
<path d="M90.7117 40.0757L95.752 40.3398L95.4881 45.3745L90.4478 45.1103L90.7117 40.0757Z" fill="#7A7A7A"/>
<path d="M90.9734 35.0366L96.0137 35.3008L95.7498 40.3354L90.7095 40.0712L90.9734 35.0366Z" fill="#7A7A7A"/>
<path d="M91.239 30.0054L96.2793 30.2695L96.0154 35.3057L90.9751 35.0415L91.239 30.0054Z" fill="#7A7A7A"/>
<path d="M92.0534 110.826L97.0938 111.09L96.8299 116.124L91.7896 115.86L92.0534 110.826Z" fill="#3A3A3A"/>
<path d="M92.3171 105.783L97.3574 106.047L97.0935 111.083L92.0532 110.819L92.3171 105.783Z" fill="#CECECE"/>
<path d="M92.5788 100.755L97.6191 101.02L97.3553 106.054L92.315 105.79L92.5788 100.755Z" fill="#3A3A3A"/>
<path d="M92.8445 95.728L97.8848 95.9922L97.6209 101.027L92.5806 100.763L92.8445 95.728Z" fill="#AFAFAF"/>
<path d="M93.1081 90.6773L98.1484 90.9414L97.8845 95.9775L92.8442 95.7134L93.1081 90.6773Z" fill="#999999"/>
<path d="M93.3718 85.646L98.4121 85.9102L98.1483 90.9448L93.108 90.6806L93.3718 85.646Z" fill="#999999"/>
<path d="M93.6355 80.6187L98.6758 80.8828L98.4119 85.9174L93.3716 85.6532L93.6355 80.6187Z" fill="#999999"/>
<path d="M93.8992 75.5718L98.9395 75.8359L98.6756 80.8705L93.6353 80.6064L93.8992 75.5718Z" fill="#999999"/>
<path d="M94.1628 70.5483L99.2031 70.8125L98.9392 75.8486L93.8989 75.5844L94.1628 70.5483Z" fill="#999999"/>
<path d="M94.4265 65.5171L99.4668 65.7812L99.2029 70.8159L94.1626 70.5517L94.4265 65.5171Z" fill="#999999"/>
<path d="M94.6902 60.478L99.7305 60.7422L99.4666 65.7768L94.4263 65.5126L94.6902 60.478Z" fill="#999999"/>
<path d="M94.9558 55.4429L99.9961 55.707L99.7322 60.7416L94.6919 60.4775L94.9558 55.4429Z" fill="#999999"/>
<path d="M95.2195 50.4038L100.26 50.668L99.9958 55.7041L94.9555 55.4399L95.2195 50.4038Z" fill="#999999"/>
<path d="M95.4812 45.3687L100.521 45.6328L100.258 50.6674L95.2173 50.4033L95.4812 45.3687Z" fill="#7A7A7A"/>
<path d="M95.7468 40.3413L100.787 40.6055L100.523 45.6401L95.483 45.3759L95.7468 40.3413Z" fill="#999999"/>
<path d="M96.0105 35.2983L101.051 35.5625L100.787 40.5971L95.7466 40.3329L96.0105 35.2983Z" fill="#7A7A7A"/>
<path d="M96.2742 30.271L101.314 30.5352L101.051 35.5713L96.0102 35.3071L96.2742 30.271Z" fill="#7A7A7A"/>
<path d="M97.0925 111.087L102.133 111.352L101.869 116.386L96.8287 116.122L97.0925 111.087Z" fill="#3A3A3A"/>
<path d="M97.3562 106.048L102.396 106.312L102.133 111.349L97.0923 111.084L97.3562 106.048Z" fill="#CECECE"/>
<path d="M97.6199 101.021L102.66 101.285L102.396 106.32L97.356 106.056L97.6199 101.021Z" fill="#CECECE"/>
<path d="M97.8835 95.9898L102.924 96.2539L102.66 101.288L97.6197 101.024L97.8835 95.9898Z" fill="#3A3A3A"/>
<path d="M98.1472 90.9429L103.188 91.207L102.924 96.2432L97.8833 95.979L98.1472 90.9429Z" fill="#7A7A7A"/>
<path d="M98.4128 85.9116L103.453 86.1758L103.189 91.2104L98.149 90.9462L98.4128 85.9116Z" fill="#999999"/>
<path d="M98.6765 80.8843L103.717 81.1484L103.453 86.183L98.4126 85.9189L98.6765 80.8843Z" fill="#999999"/>
<path d="M98.9402 75.8374L103.98 76.1016L103.717 81.1362L98.6763 80.872L98.9402 75.8374Z" fill="#999999"/>
<path d="M99.2038 70.814L104.244 71.0781L103.98 76.1142L98.9399 75.8501L99.2038 70.814Z" fill="#999999"/>
<path d="M99.4675 65.7827L104.508 66.0469L104.244 71.0815L99.2037 70.8173L99.4675 65.7827Z" fill="#999999"/>
<path d="M99.7312 60.7437L104.771 61.0078L104.508 66.0424L99.4673 65.7782L99.7312 60.7437Z" fill="#999999"/>
<path d="M99.9949 55.7085L105.035 55.9727L104.771 61.0073L99.731 60.7431L99.9949 55.7085Z" fill="#999999"/>
<path d="M100.259 50.6655L105.299 50.9297L105.035 55.9658L99.9946 55.7016L100.259 50.6655Z" fill="#999999"/>
<path d="M100.522 45.6304L105.562 45.8945L105.299 50.9291L100.258 50.665L100.522 45.6304Z" fill="#999999"/>
<path d="M100.788 40.6069L105.828 40.8711L105.564 45.9057L100.524 45.6416L100.788 40.6069Z" fill="#7A7A7A"/>
<path d="M101.051 35.5601L106.092 35.8242L105.828 40.8588L100.788 40.5946L101.051 35.5601Z" fill="#7A7A7A"/>
<path d="M101.313 30.5327L106.354 30.7969L106.09 35.833L101.049 35.5689L101.313 30.5327Z" fill="#7A7A7A"/>
<path d="M102.134 111.353L107.176 111.617L106.912 116.652L101.87 116.388L102.134 111.353Z" fill="#3A3A3A"/>
<path d="M102.4 106.314L107.441 106.578L107.177 111.614L102.136 111.35L102.4 106.314Z" fill="#CECECE"/>
<path d="M102.661 101.287L107.703 101.551L107.439 106.585L102.397 106.321L102.661 101.287Z" fill="#CECECE"/>
<path d="M102.927 96.2553L107.969 96.5195L107.705 101.554L102.663 101.29L102.927 96.2553Z" fill="#7A7A7A"/>
<path d="M103.191 91.2045L108.232 91.4688L107.968 96.5049L102.927 96.2407L103.191 91.2045Z" fill="#7A7A7A"/>
<path d="M103.454 86.1772L108.496 86.4414L108.232 91.476L103.19 91.2118L103.454 86.1772Z" fill="#999999"/>
<path d="M103.718 81.1498L108.76 81.4141L108.496 86.4486L103.454 86.1844L103.718 81.1498Z" fill="#999999"/>
<path d="M103.982 76.099L109.023 76.3633L108.76 81.3979L103.718 81.1337L103.982 76.099Z" fill="#999999"/>
<path d="M104.245 71.0795L109.287 71.3438L109.023 76.3798L103.981 76.1156L104.245 71.0795Z" fill="#999999"/>
<path d="M104.509 66.0483L109.551 66.3125L109.287 71.3471L104.245 71.0829L104.509 66.0483Z" fill="#999999"/>
<path d="M104.773 61.0053L109.814 61.2695L109.551 66.3041L104.509 66.0399L104.773 61.0053Z" fill="#999999"/>
<path d="M105.036 55.9701L110.078 56.2344L109.814 61.269L104.772 61.0048L105.036 55.9701Z" fill="#7A7A7A"/>
<path d="M105.302 50.9311L110.344 51.1953L110.08 56.2314L105.038 55.9672L105.302 50.9311Z" fill="#999999"/>
<path d="M105.566 45.8959L110.607 46.1602L110.344 51.1948L105.302 50.9305L105.566 45.8959Z" fill="#999999"/>
<path d="M105.829 40.8686L110.871 41.1328L110.607 46.1674L105.565 45.9032L105.829 40.8686Z" fill="#999999"/>
<path d="M106.093 35.8256L111.135 36.0898L110.871 41.1244L105.829 40.8602L106.093 35.8256Z" fill="#999999"/>
<path d="M106.357 30.7983L111.398 31.0625L111.135 36.0986L106.093 35.8344L106.357 30.7983Z" fill="#7A7A7A"/>
<path d="M106.62 25.7592L111.662 26.0234L111.398 31.058L106.356 30.7938L106.62 25.7592Z" fill="#7A7A7A"/>
<path d="M107.176 111.619L112.217 111.883L111.953 116.917L106.913 116.653L107.176 111.619Z" fill="#3A3A3A"/>
<path d="M107.44 106.576L112.48 106.84L112.217 111.876L107.176 111.612L107.44 106.576Z" fill="#CECECE"/>
<path d="M107.704 101.548L112.744 101.812L112.48 106.847L107.44 106.583L107.704 101.548Z" fill="#E2E2E2"/>
<path d="M107.968 96.521L113.008 96.7852L112.744 101.82L107.704 101.556L107.968 96.521Z" fill="#7A7A7A"/>
<path d="M108.233 91.4702L113.273 91.7344L113.01 96.7705L107.969 96.5064L108.233 91.4702Z" fill="#999999"/>
<path d="M108.495 86.439L113.535 86.7031L113.271 91.7377L108.231 91.4736L108.495 86.439Z" fill="#999999"/>
<path d="M108.76 81.4116L113.801 81.6758L113.537 86.7104L108.497 86.4462L108.76 81.4116Z" fill="#999999"/>
<path d="M109.024 76.3648L114.064 76.6289L113.801 81.6635L108.76 81.3994L109.024 76.3648Z" fill="#999999"/>
<path d="M109.286 71.3413L114.326 71.6055L114.062 76.6416L109.022 76.3774L109.286 71.3413Z" fill="#999999"/>
<path d="M109.551 66.3101L114.592 66.5742L114.328 71.6088L109.288 71.3447L109.551 66.3101Z" fill="#999999"/>
<path d="M109.815 61.271L114.855 61.5352L114.592 66.5697L109.551 66.3056L109.815 61.271Z" fill="#999999"/>
<path d="M110.081 56.2358L115.121 56.5L114.857 61.5346L109.817 61.2705L110.081 56.2358Z" fill="#999999"/>
<path d="M110.343 51.1968L115.383 51.4609L115.119 56.497L110.079 56.2329L110.343 51.1968Z" fill="#999999"/>
<path d="M110.606 46.1616L115.646 46.4258L115.383 51.4604L110.342 51.1962L110.606 46.1616Z" fill="#999999"/>
<path d="M110.872 41.1343L115.912 41.3984L115.648 46.433L110.608 46.1689L110.872 41.1343Z" fill="#999999"/>
<path d="M111.135 36.0913L116.176 36.3555L115.912 41.39L110.872 41.1259L111.135 36.0913Z" fill="#999999"/>
<path d="M111.397 31.0601L116.438 31.3242L116.174 36.3604L111.133 36.0962L111.397 31.0601Z" fill="#999999"/>
<path d="M111.663 26.0249L116.703 26.2891L116.439 31.3236L111.399 31.0595L111.663 26.0249Z" fill="#7A7A7A"/>
<path d="M112.216 111.88L117.256 112.145L116.992 117.179L111.952 116.915L112.216 111.88Z" fill="#3A3A3A"/>
<path d="M112.479 106.837L117.52 107.102L117.256 112.138L112.215 111.874L112.479 106.837Z" fill="#CECECE"/>
<path d="M112.741 101.814L117.781 102.078L117.517 107.113L112.477 106.849L112.741 101.814Z" fill="#CECECE"/>
<path d="M113.007 96.7827L118.047 97.0469L117.783 102.081L112.743 101.817L113.007 96.7827Z" fill="#CECECE"/>
<path d="M113.27 91.7358L118.311 92L118.047 97.0361L113.006 96.772L113.27 91.7358Z" fill="#7A7A7A"/>
<path d="M113.534 86.7046L118.574 86.9688L118.31 92.0034L113.27 91.7392L113.534 86.7046Z" fill="#999999"/>
<path d="M113.798 81.6733L118.838 81.9375L118.574 86.9721L113.534 86.7079L113.798 81.6733Z" fill="#999999"/>
<path d="M114.061 76.6304L119.102 76.8945L118.838 81.9291L113.797 81.665L114.061 76.6304Z" fill="#999999"/>
<path d="M114.325 71.6069L119.365 71.8711L119.101 76.9072L114.061 76.643L114.325 71.6069Z" fill="#999999"/>
<path d="M114.589 66.5757L119.629 66.8398L119.365 71.8745L114.325 71.6103L114.589 66.5757Z" fill="#999999"/>
<path d="M114.852 61.5366L119.893 61.8008L119.629 66.8354L114.588 66.5712L114.852 61.5366Z" fill="#999999"/>
<path d="M115.118 56.4976L120.158 56.7617L119.894 61.7963L114.854 61.5322L115.118 56.4976Z" fill="#999999"/>
<path d="M115.382 51.4585L120.422 51.7227L120.158 56.7588L115.118 56.4946L115.382 51.4585Z" fill="#999999"/>
<path d="M115.645 46.4233L120.686 46.6875L120.422 51.7221L115.381 51.458L115.645 46.4233Z" fill="#7A7A7A"/>
<path d="M115.909 41.3999L120.949 41.6641L120.685 46.6987L115.645 46.4345L115.909 41.3999Z" fill="#999999"/>
<path d="M116.173 36.353L121.213 36.6172L120.949 41.6518L115.909 41.3876L116.173 36.353Z" fill="#999999"/>
<path d="M116.436 31.3218L121.477 31.5859L121.213 36.6221L116.172 36.3579L116.436 31.3218Z" fill="#999999"/>
<path d="M116.702 26.2866L121.742 26.5508L121.478 31.5854L116.438 31.3212L116.702 26.2866Z" fill="#7A7A7A"/>
<path d="M117.26 112.146L122.301 112.41L122.037 117.445L116.997 117.181L117.26 112.146Z" fill="#3A3A3A"/>
<path d="M117.524 107.103L122.564 107.367L122.301 112.403L117.26 112.139L117.524 107.103Z" fill="#E2E2E2"/>
<path d="M117.79 102.08L122.83 102.344L122.566 107.378L117.526 107.114L117.79 102.08Z" fill="#CECECE"/>
<path d="M118.053 97.0483L123.094 97.3125L122.83 102.347L117.79 102.083L118.053 97.0483Z" fill="#CECECE"/>
<path d="M118.317 92.0015L123.357 92.2656L123.093 97.3018L118.053 97.0376L118.317 92.0015Z" fill="#999999"/>
<path d="M118.581 86.9702L123.621 87.2344L123.357 92.269L118.317 92.0048L118.581 86.9702Z" fill="#999999"/>
<path d="M118.844 81.939L123.885 82.2031L123.621 87.2377L118.581 86.9735L118.844 81.939Z" fill="#999999"/>
<path d="M119.11 76.8921L124.15 77.1562L123.887 82.1909L118.846 81.9267L119.11 76.8921Z" fill="#999999"/>
<path d="M119.372 71.8726L124.412 72.1367L124.148 77.1728L119.108 76.9087L119.372 71.8726Z" fill="#999999"/>
<path d="M119.635 66.8413L124.676 67.1055L124.412 72.1401L119.372 71.8759L119.635 66.8413Z" fill="#999999"/>
<path d="M119.901 61.7983L124.941 62.0625L124.678 67.0971L119.637 66.8329L119.901 61.7983Z" fill="#999999"/>
<path d="M120.165 56.7593L125.205 57.0234L124.941 62.058L119.901 61.7939L120.165 56.7593Z" fill="#999999"/>
<path d="M120.426 51.7241L125.467 51.9883L125.203 57.0244L120.163 56.7602L120.426 51.7241Z" fill="#999999"/>
<path d="M120.692 46.689L125.732 46.9531L125.469 51.9877L120.428 51.7236L120.692 46.689Z" fill="#999999"/>
<path d="M120.956 41.6616L125.996 41.9258L125.732 46.9604L120.692 46.6962L120.956 41.6616Z" fill="#7A7A7A"/>
<path d="M121.219 36.6187L126.26 36.8828L125.996 41.9174L120.956 41.6532L121.219 36.6187Z" fill="#7A7A7A"/>
<path d="M121.483 31.5874L126.523 31.8516L126.26 36.8877L121.219 36.6235L121.483 31.5874Z" fill="#999999"/>
<path d="M121.747 26.5523L126.787 26.8164L126.523 31.851L121.483 31.5868L121.747 26.5523Z" fill="#7A7A7A"/>
<path d="M122.294 112.412L127.336 112.676L127.072 117.71L122.03 117.446L122.294 112.412Z" fill="#3A3A3A"/>
<path d="M122.56 107.365L127.602 107.629L127.338 112.665L122.296 112.401L122.56 107.365Z" fill="#E2E2E2"/>
<path d="M122.821 102.345L127.863 102.609L127.599 107.644L122.558 107.38L122.821 102.345Z" fill="#CECECE"/>
<path d="M123.085 97.3139L128.127 97.5781L127.863 102.613L122.821 102.348L123.085 97.3139Z" fill="#E2E2E2"/>
<path d="M123.351 92.2631L128.393 92.5273L128.129 97.5635L123.087 97.2992L123.351 92.2631Z" fill="#999999"/>
<path d="M123.614 87.2319L128.656 87.4961L128.392 92.5307L123.351 92.2665L123.614 87.2319Z" fill="#999999"/>
<path d="M123.876 82.2006L128.918 82.4648L128.654 87.4994L123.612 87.2352L123.876 82.2006Z" fill="#999999"/>
<path d="M124.142 77.1576L129.184 77.4219L128.92 82.4565L123.878 82.1923L124.142 77.1576Z" fill="#999999"/>
<path d="M124.405 72.1342L129.447 72.3984L129.183 77.4345L124.142 77.1703L124.405 72.1342Z" fill="#999999"/>
<path d="M124.671 67.103L129.713 67.3672L129.449 72.4018L124.407 72.1376L124.671 67.103Z" fill="#999999"/>
<path d="M124.933 62.0639L129.975 62.3281L129.711 67.3627L124.669 67.0985L124.933 62.0639Z" fill="#999999"/>
<path d="M125.196 57.0248L130.238 57.2891L129.974 62.3237L124.933 62.0594L125.196 57.0248Z" fill="#999999"/>
<path d="M125.462 51.9897L130.504 52.2539L130.24 57.29L125.198 57.0258L125.462 51.9897Z" fill="#999999"/>
<path d="M125.726 46.9545L130.768 47.2188L130.504 52.2534L125.462 51.9891L125.726 46.9545Z" fill="#999999"/>
<path d="M125.987 41.9272L131.029 42.1914L130.765 47.226L125.724 46.9618L125.987 41.9272Z" fill="#999999"/>
<path d="M126.253 36.8842L131.295 37.1484L131.031 42.183L125.989 41.9188L126.253 36.8842Z" fill="#999999"/>
<path d="M126.517 31.853L131.559 32.1172L131.295 37.1533L126.253 36.8891L126.517 31.853Z" fill="#7A7A7A"/>
<path d="M126.78 26.8139L131.822 27.0781L131.558 32.1127L126.517 31.8485L126.78 26.8139Z" fill="#7A7A7A"/>
<path d="M127.339 112.673L132.379 112.938L132.115 117.972L127.075 117.708L127.339 112.673Z" fill="#3A3A3A"/>
<path d="M127.602 107.63L132.643 107.895L132.379 112.931L127.338 112.666L127.602 107.63Z" fill="#CECECE"/>
<path d="M127.866 102.607L132.906 102.871L132.642 107.906L127.602 107.642L127.866 102.607Z" fill="#E2E2E2"/>
<path d="M128.132 97.5757L133.172 97.8398L132.908 102.874L127.868 102.61L128.132 97.5757Z" fill="#E2E2E2"/>
<path d="M128.395 92.5288L133.436 92.793L133.172 97.8291L128.131 97.5649L128.395 92.5288Z" fill="#999999"/>
<path d="M128.657 87.4976L133.697 87.7617L133.433 92.7963L128.393 92.5322L128.657 87.4976Z" fill="#999999"/>
<path d="M128.923 82.4663L133.963 82.7305L133.699 87.765L128.659 87.5009L128.923 82.4663Z" fill="#999999"/>
<path d="M129.186 77.4233L134.227 77.6875L133.963 82.7221L128.922 82.458L129.186 77.4233Z" fill="#999999"/>
<path d="M129.448 72.3999L134.488 72.6641L134.224 77.7002L129.184 77.436L129.448 72.3999Z" fill="#999999"/>
<path d="M129.714 67.3687L134.754 67.6328L134.49 72.6674L129.45 72.4033L129.714 67.3687Z" fill="#999999"/>
<path d="M129.977 62.3296L135.018 62.5938L134.754 67.6283L129.713 67.3642L129.977 62.3296Z" fill="#999999"/>
<path d="M130.241 57.2905L135.281 57.5547L135.017 62.5893L129.977 62.3251L130.241 57.2905Z" fill="#999999"/>
<path d="M130.505 52.2515L135.545 52.5156L135.281 57.5517L130.241 57.2876L130.505 52.2515Z" fill="#999999"/>
<path d="M130.768 47.2163L135.809 47.4805L135.545 52.5151L130.504 52.2509L130.768 47.2163Z" fill="#999999"/>
<path d="M131.034 42.1929L136.074 42.457L135.81 47.4916L130.77 47.2275L131.034 42.1929Z" fill="#999999"/>
<path d="M131.298 37.146L136.338 37.4102L136.074 42.4447L131.034 42.1806L131.298 37.146Z" fill="#999999"/>
<path d="M131.559 32.1148L136.6 32.3789L136.336 37.415L131.295 37.1509L131.559 32.1148Z" fill="#7A7A7A"/>
<path d="M131.825 27.0757L136.865 27.3398L136.601 32.3744L131.561 32.1103L131.825 27.0757Z" fill="#7A7A7A"/>
<path d="M132.374 112.939L137.414 113.203L137.15 118.238L132.11 117.974L132.374 112.939Z" fill="#3A3A3A"/>
<path d="M132.639 107.896L137.68 108.16L137.416 113.196L132.375 112.932L132.639 107.896Z" fill="#E2E2E2"/>
<path d="M132.903 102.869L137.943 103.133L137.68 108.167L132.639 107.903L132.903 102.869Z" fill="#E2E2E2"/>
<path d="M133.165 97.8413L138.205 98.1055L137.941 103.14L132.901 102.876L133.165 97.8413Z" fill="#E2E2E2"/>
<path d="M133.43 92.7944L138.471 93.0586L138.207 98.0947L133.166 97.8306L133.43 92.7944Z" fill="#999999"/>
<path d="M133.694 87.7632L138.734 88.0273L138.471 93.062L133.43 92.7978L133.694 87.7632Z" fill="#999999"/>
<path d="M133.958 82.7319L138.998 82.9961L138.734 88.0307L133.694 87.7665L133.958 82.7319Z" fill="#999999"/>
<path d="M134.223 77.6812L139.264 77.9453L139 82.9799L133.96 82.7158L134.223 77.6812Z" fill="#999999"/>
<path d="M134.485 72.6655L139.525 72.9297L139.261 77.9658L134.221 77.7016L134.485 72.6655Z" fill="#999999"/>
<path d="M134.751 67.6343L139.791 67.8984L139.527 72.933L134.487 72.6689L134.751 67.6343Z" fill="#999999"/>
<path d="M135.012 62.5952L140.053 62.8594L139.789 67.8939L134.749 67.6298L135.012 62.5952Z" fill="#999999"/>
<path d="M135.276 57.5523L140.316 57.8164L140.053 62.851L135.012 62.5869L135.276 57.5523Z" fill="#999999"/>
<path d="M135.542 52.5132L140.582 52.7773L140.318 57.8134L135.278 57.5493L135.542 52.5132Z" fill="#999999"/>
<path d="M135.805 47.4819L140.846 47.7461L140.582 52.7807L135.542 52.5166L135.805 47.4819Z" fill="#7A7A7A"/>
<path d="M136.067 42.4546L141.107 42.7188L140.844 47.7534L135.803 47.4892L136.067 42.4546Z" fill="#999999"/>
<path d="M136.333 37.4116L141.373 37.6758L141.109 42.7104L136.069 42.4462L136.333 37.4116Z" fill="#999999"/>
<path d="M136.596 32.3804L141.637 32.6445L141.373 37.6807L136.332 37.4165L136.596 32.3804Z" fill="#AFAFAF"/>
<path d="M136.862 27.3413L141.902 27.6055L141.638 32.64L136.598 32.3759L136.862 27.3413Z" fill="#999999"/>
<path d="M137.124 22.314L142.164 22.5781L141.9 27.6127L136.86 27.3486L137.124 22.314Z" fill="#7A7A7A"/>
<path d="M137.419 113.205L142.459 113.469L142.195 118.503L137.155 118.239L137.419 113.205Z" fill="#3A3A3A"/>
<path d="M137.684 108.158L142.725 108.422L142.461 113.458L137.42 113.194L137.684 108.158Z" fill="#E2E2E2"/>
<path d="M137.946 103.134L142.986 103.398L142.722 108.433L137.682 108.169L137.946 103.134Z" fill="#E2E2E2"/>
<path d="M138.21 98.1069L143.25 98.3711L142.986 103.406L137.946 103.142L138.21 98.1069Z" fill="#E2E2E2"/>
<path d="M138.475 93.0562L143.516 93.3203L143.252 98.3564L138.211 98.0923L138.475 93.0562Z" fill="#999999"/>
<path d="M138.737 88.0249L143.777 88.2891L143.513 93.3237L138.473 93.0595L138.737 88.0249Z" fill="#999999"/>
<path d="M139.001 82.9937L144.041 83.2578L143.777 88.2924L138.737 88.0282L139.001 82.9937Z" fill="#999999"/>
<path d="M139.266 77.9468L144.307 78.2109L144.043 83.2455L139.002 82.9814L139.266 77.9468Z" fill="#999999"/>
<path d="M139.528 72.9273L144.568 73.1914L144.304 78.2275L139.264 77.9634L139.528 72.9273Z" fill="#999999"/>
<path d="M139.792 67.896L144.832 68.1602L144.568 73.1948L139.528 72.9306L139.792 67.896Z" fill="#999999"/>
<path d="M140.057 62.8569L145.098 63.1211L144.834 68.1557L139.794 67.8915L140.057 62.8569Z" fill="#999999"/>
<path d="M140.321 57.8179L145.361 58.082L145.097 63.1166L140.057 62.8525L140.321 57.8179Z" fill="#999999"/>
<path d="M140.585 52.7788L145.625 53.043L145.361 58.0791L140.321 57.8149L140.585 52.7788Z" fill="#999999"/>
<path d="M140.848 47.7476L145.889 48.0117L145.625 53.0463L140.585 52.7822L140.848 47.7476Z" fill="#999999"/>
<path d="M141.112 42.7202L146.152 42.9844L145.888 48.019L140.848 47.7548L141.112 42.7202Z" fill="#7A7A7A"/>
<path d="M141.378 37.6773L146.418 37.9414L146.154 42.976L141.114 42.7118L141.378 37.6773Z" fill="#7A7A7A"/>
<path d="M141.639 32.646L146.68 32.9102L146.416 37.9463L141.375 37.6821L141.639 32.646Z" fill="#999999"/>
<path d="M141.903 27.6069L146.943 27.8711L146.68 32.9057L141.639 32.6415L141.903 27.6069Z" fill="#AFAFAF"/>
<path d="M142.169 22.5796L147.209 22.8438L146.945 27.8784L141.905 27.6142L142.169 22.5796Z" fill="#AFAFAF"/>
<path d="M142.462 113.466L147.504 113.73L147.24 118.765L142.198 118.501L142.462 113.466Z" fill="#3A3A3A"/>
<path d="M142.726 108.423L147.768 108.688L147.504 113.724L142.462 113.459L142.726 108.423Z" fill="#E2E2E2"/>
<path d="M142.991 103.396L148.033 103.66L147.769 108.695L142.728 108.431L142.991 103.396Z" fill="#E2E2E2"/>
<path d="M143.253 98.3686L148.295 98.6328L148.031 103.667L142.989 103.403L143.253 98.3686Z" fill="#E2E2E2"/>
<path d="M143.517 93.3217L148.559 93.5859L148.295 98.6221L143.253 98.3578L143.517 93.3217Z" fill="#999999"/>
<path d="M143.782 88.2905L148.824 88.5547L148.56 93.5893L143.519 93.3251L143.782 88.2905Z" fill="#999999"/>
<path d="M144.046 83.2592L149.088 83.5234L148.824 88.558L143.782 88.2938L144.046 83.2592Z" fill="#999999"/>
<path d="M144.312 78.2123L149.354 78.4766L149.09 83.5112L144.048 83.2469L144.312 78.2123Z" fill="#999999"/>
<path d="M144.573 73.1928L149.615 73.457L149.351 78.4931L144.309 78.2289L144.573 73.1928Z" fill="#999999"/>
<path d="M144.837 68.1616L149.879 68.4258L149.615 73.4604L144.573 73.1962L144.837 68.1616Z" fill="#999999"/>
<path d="M145.101 63.1225L150.143 63.3867L149.879 68.4213L144.837 68.1571L145.101 63.1225Z" fill="#999999"/>
<path d="M145.364 58.0834L150.406 58.3477L150.142 63.3823L145.101 63.118L145.364 58.0834Z" fill="#999999"/>
<path d="M145.628 53.0444L150.67 53.3086L150.406 58.3447L145.364 58.0805L145.628 53.0444Z" fill="#999999"/>
<path d="M145.894 48.0131L150.936 48.2773L150.672 53.312L145.63 53.0477L145.894 48.0131Z" fill="#999999"/>
<path d="M146.155 42.9858L151.197 43.25L150.933 48.2846L145.892 48.0204L146.155 42.9858Z" fill="#999999"/>
<path d="M146.419 37.9389L151.461 38.2031L151.197 43.2377L146.155 42.9735L146.419 37.9389Z" fill="#7A7A7A"/>
<path d="M146.685 32.9076L151.727 33.1719L151.463 38.208L146.421 37.9438L146.685 32.9076Z" fill="#7A7A7A"/>
<path d="M146.948 27.8686L151.99 28.1328L151.726 33.1674L146.685 32.9032L146.948 27.8686Z" fill="#7A7A7A"/>
<path d="M147.212 22.8412L152.254 23.1055L151.99 28.1401L146.948 27.8758L147.212 22.8412Z" fill="#7A7A7A"/>
<path d="M147.501 113.732L152.541 113.996L152.277 119.031L147.237 118.767L147.501 113.732Z" fill="#3A3A3A"/>
<path d="M147.766 108.689L152.807 108.953L152.543 113.989L147.502 113.725L147.766 108.689Z" fill="#E2E2E2"/>
<path d="M148.028 103.662L153.068 103.926L152.805 108.96L147.764 108.696L148.028 103.662Z" fill="#E2E2E2"/>
<path d="M148.292 98.6304L153.332 98.8945L153.068 103.929L148.028 103.665L148.292 98.6304Z" fill="#9B9B9B"/>
<path d="M148.557 93.5874L153.598 93.8516L153.334 98.8877L148.293 98.6235L148.557 93.5874Z" fill="#999999"/>
<path d="M148.819 88.5562L153.859 88.8203L153.596 93.8549L148.555 93.5908L148.819 88.5562Z" fill="#999999"/>
<path d="M149.085 83.5249L154.125 83.7891L153.861 88.8236L148.821 88.5595L149.085 83.5249Z" fill="#999999"/>
<path d="M149.348 78.4741L154.389 78.7383L154.125 83.7729L149.085 83.5087L149.348 78.4741Z" fill="#999999"/>
<path d="M149.61 73.4546L154.65 73.7188L154.386 78.7548L149.346 78.4907L149.61 73.4546Z" fill="#999999"/>
<path d="M149.876 68.4273L154.916 68.6914L154.652 73.726L149.612 73.4619L149.876 68.4273Z" fill="#999999"/>
<path d="M150.139 63.3882L155.18 63.6523L154.916 68.6869L149.876 68.4228L150.139 63.3882Z" fill="#999999"/>
<path d="M150.403 58.3452L155.443 58.6094L155.18 63.644L150.139 63.3798L150.403 58.3452Z" fill="#999999"/>
<path d="M150.669 53.3062L155.709 53.5703L155.445 58.6064L150.405 58.3423L150.669 53.3062Z" fill="#999999"/>
<path d="M150.93 48.271L155.971 48.5352L155.707 53.5698L150.667 53.3056L150.93 48.271Z" fill="#999999"/>
<path d="M151.194 43.2476L156.234 43.5117L155.971 48.5463L150.93 48.2822L151.194 43.2476Z" fill="#999999"/>
<path d="M151.46 38.2046L156.5 38.4688L156.236 43.5033L151.196 43.2392L151.46 38.2046Z" fill="#999999"/>
<path d="M151.721 33.1733L156.762 33.4375L156.498 38.4736L151.457 38.2095L151.721 33.1733Z" fill="#999999"/>
<path d="M151.987 28.1343L157.027 28.3984L156.763 33.433L151.723 33.1689L151.987 28.1343Z" fill="#7A7A7A"/>
<path d="M152.251 23.103L157.291 23.3672L157.027 28.4018L151.987 28.1376L152.251 23.103Z" fill="#AFAFAF"/>
<path d="M152.538 113.998L157.578 114.262L157.314 119.296L152.274 119.032L152.538 113.998Z" fill="#3A3A3A"/>
<path d="M153.067 103.927L158.107 104.191L157.844 109.226L152.803 108.962L153.067 103.927Z" fill="#E2E2E2"/>
<path d="M153.329 98.896L158.369 99.1602L158.105 104.195L153.065 103.931L153.329 98.896Z" fill="#999999"/>
<path d="M153.594 93.8491L158.635 94.1133L158.371 99.1494L153.331 98.8853L153.594 93.8491Z" fill="#999999"/>
<path d="M153.858 88.8179L158.898 89.082L158.635 94.1166L153.594 93.8525L153.858 88.8179Z" fill="#999999"/>
<path d="M154.124 83.7866L159.164 84.0508L158.9 89.0854L153.86 88.8212L154.124 83.7866Z" fill="#999999"/>
<path d="M154.387 78.7398L159.428 79.0039L159.164 84.0385L154.124 83.7744L154.387 78.7398Z" fill="#999999"/>
<path d="M154.649 73.7163L159.689 73.9805L159.426 79.0166L154.385 78.7524L154.649 73.7163Z" fill="#999999"/>
<path d="M154.915 68.689L159.955 68.9531L159.691 73.9877L154.651 73.7236L154.915 68.689Z" fill="#999999"/>
<path d="M155.178 63.6499L160.219 63.9141L159.955 68.9486L154.915 68.6845L155.178 63.6499Z" fill="#999999"/>
<path d="M155.44 58.6108L160.48 58.875L160.217 63.9096L155.176 63.6455L155.44 58.6108Z" fill="#999999"/>
<path d="M155.706 53.5718L160.746 53.8359L160.482 58.872L155.442 58.6079L155.706 53.5718Z" fill="#999999"/>
<path d="M155.969 48.5366L161.01 48.8008L160.746 53.8354L155.706 53.5712L155.969 48.5366Z" fill="#999999"/>
<path d="M156.231 43.5132L161.271 43.7773L161.008 48.812L155.967 48.5478L156.231 43.5132Z" fill="#999999"/>
<path d="M156.497 38.4702L161.537 38.7344L161.273 43.7689L156.233 43.5048L156.497 38.4702Z" fill="#999999"/>
<path d="M156.76 33.439L161.801 33.7031L161.537 38.7393L156.497 38.4751L156.76 33.439Z" fill="#AFAFAF"/>
<path d="M157.026 28.3999L162.066 28.6641L161.803 33.6986L156.762 33.4345L157.026 28.3999Z" fill="#AFAFAF"/>
<path d="M157.288 23.3687L162.328 23.6328L162.064 28.6674L157.024 28.4033L157.288 23.3687Z" fill="#7A7A7A"/>
<path d="M157.846 109.216L162.887 109.48L162.623 114.517L157.582 114.252L157.846 109.216Z" fill="#3A3A3A"/>
<path d="M158.108 104.189L163.148 104.453L162.885 109.488L157.844 109.224L158.108 104.189Z" fill="#9B9B9B"/>
<path d="M158.374 99.1577L163.414 99.4219L163.15 104.456L158.11 104.192L158.374 99.1577Z" fill="#999999"/>
<path d="M158.637 94.1148L163.678 94.3789L163.414 99.415L158.373 99.1509L158.637 94.1148Z" fill="#999999"/>
<path d="M158.899 89.0835L163.939 89.3477L163.676 94.3823L158.635 94.1181L158.899 89.0835Z" fill="#999999"/>
<path d="M159.165 84.0523L164.205 84.3164L163.941 89.351L158.901 89.0868L159.165 84.0523Z" fill="#999999"/>
<path d="M159.428 79.0054L164.469 79.2695L164.205 84.3041L159.165 84.04L159.428 79.0054Z" fill="#999999"/>
<path d="M159.694 73.9819L164.734 74.2461L164.47 79.2822L159.43 79.018L159.694 73.9819Z" fill="#999999"/>
<path d="M159.956 68.9546L164.996 69.2188L164.732 74.2534L159.692 73.9892L159.956 68.9546Z" fill="#999999"/>
<path d="M160.219 63.9155L165.26 64.1797L164.996 69.2143L159.956 68.9501L160.219 63.9155Z" fill="#999999"/>
<path d="M160.485 58.8765L165.525 59.1406L165.262 64.1752L160.221 63.9111L160.485 58.8765Z" fill="#999999"/>
<path d="M160.749 53.8374L165.789 54.1016L165.525 59.1377L160.485 58.8735L160.749 53.8374Z" fill="#999999"/>
<path d="M161.01 48.8023L166.051 49.0664L165.787 54.101L160.747 53.8369L161.01 48.8023Z" fill="#999999"/>
<path d="M161.276 43.7788L166.316 44.043L166.053 49.0776L161.012 48.8134L161.276 43.7788Z" fill="#999999"/>
<path d="M161.54 38.7319L166.58 38.9961L166.316 44.0307L161.276 43.7665L161.54 38.7319Z" fill="#999999"/>
<path d="M161.801 33.7046L166.842 33.9688L166.578 39.0049L161.538 38.7407L161.801 33.7046Z" fill="#999999"/>
<path d="M162.067 28.6616L167.107 28.9258L166.844 33.9604L161.803 33.6962L162.067 28.6616Z" fill="#7A7A7A"/>
<path d="M162.331 23.6304L167.371 23.8945L167.107 28.9291L162.067 28.665L162.331 23.6304Z" fill="#AFAFAF"/>
<path d="M162.888 109.482L167.93 109.746L167.666 114.782L162.624 114.518L162.888 109.482Z" fill="#3A3A3A"/>
<path d="M163.152 104.455L168.193 104.719L167.93 109.753L162.888 109.489L163.152 104.455Z" fill="#CECECE"/>
<path d="M163.413 99.4233L168.455 99.6875L168.191 104.722L163.149 104.458L163.413 99.4233Z" fill="#3A3A3A"/>
<path d="M163.679 94.3803L168.721 94.6445L168.457 99.6807L163.415 99.4164L163.679 94.3803Z" fill="#3A3A3A"/>
<path d="M163.943 89.3491L168.984 89.6133L168.721 94.6479L163.679 94.3837L163.943 89.3491Z" fill="#999999"/>
<path d="M164.208 84.3178L169.25 84.582L168.986 89.6166L163.944 89.3524L164.208 84.3178Z" fill="#999999"/>
<path d="M164.472 79.267L169.514 79.5312L169.25 84.5659L164.208 84.3016L164.472 79.267Z" fill="#999999"/>
<path d="M164.734 74.2475L169.775 74.5117L169.511 79.5478L164.47 79.2836L164.734 74.2475Z" fill="#999999"/>
<path d="M164.999 69.2201L170.041 69.4844L169.777 74.519L164.735 74.2548L164.999 69.2201Z" fill="#999999"/>
<path d="M165.263 64.1811L170.305 64.4453L170.041 69.4799L164.999 69.2157L165.263 64.1811Z" fill="#999999"/>
<path d="M165.525 59.1381L170.566 59.4023L170.303 64.437L165.261 64.1727L165.525 59.1381Z" fill="#999999"/>
<path d="M165.79 54.0991L170.832 54.3633L170.568 59.3994L165.526 59.1351L165.79 54.0991Z" fill="#999999"/>
<path d="M166.054 49.0639L171.096 49.3281L170.832 54.3627L165.79 54.0985L166.054 49.0639Z" fill="#999999"/>
<path d="M166.318 44.0405L171.359 44.3047L171.096 49.3393L166.054 49.0751L166.318 44.0405Z" fill="#999999"/>
<path d="M166.581 38.9975L171.623 39.2617L171.359 44.2963L166.317 44.0321L166.581 38.9975Z" fill="#999999"/>
<path d="M166.845 33.9662L171.887 34.2305L171.623 39.2666L166.581 39.0024L166.845 33.9662Z" fill="#AFAFAF"/>
<path d="M167.111 28.9272L172.152 29.1914L171.888 34.226L166.847 33.9617L167.111 28.9272Z" fill="#7A7A7A"/>
<path d="M167.374 23.8959L172.416 24.1602L172.152 29.1948L167.11 28.9305L167.374 23.8959Z" fill="#7A7A7A"/>
<path d="M168.192 104.72L173.232 104.984L172.969 110.019L167.928 109.755L168.192 104.72Z" fill="#3A3A3A"/>
<path d="M168.458 99.689L173.498 99.9531L173.234 104.988L168.194 104.724L168.458 99.689Z" fill="#999999"/>
<path d="M168.721 94.6382L173.762 94.9023L173.498 99.9385L168.457 99.6743L168.721 94.6382Z" fill="#999999"/>
<path d="M168.985 89.6108L174.025 89.875L173.762 94.9096L168.721 94.6455L168.985 89.6108Z" fill="#999999"/>
<path d="M169.249 84.5796L174.289 84.8438L174.025 89.8783L168.985 89.6142L169.249 84.5796Z" fill="#999999"/>
<path d="M169.512 79.5327L174.553 79.7969L174.289 84.8315L169.249 84.5673L169.512 79.5327Z" fill="#999999"/>
<path d="M169.776 74.5093L174.816 74.7734L174.552 79.8095L169.512 79.5454L169.776 74.5093Z" fill="#999999"/>
<path d="M170.04 69.478L175.08 69.7422L174.816 74.7768L169.776 74.5126L170.04 69.478Z" fill="#999999"/>
<path d="M170.303 64.4429L175.344 64.707L175.08 69.7416L170.04 69.4775L170.303 64.4429Z" fill="#999999"/>
<path d="M170.567 59.4038L175.607 59.668L175.344 64.7026L170.303 64.4384L170.567 59.4038Z" fill="#999999"/>
<path d="M170.833 54.3648L175.873 54.6289L175.609 59.665L170.569 59.4009L170.833 54.3648Z" fill="#999999"/>
<path d="M171.094 49.3296L176.135 49.5938L175.871 54.6284L170.831 54.3642L171.094 49.3296Z" fill="#999999"/>
<path d="M171.36 44.3023L176.4 44.5664L176.137 49.601L171.096 49.3369L171.36 44.3023Z" fill="#999999"/>
<path d="M171.624 39.2632L176.664 39.5273L176.4 44.5619L171.36 44.2978L171.624 39.2632Z" fill="#999999"/>
<path d="M171.887 34.2319L176.928 34.4961L176.664 39.5322L171.623 39.2681L171.887 34.2319Z" fill="#999999"/>
<path d="M172.151 29.1929L177.191 29.457L176.928 34.4916L171.887 34.2275L172.151 29.1929Z" fill="#999999"/>
<path d="M172.415 24.1616L177.455 24.4258L177.191 29.4604L172.151 29.1962L172.415 24.1616Z" fill="#999999"/>
<path d="M172.678 19.1226L177.719 19.3867L177.455 24.4213L172.415 24.1571L172.678 19.1226Z" fill="#999999"/>
<path d="M173.241 104.982L178.281 105.246L178.017 110.281L172.977 110.017L173.241 104.982Z" fill="#3A3A3A"/>
<path d="M173.503 99.9507L178.543 100.215L178.279 105.249L173.239 104.985L173.503 99.9507Z" fill="#999999"/>
<path d="M173.766 94.9077L178.807 95.1719L178.543 100.208L173.502 99.9439L173.766 94.9077Z" fill="#999999"/>
<path d="M174.032 89.8765L179.072 90.1406L178.808 95.1752L173.768 94.9111L174.032 89.8765Z" fill="#999999"/>
<path d="M174.296 84.8452L179.336 85.1094L179.072 90.1439L174.032 89.8798L174.296 84.8452Z" fill="#999999"/>
<path d="M174.561 79.7983L179.602 80.0625L179.338 85.0971L174.297 84.833L174.561 79.7983Z" fill="#999999"/>
<path d="M174.823 74.7749L179.863 75.0391L179.599 80.0752L174.559 79.811L174.823 74.7749Z" fill="#999999"/>
<path d="M175.087 69.7437L180.127 70.0078L179.863 75.0424L174.823 74.7783L175.087 69.7437Z" fill="#3A3A3A"/>
<path d="M175.352 64.7085L180.393 64.9727L180.129 70.0072L175.088 69.7431L175.352 64.7085Z" fill="#999999"/>
<path d="M175.614 59.6694L180.654 59.9336L180.39 64.9682L175.35 64.7041L175.614 59.6694Z" fill="#3A3A3A"/>
<path d="M175.878 54.6304L180.918 54.8945L180.654 59.9306L175.614 59.6665L175.878 54.6304Z" fill="#999999"/>
<path d="M176.143 49.5952L181.184 49.8594L180.92 54.894L175.879 54.6298L176.143 49.5952Z" fill="#999999"/>
<path d="M176.407 44.5679L181.447 44.832L181.183 49.8666L176.143 49.6025L176.407 44.5679Z" fill="#999999"/>
<path d="M176.669 39.5288L181.709 39.793L181.445 44.8275L176.405 44.5634L176.669 39.5288Z" fill="#AFAFAF"/>
<path d="M176.934 34.4976L181.975 34.7617L181.711 39.7979L176.67 39.5337L176.934 34.4976Z" fill="#999999"/>
<path d="M177.198 29.4546L182.238 29.7188L181.974 34.7533L176.934 34.4892L177.198 29.4546Z" fill="#AFAFAF"/>
<path d="M177.462 24.4233L182.502 24.6875L182.238 29.7221L177.198 29.458L177.462 24.4233Z" fill="#999999"/>
<path d="M177.725 19.3843L182.766 19.6484L182.502 24.683L177.461 24.4189L177.725 19.3843Z" fill="#999999"/>
<path d="M178.007 110.275L183.047 110.539L182.783 115.575L177.743 115.311L178.007 110.275Z" fill="#3A3A3A"/>
<path d="M178.27 105.248L183.311 105.512L183.047 110.546L178.006 110.282L178.27 105.248Z" fill="#999999"/>
<path d="M178.534 100.216L183.574 100.48L183.31 105.515L178.27 105.251L178.534 100.216Z" fill="#AFAFAF"/>
<path d="M178.798 95.1694L183.838 95.4336L183.574 100.47L178.534 100.206L178.798 95.1694Z" fill="#999999"/>
<path d="M179.063 90.1421L184.104 90.4062L183.84 95.4409L178.799 95.1767L179.063 90.1421Z" fill="#999999"/>
<path d="M179.325 85.1108L184.365 85.375L184.101 90.4096L179.061 90.1454L179.325 85.1108Z" fill="#999999"/>
<path d="M179.591 80.0601L184.631 80.3242L184.367 85.3588L179.327 85.0947L179.591 80.0601Z" fill="#999999"/>
<path d="M179.854 75.0405L184.895 75.3047L184.631 80.3408L179.59 80.0766L179.854 75.0405Z" fill="#999999"/>
<path d="M180.116 70.0093L185.156 70.2734L184.892 75.308L179.852 75.0439L180.116 70.0093Z" fill="#3A3A3A"/>
<path d="M180.382 64.9741L185.422 65.2383L185.158 70.2729L180.118 70.0087L180.382 64.9741Z" fill="#999999"/>
<path d="M180.645 59.9312L185.686 60.1953L185.422 65.2299L180.381 64.9658L180.645 59.9312Z" fill="#3A3A3A"/>
<path d="M180.909 54.8921L185.949 55.1562L185.685 60.1923L180.645 59.9282L180.909 54.8921Z" fill="#999999"/>
<path d="M181.175 49.8569L186.215 50.1211L185.951 55.1557L180.911 54.8916L181.175 49.8569Z" fill="#999999"/>
<path d="M181.436 44.8296L186.477 45.0938L186.213 50.1284L181.172 49.8642L181.436 44.8296Z" fill="#999999"/>
<path d="M181.7 39.7866L186.74 40.0508L186.476 45.0854L181.436 44.8212L181.7 39.7866Z" fill="#999999"/>
<path d="M181.966 34.7593L187.006 35.0234L186.742 40.0596L181.702 39.7954L181.966 34.7593Z" fill="#AFAFAF"/>
<path d="M182.227 29.7202L187.268 29.9844L187.004 35.0189L181.963 34.7548L182.227 29.7202Z" fill="#999999"/>
<path d="M182.493 24.689L187.533 24.9531L187.269 29.9877L182.229 29.7236L182.493 24.689Z" fill="#FFBEAB"/>
<path d="M182.757 19.6499L187.797 19.9141L187.533 24.9486L182.493 24.6845L182.757 19.6499Z" fill="#FFBEAB"/>
<path d="M183.02 14.6187L188.061 14.8828L187.797 19.9189L182.756 19.6548L183.02 14.6187Z" fill="#AFAFAF"/>
<path d="M182.784 115.583L187.826 115.848L187.562 120.882L182.52 120.618L182.784 115.583Z" fill="#3A3A3A"/>
<path d="M183.05 110.54L188.092 110.805L187.828 115.841L182.786 115.577L183.05 110.54Z" fill="#3A3A3A"/>
<path d="M183.314 105.513L188.355 105.777L188.092 110.812L183.05 110.548L183.314 105.513Z" fill="#999999"/>
<path d="M183.575 100.482L188.617 100.746L188.353 105.781L183.312 105.516L183.575 100.482Z" fill="#999999"/>
<path d="M183.843 95.4311L188.885 95.6953L188.621 100.731L183.579 100.467L183.843 95.4311Z" fill="#999999"/>
<path d="M184.105 90.4037L189.146 90.668L188.883 95.7026L183.841 95.4383L184.105 90.4037Z" fill="#AFAFAF"/>
<path d="M184.368 85.3764L189.41 85.6406L189.146 90.6752L184.104 90.411L184.368 85.3764Z" fill="#999999"/>
<path d="M184.634 80.3256L189.676 80.5898L189.412 85.6245L184.37 85.3602L184.634 80.3256Z" fill="#999999"/>
<path d="M184.896 75.3022L189.938 75.5664L189.674 80.6025L184.632 80.3383L184.896 75.3022Z" fill="#999999"/>
<path d="M185.161 70.2748L190.203 70.5391L189.939 75.5737L184.897 75.3094L185.161 70.2748Z" fill="#3A3A3A"/>
<path d="M185.425 65.2358L190.467 65.5L190.203 70.5346L185.161 70.2703L185.425 65.2358Z" fill="#999999"/>
<path d="M185.689 60.1967L190.73 60.4609L190.467 65.4955L185.425 65.2313L185.689 60.1967Z" fill="#3A3A3A"/>
<path d="M185.952 55.1576L190.994 55.4219L190.73 60.458L185.688 60.1937L185.952 55.1576Z" fill="#999999"/>
<path d="M186.216 50.1225L191.258 50.3867L190.994 55.4213L185.952 55.1571L186.216 50.1225Z" fill="#999999"/>
<path d="M186.48 45.0951L191.521 45.3594L191.258 50.394L186.216 50.1298L186.48 45.0951Z" fill="#999999"/>
<path d="M186.745 40.0522L191.787 40.3164L191.523 45.351L186.481 45.0867L186.745 40.0522Z" fill="#AFAFAF"/>
<path d="M187.007 35.0248L192.049 35.2891L191.785 40.3252L186.743 40.061L187.007 35.0248Z" fill="#999999"/>
<path d="M187.273 29.9858L192.314 30.25L192.051 35.2846L187.009 35.0203L187.273 29.9858Z" fill="#AFAFAF"/>
<path d="M187.831 115.849L192.871 116.113L192.607 121.148L187.567 120.884L187.831 115.849Z" fill="#3A3A3A"/>
<path d="M188.094 110.802L193.135 111.066L192.871 116.103L187.831 115.838L188.094 110.802Z" fill="#999999"/>
<path d="M188.356 105.775L193.396 106.039L193.133 111.074L188.092 110.81L188.356 105.775Z" fill="#999999"/>
<path d="M188.622 100.744L193.662 101.008L193.398 106.042L188.358 105.778L188.622 100.744Z" fill="#AFAFAF"/>
<path d="M188.885 95.6968L193.926 95.9609L193.662 100.997L188.622 100.733L188.885 95.6968Z" fill="#AFAFAF"/>
<path d="M189.149 90.6655L194.189 90.9297L193.926 95.9643L188.885 95.7001L189.149 90.6655Z" fill="#999999"/>
<path d="M189.413 85.6382L194.453 85.9023L194.189 90.9369L189.149 90.6728L189.413 85.6382Z" fill="#999999"/>
<path d="M189.676 80.5913L194.717 80.8555L194.453 85.8901L189.413 85.6259L189.676 80.5913Z" fill="#999999"/>
<path d="M189.94 75.5679L194.98 75.832L194.717 80.8681L189.676 80.604L189.94 75.5679Z" fill="#999999"/>
<path d="M190.204 70.5366L195.244 70.8008L194.98 75.8354L189.94 75.5712L190.204 70.5366Z" fill="#999999"/>
<path d="M190.468 65.4976L195.508 65.7617L195.244 70.7963L190.204 70.5321L190.468 65.4976Z" fill="#999999"/>
<path d="M190.733 60.4624L195.773 60.7266L195.51 65.7612L190.469 65.497L190.733 60.4624Z" fill="#999999"/>
<path d="M190.997 55.4233L196.037 55.6875L195.773 60.7236L190.733 60.4594L190.997 55.4233Z" fill="#999999"/>
<path d="M191.26 50.3882L196.301 50.6523L196.037 55.687L190.997 55.4228L191.26 50.3882Z" fill="#999999"/>
<path d="M191.524 45.3608L196.564 45.625L196.301 50.6596L191.26 50.3955L191.524 45.3608Z" fill="#999999"/>
<path d="M191.788 40.3179L196.828 40.582L196.564 45.6166L191.524 45.3525L191.788 40.3179Z" fill="#999999"/>
<path d="M192.051 35.2905L197.092 35.5547L196.828 40.5908L191.788 40.3267L192.051 35.2905Z" fill="#AFAFAF"/>
<path d="M192.604 121.146L197.645 121.41L197.381 126.445L192.34 126.181L192.604 121.146Z" fill="#3A3A3A"/>
<path d="M192.868 116.107L197.908 116.371L197.644 121.406L192.604 121.142L192.868 116.107Z" fill="#3A3A3A"/>
<path d="M193.132 111.068L198.172 111.332L197.908 116.368L192.868 116.104L193.132 111.068Z" fill="#999999"/>
<path d="M193.395 106.041L198.436 106.305L198.172 111.339L193.131 111.075L193.395 106.041Z" fill="#AFAFAF"/>
<path d="M193.661 101.009L198.701 101.273L198.437 106.308L193.397 106.044L193.661 101.009Z" fill="#3A3A3A"/>
<path d="M193.925 95.9624L198.965 96.2266L198.701 101.263L193.661 100.999L193.925 95.9624Z" fill="#3A3A3A"/>
<path d="M194.186 90.9312L199.227 91.1953L198.963 96.2299L193.922 95.9658L194.186 90.9312Z" fill="#AFAFAF"/>
<path d="M194.452 85.9038L199.492 86.168L199.228 91.2025L194.188 90.9384L194.452 85.9038Z" fill="#999999"/>
<path d="M194.716 80.8569L199.756 81.1211L199.492 86.1557L194.452 85.8916L194.716 80.8569Z" fill="#999999"/>
<path d="M194.977 75.8335L200.018 76.0977L199.754 81.1338L194.713 80.8696L194.977 75.8335Z" fill="#999999"/>
<path d="M195.243 70.8023L200.283 71.0664L200.019 76.101L194.979 75.8369L195.243 70.8023Z" fill="#999999"/>
<path d="M195.507 65.7632L200.547 66.0273L200.283 71.0619L195.243 70.7978L195.507 65.7632Z" fill="#999999"/>
<path d="M195.772 60.728L200.812 60.9922L200.549 66.0268L195.508 65.7626L195.772 60.728Z" fill="#999999"/>
<path d="M196.034 55.6851L201.074 55.9492L200.81 60.9853L195.77 60.7212L196.034 55.6851Z" fill="#3A3A3A"/>
<path d="M196.298 50.6499L201.338 50.9141L201.074 55.9487L196.034 55.6845L196.298 50.6499Z" fill="#3A3A3A"/>
<path d="M196.563 45.6265L201.604 45.8906L201.34 50.9252L196.299 50.6611L196.563 45.6265Z" fill="#3A3A3A"/>
<path d="M196.827 40.5796L201.867 40.8438L201.603 45.8783L196.563 45.6142L196.827 40.5796Z" fill="#AFAFAF"/>
<path d="M197.643 121.412L202.684 121.676L202.42 126.71L197.379 126.446L197.643 121.412Z" fill="#3A3A3A"/>
<path d="M197.907 116.373L202.947 116.637L202.683 121.671L197.643 121.407L197.907 116.373Z" fill="#999999"/>
<path d="M198.171 111.334L203.211 111.598L202.947 116.634L197.907 116.37L198.171 111.334Z" fill="#AFAFAF"/>
<path d="M198.434 106.306L203.475 106.57L203.211 111.605L198.17 111.341L198.434 106.306Z" fill="#3A3A3A"/>
<path d="M198.698 101.275L203.738 101.539L203.474 106.574L198.434 106.309L198.698 101.275Z" fill="#515150"/>
<path d="M199.227 91.1968L204.268 91.4609L204.004 96.4955L198.963 96.2314L199.227 91.1968Z" fill="#AFAFAF"/>
<path d="M199.489 86.1694L204.529 86.4336L204.265 91.4682L199.225 91.204L199.489 86.1694Z" fill="#AFAFAF"/>
<path d="M199.755 81.1187L204.795 81.3828L204.531 86.4174L199.491 86.1533L199.755 81.1187Z" fill="#999999"/>
<path d="M200.018 76.0952L205.059 76.3594L204.795 81.3955L199.754 81.1313L200.018 76.0952Z" fill="#999999"/>
<path d="M200.28 71.0679L205.32 71.332L205.056 76.3666L200.016 76.1025L200.28 71.0679Z" fill="#999999"/>
<path d="M200.546 66.0249L205.586 66.2891L205.322 71.3236L200.282 71.0595L200.546 66.0249Z" fill="#3A3A3A"/>
<path d="M200.809 60.9898L205.85 61.2539L205.586 66.2885L200.545 66.0244L200.809 60.9898Z" fill="#999999"/>
<path d="M201.073 55.9507L206.113 56.2148L205.849 61.2509L200.809 60.9868L201.073 55.9507Z" fill="#999999"/>
<path d="M201.339 50.9155L206.379 51.1797L206.115 56.2143L201.075 55.9501L201.339 50.9155Z" fill="#AFAFAF"/>
<path d="M202.687 121.677L207.729 121.941L207.465 126.976L202.423 126.712L202.687 121.677Z" fill="#3A3A3A"/>
<path d="M202.948 116.638L207.99 116.902L207.726 121.937L202.685 121.673L202.948 116.638Z" fill="#999999"/>
<path d="M203.214 111.595L208.256 111.859L207.992 116.895L202.95 116.631L203.214 111.595Z" fill="#AFAFAF"/>
<path d="M203.478 106.568L208.52 106.832L208.256 111.867L203.214 111.602L203.478 106.568Z" fill="#3A3A3A"/>
<path d="M203.741 101.54L208.783 101.805L208.519 106.839L203.478 106.575L203.741 101.54Z" fill="#515150"/>
<path d="M204.798 81.3842L209.84 81.6484L209.576 86.683L204.534 86.4188L204.798 81.3842Z" fill="#AFAFAF"/>
<path d="M205.06 76.3608L210.102 76.625L209.838 81.6611L204.796 81.3969L205.06 76.3608Z" fill="#999999"/>
<path d="M205.325 71.3295L210.367 71.5938L210.103 76.6284L205.062 76.3641L205.325 71.3295Z" fill="#3A3A3A"/>
<path d="M205.589 66.2905L210.631 66.5547L210.367 71.5893L205.325 71.325L205.589 66.2905Z" fill="#999999"/>
<path d="M205.853 61.2514L210.895 61.5156L210.631 66.5502L205.589 66.286L205.853 61.2514Z" fill="#999999"/>
<path d="M206.116 56.2162L211.158 56.4805L210.894 61.5166L205.852 61.2523L206.116 56.2162Z" fill="#AFAFAF"/>
<path d="M207.989 116.9L213.029 117.164L212.765 122.199L207.725 121.935L207.989 116.9Z" fill="#3A3A3A"/>
<path d="M208.255 111.857L213.295 112.121L213.031 117.157L207.991 116.893L208.255 111.857Z" fill="#3A3A3A"/>
<path d="M208.518 106.834L213.559 107.098L213.295 112.132L208.254 111.868L208.518 106.834Z" fill="#515150"/>
<path d="M210.1 76.6265L215.141 76.8906L214.877 81.9267L209.836 81.6626L210.1 76.6265Z" fill="#AFAFAF"/>
<path d="M210.364 71.5952L215.404 71.8594L215.14 76.894L210.1 76.6298L210.364 71.5952Z" fill="#AFAFAF"/>
<path d="M210.628 66.5562L215.668 66.8203L215.404 71.8549L210.364 71.5907L210.628 66.5562Z" fill="#3A3A3A"/>
<path d="M210.891 61.5171L215.932 61.7812L215.668 66.8159L210.627 66.5517L210.891 61.5171Z" fill="#FFA99F"/>
</svg>
