<svg width="146" height="147" viewBox="0 0 146 147" fill="none" xmlns="http://www.w3.org/2000/svg">
<path d="M67.7861 83.4258H62.5723V88.6412H67.7861V83.4258Z" fill="#E2E2E2"/>
<path d="M67.7861 88.6406H62.5723V93.8545H67.7861V88.6406Z" fill="#E2E2E2"/>
<path d="M62.5728 83.4258H57.3574V88.6412H62.5728V83.4258Z" fill="#E2E2E2"/>
<path d="M62.5728 78.2148H57.3574V83.4287H62.5728V78.2148Z" fill="#E2E2E2"/>
<path d="M41.7154 88.6406H36.5V93.8545H41.7154V88.6406Z" fill="#E2E2E2"/>
<path d="M41.7154 83.4258H36.5V88.6412H41.7154V83.4258Z" fill="#E2E2E2"/>
<path d="M41.7154 78.2148H36.5V83.4287H41.7154V78.2148Z" fill="#E2E2E2"/>
<path d="M57.3564 78.2148H52.1426V83.4287H57.3564V78.2148Z" fill="#E2E2E2"/>
<path d="M57.3564 73H52.1426V78.2139H57.3564V73Z" fill="#E2E2E2"/>
<path d="M57.3564 83.4258H52.1426V88.6412H57.3564V83.4258Z" fill="#E2E2E2"/>
<path d="M52.1435 78.2148H46.9297V83.4287H52.1435V78.2148Z" fill="#E2E2E2"/>
<path d="M52.1435 73H46.9297V78.2139H52.1435V73Z" fill="#E2E2E2"/>
<path d="M46.9306 73H41.7168V78.2139H46.9306V73Z" fill="#E2E2E2"/>
<path d="M46.9306 78.2148H41.7168V83.4287H46.9306V78.2148Z" fill="#E2E2E2"/>
<path d="M36.499 114.715H31.2852V119.929H36.499V114.715Z" fill="#E2E2E2"/>
<path d="M41.7154 93.8594H36.5V99.0732H41.7154V93.8594Z" fill="#E2E2E2"/>
<path d="M36.499 99.0703H31.2852V104.284H36.499V99.0703Z" fill="#E2E2E2"/>
<path d="M36.499 93.8594H31.2852V99.0732H36.499V93.8594Z" fill="#E2E2E2"/>
<path d="M36.499 88.6406H31.2852V93.8545H36.499V88.6406Z" fill="#E2E2E2"/>
<path d="M36.499 109.5H31.2852V114.714H36.499V109.5Z" fill="#E2E2E2"/>
<path d="M36.499 104.289H31.2852V109.504H36.499V104.289Z" fill="#E2E2E2"/>
<path d="M36.499 83.4258H31.2852V88.6412H36.499V83.4258Z" fill="#E2E2E2"/>
<path d="M41.7154 99.0703H36.5V104.284H41.7154V99.0703Z" fill="#E2E2E2"/>
<path d="M41.7154 104.289H36.5V109.504H41.7154V104.289Z" fill="#E2E2E2"/>
<path d="M41.7154 109.5H36.5V114.714H41.7154V109.5Z" fill="#E2E2E2"/>
<path d="M46.9306 104.289H41.7168V109.504H46.9306V104.289Z" fill="#E2E2E2"/>
<path d="M46.9306 99.0703H41.7168V104.284H46.9306V99.0703Z" fill="#E2E2E2"/>
<path d="M62.5728 104.289H57.3574V109.504H62.5728V104.289Z" fill="#E2E2E2"/>
<path d="M67.7861 93.8594H62.5723V99.0732H67.7861V93.8594Z" fill="#E2E2E2"/>
<path d="M67.7861 109.5H62.5723V114.714H67.7861V109.5Z" fill="#E2E2E2"/>
<path d="M67.7861 104.289H62.5723V109.504H67.7861V104.289Z" fill="#E2E2E2"/>
<path d="M67.7861 99.0703H62.5723V104.284H67.7861V99.0703Z" fill="#E2E2E2"/>
<path d="M57.3564 119.926H52.1426V125.14H57.3564V119.926Z" fill="#E2E2E2"/>
<path d="M62.5728 114.715H57.3574V119.929H62.5728V114.715Z" fill="#E2E2E2"/>
<path d="M62.5728 88.6406H57.3574V93.8545H62.5728V88.6406Z" fill="#E2E2E2"/>
<path d="M62.5728 93.8594H57.3574V99.0732H62.5728V93.8594Z" fill="#E2E2E2"/>
<path d="M62.5728 99.0703H57.3574V104.284H62.5728V99.0703Z" fill="#E2E2E2"/>
<path d="M57.3564 109.5H52.1426V114.714H57.3564V109.5Z" fill="#E2E2E2"/>
<path d="M57.3564 88.6406H52.1426V93.8545H57.3564V88.6406Z" fill="#E2E2E2"/>
<path d="M57.3564 99.0703H52.1426V104.284H57.3564V99.0703Z" fill="#E2E2E2"/>
<path d="M57.3564 93.8594H52.1426V99.0732H57.3564V93.8594Z" fill="#E2E2E2"/>
<path d="M57.3564 104.289H52.1426V109.504H57.3564V104.289Z" fill="#E2E2E2"/>
<path d="M52.1435 109.5H46.9297V114.714H52.1435V109.5Z" fill="#E2E2E2"/>
<path d="M52.1435 104.289H46.9297V109.504H52.1435V104.289Z" fill="#E2E2E2"/>
<path d="M52.1435 114.715H46.9297V119.929H52.1435V114.715Z" fill="#E2E2E2"/>
<path d="M52.1435 99.0703H46.9297V104.284H52.1435V99.0703Z" fill="#E2E2E2"/>
<path d="M52.1435 83.4258H46.9297V88.6412H52.1435V83.4258Z" fill="#E2E2E2"/>
<path d="M52.1435 93.8594H46.9297V99.0732H52.1435V93.8594Z" fill="#E2E2E2"/>
<path d="M52.1435 88.6406H46.9297V93.8545H52.1435V88.6406Z" fill="#E2E2E2"/>
<path d="M46.9306 83.4258H41.7168V88.6412H46.9306V83.4258Z" fill="#E2E2E2"/>
<path d="M46.9306 93.8594H41.7168V99.0732H46.9306V93.8594Z" fill="#E2E2E2"/>
<path d="M46.9306 88.6406H41.7168V93.8545H46.9306V88.6406Z" fill="#E2E2E2"/>
<path d="M146.001 88.6406H140.785V93.8545H146.001V88.6406Z" fill="#3A3A3A"/>
<path d="M146.001 83.4258H140.785V88.6412H146.001V83.4258Z" fill="#3A3A3A"/>
<path d="M146.001 78.2148H140.785V83.4287H146.001V78.2148Z" fill="#3A3A3A"/>
<path d="M146.001 73H140.785V78.2139H146.001V73Z" fill="#3A3A3A"/>
<path d="M146.001 67.7852H140.785V73.0006H146.001V67.7852Z" fill="#3A3A3A"/>
<path d="M146.001 62.5703H140.785V67.7842H146.001V62.5703Z" fill="#3A3A3A"/>
<path d="M140.786 93.8594H135.572V99.0732H140.786V93.8594Z" fill="#3A3A3A"/>
<path d="M140.786 88.6406H135.572V93.8545H140.786V88.6406Z" fill="#7A7A7A"/>
<path d="M140.786 83.4258H135.572V88.6412H140.786V83.4258Z" fill="#999999"/>
<path d="M140.786 78.2148H135.572V83.4287H140.786V78.2148Z" fill="#7A7A7A"/>
<path d="M140.786 73H135.572V78.2139H140.786V73Z" fill="#999999"/>
<path d="M140.786 67.7852H135.572V73.0006H140.786V67.7852Z" fill="#7A7A7A"/>
<path d="M140.786 62.5703H135.572V67.7842H140.786V62.5703Z" fill="#999999"/>
<path d="M140.786 57.3594H135.572V62.5732H140.786V57.3594Z" fill="#3A3A3A"/>
<path d="M135.571 104.289H130.357V109.504H135.571V104.289Z" fill="#3A3A3A"/>
<path d="M135.571 99.0703H130.357V104.284H135.571V99.0703Z" fill="#3A3A3A"/>
<path d="M135.571 93.8594H130.357V99.0732H135.571V93.8594Z" fill="#999999"/>
<path d="M135.571 88.6406H130.357V93.8545H135.571V88.6406Z" fill="#7A7A7A"/>
<path d="M135.571 83.4258H130.357V88.6412H135.571V83.4258Z" fill="#7A7A7A"/>
<path d="M135.571 78.2148H130.357V83.4287H135.571V78.2148Z" fill="#7A7A7A"/>
<path d="M135.571 73H130.357V78.2139H135.571V73Z" fill="#7A7A7A"/>
<path d="M135.571 67.7852H130.357V73.0006H135.571V67.7852Z" fill="#7A7A7A"/>
<path d="M135.571 62.5703H130.357V67.7842H135.571V62.5703Z" fill="#999999"/>
<path d="M135.571 57.3594H130.357V62.5732H135.571V57.3594Z" fill="#7A7A7A"/>
<path d="M135.571 52.1406H130.357V57.3545H135.571V52.1406Z" fill="#3A3A3A"/>
<path d="M130.358 109.5H125.145V114.714H130.358V109.5Z" fill="#3A3A3A"/>
<path d="M130.358 104.289H125.145V109.504H130.358V104.289Z" fill="#7A7A7A"/>
<path d="M130.358 99.0703H125.145V104.284H130.358V99.0703Z" fill="#999999"/>
<path d="M130.358 93.8594H125.145V99.0732H130.358V93.8594Z" fill="#7A7A7A"/>
<path d="M130.358 88.6406H125.145V93.8545H130.358V88.6406Z" fill="#7A7A7A"/>
<path d="M130.358 83.4258H125.145V88.6412H130.358V83.4258Z" fill="#3A3A3A"/>
<path d="M130.358 78.2148H125.145V83.4287H130.358V78.2148Z" fill="#3A3A3A"/>
<path d="M130.358 73H125.145V78.2139H130.358V73Z" fill="#3A3A3A"/>
<path d="M130.358 67.7852H125.145V73.0006H130.358V67.7852Z" fill="#3A3A3A"/>
<path d="M130.358 62.5703H125.145V67.7842H130.358V62.5703Z" fill="#7A7A7A"/>
<path d="M130.358 57.3594H125.145V62.5732H130.358V57.3594Z" fill="#999999"/>
<path d="M130.358 52.1406H125.145V57.3545H130.358V52.1406Z" fill="#3A3A3A"/>
<path d="M125.143 114.715H119.928V119.929H125.143V114.715Z" fill="#3A3A3A"/>
<path d="M125.143 109.5H119.928V114.714H125.143V109.5Z" fill="#7A7A7A"/>
<path d="M125.143 104.289H119.928V109.504H125.143V104.289Z" fill="#999999"/>
<path d="M125.143 99.0703H119.928V104.284H125.143V99.0703Z" fill="#7A7A7A"/>
<path d="M125.143 93.8594H119.928V99.0732H125.143V93.8594Z" fill="#3A3A3A"/>
<path d="M125.143 88.6406H119.928V93.8545H125.143V88.6406Z" fill="#3A3A3A"/>
<path d="M125.143 67.7852H119.928V73.0006H125.143V67.7852Z" fill="#3A3A3A"/>
<path d="M125.143 62.5703H119.928V67.7842H125.143V62.5703Z" fill="#7A7A7A"/>
<path d="M125.143 57.3594H119.928V62.5732H125.143V57.3594Z" fill="#7A7A7A"/>
<path d="M125.143 52.1406H119.928V57.3545H125.143V52.1406Z" fill="#3A3A3A"/>
<path d="M119.929 114.715H114.715V119.929H119.929V114.715Z" fill="#3A3A3A"/>
<path d="M119.929 109.5H114.715V114.714H119.929V109.5Z" fill="#999999"/>
<path d="M119.929 104.289H114.715V109.504H119.929V104.289Z" fill="#7A7A7A"/>
<path d="M119.929 99.0703H114.715V104.284H119.929V99.0703Z" fill="#3A3A3A"/>
<path d="M119.929 62.5703H114.715V67.7842H119.929V62.5703Z" fill="#3A3A3A"/>
<path d="M119.929 57.3594H114.715V62.5732H119.929V57.3594Z" fill="#3A3A3A"/>
<path d="M114.714 119.926H109.5V125.14H114.714V119.926Z" fill="#3A3A3A"/>
<path d="M114.714 114.715H109.5V119.929H114.714V114.715Z" fill="#7A7A7A"/>
<path d="M114.714 109.5H109.5V114.714H114.714V109.5Z" fill="#7A7A7A"/>
<path d="M114.714 104.289H109.5V109.504H114.714V104.289Z" fill="#3A3A3A"/>
<path d="M109.499 119.926H104.285V125.14H109.499V119.926Z" fill="#3A3A3A"/>
<path d="M109.499 114.715H104.285V119.929H109.499V114.715Z" fill="#999999"/>
<path d="M109.499 109.5H104.285V114.714H109.499V109.5Z" fill="#999999"/>
<path d="M109.499 104.289H104.285V109.504H109.499V104.289Z" fill="#3A3A3A"/>
<path d="M104.286 119.926H99.0703V125.14H104.286V119.926Z" fill="#3A3A3A"/>
<path d="M104.286 114.715H99.0703V119.929H104.286V114.715Z" fill="#7A7A7A"/>
<path d="M104.286 109.5H99.0703V114.714H104.286V109.5Z" fill="#7A7A7A"/>
<path d="M104.286 104.289H99.0703V109.504H104.286V104.289Z" fill="#3A3A3A"/>
<path d="M99.0713 119.926H93.8574V125.14H99.0713V119.926Z" fill="#3A3A3A"/>
<path d="M99.0713 114.715H93.8574V119.929H99.0713V114.715Z" fill="#7A7A7A"/>
<path d="M99.0713 109.5H93.8574V114.714H99.0713V109.5Z" fill="#7A7A7A"/>
<path d="M99.0713 104.289H93.8574V109.504H99.0713V104.289Z" fill="#7A7A7A"/>
<path d="M99.0713 99.0703H93.8574V104.284H99.0713V99.0703Z" fill="#7A7A7A"/>
<path d="M99.0713 93.8594H93.8574V99.0732H99.0713V93.8594Z" fill="#7A7A7A"/>
<path d="M99.0713 88.6406H93.8574V93.8545H99.0713V88.6406Z" fill="#7A7A7A"/>
<path d="M99.0713 83.4258H93.8574V88.6412H99.0713V83.4258Z" fill="#7A7A7A"/>
<path d="M99.0713 78.2148H93.8574V83.4287H99.0713V78.2148Z" fill="#7A7A7A"/>
<path d="M93.8584 125.141H88.6445V130.356H93.8584V125.141Z" fill="#3A3A3A"/>
<path d="M93.8584 119.926H88.6445V125.14H93.8584V119.926Z" fill="#7A7A7A"/>
<path d="M93.8584 114.715H88.6445V119.929H93.8584V114.715Z" fill="#7A7A7A"/>
<path d="M93.8584 109.5H88.6445V114.714H93.8584V109.5Z" fill="#999999"/>
<path d="M93.8584 104.289H88.6445V109.504H93.8584V104.289Z" fill="#7A7A7A"/>
<path d="M93.8584 99.0703H88.6445V104.284H93.8584V99.0703Z" fill="#7A7A7A"/>
<path d="M93.8584 93.8594H88.6445V99.0732H93.8584V93.8594Z" fill="#7A7A7A"/>
<path d="M93.8584 88.6406H88.6445V93.8545H93.8584V88.6406Z" fill="#999999"/>
<path d="M93.8584 83.4258H88.6445V88.6412H93.8584V83.4258Z" fill="#7A7A7A"/>
<path d="M93.8584 78.2148H88.6445V83.4287H93.8584V78.2148Z" fill="#7A7A7A"/>
<path d="M93.8584 73H88.6445V78.2139H93.8584V73Z" fill="#7A7A7A"/>
<path d="M93.8584 67.7852H88.6445V73.0006H93.8584V67.7852Z" fill="#7A7A7A"/>
<path d="M93.8584 62.5703H88.6445V67.7842H93.8584V62.5703Z" fill="#7A7A7A"/>
<path d="M88.6435 130.359H83.4297V135.573H88.6435V130.359Z" fill="#3A3A3A"/>
<path d="M88.6435 125.141H83.4297V130.356H88.6435V125.141Z" fill="#7A7A7A"/>
<path d="M88.6435 119.926H83.4297V125.14H88.6435V119.926Z" fill="#7A7A7A"/>
<path d="M88.6435 114.715H83.4297V119.929H88.6435V114.715Z" fill="#7A7A7A"/>
<path d="M88.6435 109.5H83.4297V114.714H88.6435V109.5Z" fill="#999999"/>
<path d="M88.6435 104.289H83.4297V109.504H88.6435V104.289Z" fill="#7A7A7A"/>
<path d="M88.6435 99.0703H83.4297V104.284H88.6435V99.0703Z" fill="#999999"/>
<path d="M88.6435 93.8594H83.4297V99.0732H88.6435V93.8594Z" fill="#999999"/>
<path d="M88.6435 88.6406H83.4297V93.8545H88.6435V88.6406Z" fill="#7A7A7A"/>
<path d="M88.6435 83.4258H83.4297V88.6412H88.6435V83.4258Z" fill="#7A7A7A"/>
<path d="M88.6435 78.2148H83.4297V83.4287H88.6435V78.2148Z" fill="#999999"/>
<path d="M88.6435 73H83.4297V78.2139H88.6435V73Z" fill="#7A7A7A"/>
<path d="M88.6435 67.7852H83.4297V73.0006H88.6435V67.7852Z" fill="#7A7A7A"/>
<path d="M88.6435 62.5703H83.4297V67.7842H88.6435V62.5703Z" fill="#7A7A7A"/>
<path d="M88.6435 57.3594H83.4297V62.5732H88.6435V57.3594Z" fill="#7A7A7A"/>
<path d="M88.6435 52.1406H83.4297V57.3545H88.6435V52.1406Z" fill="#3A3A3A"/>
<path d="M88.6435 46.9258H83.4297V52.1412H88.6435V46.9258Z" fill="#7A7A7A"/>
<path d="M88.6435 41.7148H83.4297V46.9287H88.6435V41.7148Z" fill="#3A3A3A"/>
<path d="M83.4303 130.359H78.2148V135.573H83.4303V130.359Z" fill="#3A3A3A"/>
<path d="M83.4303 125.141H78.2148V130.356H83.4303V125.141Z" fill="#7A7A7A"/>
<path d="M83.4303 119.926H78.2148V125.14H83.4303V119.926Z" fill="#999999"/>
<path d="M83.4303 114.715H78.2148V119.929H83.4303V114.715Z" fill="#999999"/>
<path d="M83.4303 109.5H78.2148V114.714H83.4303V109.5Z" fill="#999999"/>
<path d="M83.4303 104.289H78.2148V109.504H83.4303V104.289Z" fill="#999999"/>
<path d="M83.4303 99.0703H78.2148V104.284H83.4303V99.0703Z" fill="#999999"/>
<path d="M83.4303 93.8594H78.2148V99.0732H83.4303V93.8594Z" fill="#7A7A7A"/>
<path d="M83.4303 88.6406H78.2148V93.8545H83.4303V88.6406Z" fill="#999999"/>
<path d="M83.4303 83.4258H78.2148V88.6412H83.4303V83.4258Z" fill="#7A7A7A"/>
<path d="M83.4303 78.2148H78.2148V83.4287H83.4303V78.2148Z" fill="#999999"/>
<path d="M83.4303 73H78.2148V78.2139H83.4303V73Z" fill="#999999"/>
<path d="M83.4303 67.7852H78.2148V73.0006H83.4303V67.7852Z" fill="#999999"/>
<path d="M83.4303 62.5703H78.2148V67.7842H83.4303V62.5703Z" fill="#999999"/>
<path d="M83.4303 57.3594H78.2148V62.5732H83.4303V57.3594Z" fill="#999999"/>
<path d="M83.4303 52.1406H78.2148V57.3545H83.4303V52.1406Z" fill="#3A3A3A"/>
<path d="M83.4303 46.9258H78.2148V52.1412H83.4303V46.9258Z" fill="#FFA99F"/>
<path d="M83.4303 41.7148H78.2148V46.9287H83.4303V41.7148Z" fill="#3A3A3A"/>
<path d="M83.4303 36.5H78.2148V41.7139H83.4303V36.5Z" fill="#7A7A7A"/>
<path d="M83.4303 31.2852H78.2148V36.499H83.4303V31.2852Z" fill="#7A7A7A"/>
<path d="M83.4303 26.0703H78.2148V31.2857H83.4303V26.0703Z" fill="#7A7A7A"/>
<path d="M78.2139 135.57H73V140.784H78.2139V135.57Z" fill="#3A3A3A"/>
<path d="M78.2139 130.359H73V135.573H78.2139V130.359Z" fill="#3A3A3A"/>
<path d="M78.2139 125.141H73V130.356H78.2139V125.141Z" fill="#3A3A3A"/>
<path d="M78.2139 119.926H73V125.14H78.2139V119.926Z" fill="#3A3A3A"/>
<path d="M78.2139 114.715H73V119.929H78.2139V114.715Z" fill="#999999"/>
<path d="M78.2139 109.5H73V114.714H78.2139V109.5Z" fill="#999999"/>
<path d="M78.2139 104.289H73V109.504H78.2139V104.289Z" fill="#999999"/>
<path d="M78.2139 99.0703H73V104.284H78.2139V99.0703Z" fill="#999999"/>
<path d="M78.2139 93.8594H73V99.0732H78.2139V93.8594Z" fill="#999999"/>
<path d="M78.2139 88.6406H73V93.8545H78.2139V88.6406Z" fill="#999999"/>
<path d="M78.2139 83.4258H73V88.6412H78.2139V83.4258Z" fill="#999999"/>
<path d="M78.2139 78.2148H73V83.4287H78.2139V78.2148Z" fill="#999999"/>
<path d="M78.2139 73H73V78.2139H78.2139V73Z" fill="#999999"/>
<path d="M78.2139 67.7852H73V73.0006H78.2139V67.7852Z" fill="#999999"/>
<path d="M78.2139 62.5703H73V67.7842H78.2139V62.5703Z" fill="#999999"/>
<path d="M78.2139 57.3594H73V62.5732H78.2139V57.3594Z" fill="#999999"/>
<path d="M78.2139 52.1406H73V57.3545H78.2139V52.1406Z" fill="#3A3A3A"/>
<path d="M78.2139 46.9258H73V52.1412H78.2139V46.9258Z" fill="#FFA99F"/>
<path d="M78.2139 41.7148H73V46.9287H78.2139V41.7148Z" fill="#3A3A3A"/>
<path d="M78.2139 36.5H73V41.7139H78.2139V36.5Z" fill="#999999"/>
<path d="M78.2139 31.2852H73V36.499H78.2139V31.2852Z" fill="#999999"/>
<path d="M78.2139 26.0703H73V31.2857H78.2139V26.0703Z" fill="#999999"/>
<path d="M78.2139 20.8594H73V26.0732H78.2139V20.8594Z" fill="#7A7A7A"/>
<path d="M78.2139 15.6406H73V20.8545H78.2139V15.6406Z" fill="#7A7A7A"/>
<path d="M72.999 140.789H67.7852V146.003H72.999V140.789Z" fill="#3A3A3A"/>
<path d="M72.999 135.57H67.7852V140.784H72.999V135.57Z" fill="#7A7A7A"/>
<path d="M72.999 130.359H67.7852V135.573H72.999V130.359Z" fill="#7A7A7A"/>
<path d="M72.999 125.141H67.7852V130.356H72.999V125.141Z" fill="#7A7A7A"/>
<path d="M72.999 119.926H67.7852V125.14H72.999V119.926Z" fill="#999999"/>
<path d="M72.999 114.715H67.7852V119.929H72.999V114.715Z" fill="#999999"/>
<path d="M72.999 109.5H67.7852V114.714H72.999V109.5Z" fill="#999999"/>
<path d="M72.999 104.289H67.7852V109.504H72.999V104.289Z" fill="#999999"/>
<path d="M72.999 99.0703H67.7852V104.284H72.999V99.0703Z" fill="#999999"/>
<path d="M72.999 93.8594H67.7852V99.0732H72.999V93.8594Z" fill="#999999"/>
<path d="M72.999 88.6406H67.7852V93.8545H72.999V88.6406Z" fill="#999999"/>
<path d="M72.999 83.4258H67.7852V88.6412H72.999V83.4258Z" fill="#999999"/>
<path d="M72.999 78.2148H67.7852V83.4287H72.999V78.2148Z" fill="#999999"/>
<path d="M72.999 73H67.7852V78.2139H72.999V73Z" fill="#999999"/>
<path d="M72.999 67.7852H67.7852V73.0006H72.999V67.7852Z" fill="#999999"/>
<path d="M72.999 62.5703H67.7852V67.7842H72.999V62.5703Z" fill="#999999"/>
<path d="M72.999 57.3594H67.7852V62.5732H72.999V57.3594Z" fill="#999999"/>
<path d="M72.999 52.1406H67.7852V57.3545H72.999V52.1406Z" fill="#999999"/>
<path d="M72.999 46.9258H67.7852V52.1412H72.999V46.9258Z" fill="#FFA99F"/>
<path d="M72.999 41.7148H67.7852V46.9287H72.999V41.7148Z" fill="#999999"/>
<path d="M72.999 36.5H67.7852V41.7139H72.999V36.5Z" fill="#999999"/>
<path d="M72.999 31.2852H67.7852V36.499H72.999V31.2852Z" fill="#999999"/>
<path d="M72.999 26.0703H67.7852V31.2857H72.999V26.0703Z" fill="#999999"/>
<path d="M72.999 20.8594H67.7852V26.0732H72.999V20.8594Z" fill="#999999"/>
<path d="M72.999 15.6406H67.7852V20.8545H72.999V15.6406Z" fill="#7A7A7A"/>
<path d="M72.999 10.4297H67.7852V15.6435H72.999V10.4297Z" fill="#7A7A7A"/>
<path d="M72.999 5.21484H67.7852V10.4303H72.999V5.21484Z" fill="#7A7A7A"/>
<path d="M67.7861 140.789H62.5723V146.003H67.7861V140.789Z" fill="#3A3A3A"/>
<path d="M67.7861 135.57H62.5723V140.784H67.7861V135.57Z" fill="#7A7A7A"/>
<path d="M67.7861 130.359H62.5723V135.573H67.7861V130.359Z" fill="#AFAFAF"/>
<path d="M67.7861 125.141H62.5723V130.356H67.7861V125.141Z" fill="#AFAFAF"/>
<path d="M67.7861 119.926H62.5723V125.14H67.7861V119.926Z" fill="#CECECE"/>
<path d="M67.7861 114.715H62.5723V119.929H67.7861V114.715Z" fill="#CECECE"/>
<path d="M67.7861 78.2148H62.5723V83.4287H67.7861V78.2148Z" fill="#999999"/>
<path d="M67.7861 73H62.5723V78.2139H67.7861V73Z" fill="#999999"/>
<path d="M67.7861 67.7852H62.5723V73.0006H67.7861V67.7852Z" fill="#999999"/>
<path d="M67.7861 62.5703H62.5723V67.7842H67.7861V62.5703Z" fill="#999999"/>
<path d="M67.7861 57.3594H62.5723V62.5732H67.7861V57.3594Z" fill="#999999"/>
<path d="M67.7861 52.1406H62.5723V57.3545H67.7861V52.1406Z" fill="#999999"/>
<path d="M67.7861 46.9258H62.5723V52.1412H67.7861V46.9258Z" fill="#999999"/>
<path d="M67.7861 41.7148H62.5723V46.9287H67.7861V41.7148Z" fill="#999999"/>
<path d="M67.7861 36.5H62.5723V41.7139H67.7861V36.5Z" fill="#3A3A3A"/>
<path d="M67.7861 31.2852H62.5723V36.499H67.7861V31.2852Z" fill="#3A3A3A"/>
<path d="M67.7861 26.0703H62.5723V31.2857H67.7861V26.0703Z" fill="#3A3A3A"/>
<path d="M67.7861 20.8594H62.5723V26.0732H67.7861V20.8594Z" fill="#999999"/>
<path d="M67.7861 15.6406H62.5723V20.8545H67.7861V15.6406Z" fill="#999999"/>
<path d="M67.7861 10.4297H62.5723V15.6435H67.7861V10.4297Z" fill="#FFBEAB"/>
<path d="M67.7861 5.21484H62.5723V10.4303H67.7861V5.21484Z" fill="#FFBEAB"/>
<path d="M67.7861 0H62.5723V5.21385H67.7861V0Z" fill="#7A7A7A"/>
<path d="M62.5728 135.57H57.3574V140.784H62.5728V135.57Z" fill="#3A3A3A"/>
<path d="M62.5728 130.359H57.3574V135.573H62.5728V130.359Z" fill="#3A3A3A"/>
<path d="M62.5728 125.141H57.3574V130.356H62.5728V125.141Z" fill="#3A3A3A"/>
<path d="M62.5728 119.926H57.3574V125.14H62.5728V119.926Z" fill="#CECECE"/>
<path d="M62.5728 109.5H57.3574V114.714H62.5728V109.5Z" fill="#CECECE"/>
<path d="M62.5728 73H57.3574V78.2139H62.5728V73Z" fill="#999999"/>
<path d="M62.5728 67.7852H57.3574V73.0006H62.5728V67.7852Z" fill="#999999"/>
<path d="M62.5728 62.5703H57.3574V67.7842H62.5728V62.5703Z" fill="#999999"/>
<path d="M62.5728 57.3594H57.3574V62.5732H62.5728V57.3594Z" fill="#3A3A3A"/>
<path d="M62.5728 52.1406H57.3574V57.3545H62.5728V52.1406Z" fill="#999999"/>
<path d="M62.5728 46.9258H57.3574V52.1412H62.5728V46.9258Z" fill="#999999"/>
<path d="M62.5728 41.7148H57.3574V46.9287H62.5728V41.7148Z" fill="#999999"/>
<path d="M62.5728 36.5H57.3574V41.7139H62.5728V36.5Z" fill="#999999"/>
<path d="M62.5728 31.2852H57.3574V36.499H62.5728V31.2852Z" fill="#999999"/>
<path d="M62.5728 26.0703H57.3574V31.2857H62.5728V26.0703Z" fill="#999999"/>
<path d="M62.5728 20.8594H57.3574V26.0732H62.5728V20.8594Z" fill="#999999"/>
<path d="M62.5728 15.6406H57.3574V20.8545H62.5728V15.6406Z" fill="#999999"/>
<path d="M62.5728 10.4297H57.3574V15.6435H62.5728V10.4297Z" fill="#FFBEAB"/>
<path d="M62.5728 5.21484H57.3574V10.4303H62.5728V5.21484Z" fill="#7A7A7A"/>
<path d="M57.3564 130.359H52.1426V135.573H57.3564V130.359Z" fill="#3A3A3A"/>
<path d="M57.3564 125.141H52.1426V130.356H57.3564V125.141Z" fill="#CECECE"/>
<path d="M57.3564 114.715H52.1426V119.929H57.3564V114.715Z" fill="#CECECE"/>
<path d="M57.3564 67.7852H52.1426V73.0006H57.3564V67.7852Z" fill="#999999"/>
<path d="M57.3564 62.5703H52.1426V67.7842H57.3564V62.5703Z" fill="#999999"/>
<path d="M57.3564 57.3594H52.1426V62.5732H57.3564V57.3594Z" fill="#999999"/>
<path d="M57.3564 52.1406H52.1426V57.3545H57.3564V52.1406Z" fill="#3A3A3A"/>
<path d="M57.3564 46.9258H52.1426V52.1412H57.3564V46.9258Z" fill="#999999"/>
<path d="M57.3564 41.7148H52.1426V46.9287H57.3564V41.7148Z" fill="#999999"/>
<path d="M57.3564 36.5H52.1426V41.7139H57.3564V36.5Z" fill="#999999"/>
<path d="M57.3564 31.2852H52.1426V36.499H57.3564V31.2852Z" fill="#999999"/>
<path d="M57.3564 26.0703H52.1426V31.2857H57.3564V26.0703Z" fill="#999999"/>
<path d="M57.3564 20.8594H52.1426V26.0732H57.3564V20.8594Z" fill="#999999"/>
<path d="M57.3564 15.6406H52.1426V20.8545H57.3564V15.6406Z" fill="#7A7A7A"/>
<path d="M57.3564 10.4297H52.1426V15.6435H57.3564V10.4297Z" fill="#7A7A7A"/>
<path d="M52.1435 130.359H46.9297V135.573H52.1435V130.359Z" fill="#3A3A3A"/>
<path d="M52.1435 125.141H46.9297V130.356H52.1435V125.141Z" fill="#CECECE"/>
<path d="M52.1435 119.926H46.9297V125.14H52.1435V119.926Z" fill="#CECECE"/>
<path d="M52.1435 67.7852H46.9297V73.0006H52.1435V67.7852Z" fill="#999999"/>
<path d="M52.1435 62.5703H46.9297V67.7842H52.1435V62.5703Z" fill="#999999"/>
<path d="M52.1435 57.3594H46.9297V62.5732H52.1435V57.3594Z" fill="#999999"/>
<path d="M52.1435 52.1406H46.9297V57.3545H52.1435V52.1406Z" fill="#3A3A3A"/>
<path d="M52.1435 46.9258H46.9297V52.1412H52.1435V46.9258Z" fill="#999999"/>
<path d="M52.1435 41.7148H46.9297V46.9287H52.1435V41.7148Z" fill="#FFBEAB"/>
<path d="M52.1435 36.5H46.9297V41.7139H52.1435V36.5Z" fill="#999999"/>
<path d="M52.1435 31.2852H46.9297V36.499H52.1435V31.2852Z" fill="#999999"/>
<path d="M52.1435 26.0703H46.9297V31.2857H52.1435V26.0703Z" fill="#999999"/>
<path d="M52.1435 20.8594H46.9297V26.0732H52.1435V20.8594Z" fill="#999999"/>
<path d="M52.1435 15.6406H46.9297V20.8545H52.1435V15.6406Z" fill="#999999"/>
<path d="M52.1435 10.4297H46.9297V15.6435H52.1435V10.4297Z" fill="#7A7A7A"/>
<path d="M46.9306 130.359H41.7168V135.573H46.9306V130.359Z" fill="#3A3A3A"/>
<path d="M46.9306 125.141H41.7168V130.356H46.9306V125.141Z" fill="#CECECE"/>
<path d="M46.9306 119.926H41.7168V125.14H46.9306V119.926Z" fill="#CECECE"/>
<path d="M46.9306 114.715H41.7168V119.929H46.9306V114.715Z" fill="#CECECE"/>
<path d="M46.9306 109.5H41.7168V114.714H46.9306V109.5Z" fill="#CECECE"/>
<path d="M46.9306 67.7852H41.7168V73.0006H46.9306V67.7852Z" fill="#999999"/>
<path d="M46.9306 62.5703H41.7168V67.7842H46.9306V62.5703Z" fill="#999999"/>
<path d="M46.9306 57.3594H41.7168V62.5732H46.9306V57.3594Z" fill="#999999"/>
<path d="M46.9306 52.1406H41.7168V57.3545H46.9306V52.1406Z" fill="#3A3A3A"/>
<path d="M46.9306 46.9258H41.7168V52.1412H46.9306V46.9258Z" fill="#999999"/>
<path d="M46.9306 41.7148H41.7168V46.9287H46.9306V41.7148Z" fill="#999999"/>
<path d="M46.9306 36.5H41.7168V41.7139H46.9306V36.5Z" fill="#999999"/>
<path d="M46.9306 31.2852H41.7168V36.499H46.9306V31.2852Z" fill="#999999"/>
<path d="M46.9306 26.0703H41.7168V31.2857H46.9306V26.0703Z" fill="#999999"/>
<path d="M46.9306 20.8594H41.7168V26.0732H46.9306V20.8594Z" fill="#999999"/>
<path d="M46.9306 15.6406H41.7168V20.8545H46.9306V15.6406Z" fill="#7A7A7A"/>
<path d="M46.9306 10.4297H41.7168V15.6435H46.9306V10.4297Z" fill="#7A7A7A"/>
<path d="M41.7154 135.57H36.5V140.784H41.7154V135.57Z" fill="#3A3A3A"/>
<path d="M41.7154 130.359H36.5V135.573H41.7154V130.359Z" fill="#3A3A3A"/>
<path d="M41.7154 125.141H36.5V130.356H41.7154V125.141Z" fill="#3A3A3A"/>
<path d="M41.7154 114.715H36.5V119.929H41.7154V114.715Z" fill="#CECECE"/>
<path d="M41.7154 73H36.5V78.2139H41.7154V73Z" fill="#999999"/>
<path d="M41.7154 67.7852H36.5V73.0006H41.7154V67.7852Z" fill="#999999"/>
<path d="M41.7154 62.5703H36.5V67.7842H41.7154V62.5703Z" fill="#999999"/>
<path d="M41.7154 57.3594H36.5V62.5732H41.7154V57.3594Z" fill="#3A3A3A"/>
<path d="M41.7154 52.1406H36.5V57.3545H41.7154V52.1406Z" fill="#999999"/>
<path d="M41.7154 46.9258H36.5V52.1412H41.7154V46.9258Z" fill="#999999"/>
<path d="M41.7154 41.7148H36.5V46.9287H41.7154V41.7148Z" fill="#999999"/>
<path d="M41.7154 36.5H36.5V41.7139H41.7154V36.5Z" fill="#999999"/>
<path d="M41.7154 31.2852H36.5V36.499H41.7154V31.2852Z" fill="#999999"/>
<path d="M41.7154 26.0703H36.5V31.2857H41.7154V26.0703Z" fill="#999999"/>
<path d="M41.7154 20.8594H36.5V26.0732H41.7154V20.8594Z" fill="#999999"/>
<path d="M41.7154 15.6406H36.5V20.8545H41.7154V15.6406Z" fill="#999999"/>
<path d="M41.7154 10.4297H36.5V15.6435H41.7154V10.4297Z" fill="#FFBEAB"/>
<path d="M41.7154 5.21484H36.5V10.4303H41.7154V5.21484Z" fill="#7A7A7A"/>
<path d="M36.499 140.789H31.2852V146.003H36.499V140.789Z" fill="#3A3A3A"/>
<path d="M36.499 135.57H31.2852V140.784H36.499V135.57Z" fill="#7A7A7A"/>
<path d="M36.499 130.359H31.2852V135.573H36.499V130.359Z" fill="#7A7A7A"/>
<path d="M36.499 125.141H31.2852V130.356H36.499V125.141Z" fill="#999999"/>
<path d="M36.499 119.926H31.2852V125.14H36.499V119.926Z" fill="#CECECE"/>
<path d="M36.499 78.2148H31.2852V83.4287H36.499V78.2148Z" fill="#999999"/>
<path d="M36.499 73H31.2852V78.2139H36.499V73Z" fill="#999999"/>
<path d="M36.499 67.7852H31.2852V73.0006H36.499V67.7852Z" fill="#999999"/>
<path d="M36.499 62.5703H31.2852V67.7842H36.499V62.5703Z" fill="#999999"/>
<path d="M36.499 57.3594H31.2852V62.5732H36.499V57.3594Z" fill="#999999"/>
<path d="M36.499 52.1406H31.2852V57.3545H36.499V52.1406Z" fill="#999999"/>
<path d="M36.499 46.9258H31.2852V52.1412H36.499V46.9258Z" fill="#999999"/>
<path d="M36.499 41.7148H31.2852V46.9287H36.499V41.7148Z" fill="#999999"/>
<path d="M36.499 36.5H31.2852V41.7139H36.499V36.5Z" fill="#3A3A3A"/>
<path d="M36.499 31.2852H31.2852V36.499H36.499V31.2852Z" fill="#3A3A3A"/>
<path d="M36.499 26.0703H31.2852V31.2857H36.499V26.0703Z" fill="#3A3A3A"/>
<path d="M36.499 20.8594H31.2852V26.0732H36.499V20.8594Z" fill="#999999"/>
<path d="M36.499 15.6406H31.2852V20.8545H36.499V15.6406Z" fill="#999999"/>
<path d="M36.499 10.4297H31.2852V15.6435H36.499V10.4297Z" fill="#FFBEAB"/>
<path d="M36.499 5.21484H31.2852V10.4303H36.499V5.21484Z" fill="#FFBEAB"/>
<path d="M36.499 0H31.2852V5.21385H36.499V0Z" fill="#7A7A7A"/>
<path d="M31.2861 140.789H26.0723V146.003H31.2861V140.789Z" fill="#3A3A3A"/>
<path d="M31.2861 135.57H26.0723V140.784H31.2861V135.57Z" fill="#7A7A7A"/>
<path d="M31.2861 130.359H26.0723V135.573H31.2861V130.359Z" fill="#AFAFAF"/>
<path d="M31.2861 125.141H26.0723V130.356H31.2861V125.141Z" fill="#999999"/>
<path d="M31.2861 119.926H26.0723V125.14H31.2861V119.926Z" fill="#AFAFAF"/>
<path d="M31.2861 114.715H26.0723V119.929H31.2861V114.715Z" fill="#999999"/>
<path d="M31.2861 109.5H26.0723V114.714H31.2861V109.5Z" fill="#999999"/>
<path d="M31.2861 104.289H26.0723V109.504H31.2861V104.289Z" fill="#999999"/>
<path d="M31.2861 99.0703H26.0723V104.284H31.2861V99.0703Z" fill="#999999"/>
<path d="M31.2861 93.8594H26.0723V99.0732H31.2861V93.8594Z" fill="#999999"/>
<path d="M31.2861 88.6406H26.0723V93.8545H31.2861V88.6406Z" fill="#999999"/>
<path d="M31.2861 83.4258H26.0723V88.6412H31.2861V83.4258Z" fill="#999999"/>
<path d="M31.2861 78.2148H26.0723V83.4287H31.2861V78.2148Z" fill="#999999"/>
<path d="M31.2861 73H26.0723V78.2139H31.2861V73Z" fill="#999999"/>
<path d="M31.2861 67.7852H26.0723V73.0006H31.2861V67.7852Z" fill="#999999"/>
<path d="M31.2861 62.5703H26.0723V67.7842H31.2861V62.5703Z" fill="#999999"/>
<path d="M31.2861 57.3594H26.0723V62.5732H31.2861V57.3594Z" fill="#999999"/>
<path d="M31.2861 52.1406H26.0723V57.3545H31.2861V52.1406Z" fill="#999999"/>
<path d="M31.2861 46.9258H26.0723V52.1412H31.2861V46.9258Z" fill="#FFA99F"/>
<path d="M31.2861 41.7148H26.0723V46.9287H31.2861V41.7148Z" fill="#999999"/>
<path d="M31.2861 36.5H26.0723V41.7139H31.2861V36.5Z" fill="#999999"/>
<path d="M31.2861 31.2852H26.0723V36.499H31.2861V31.2852Z" fill="#999999"/>
<path d="M31.2861 26.0703H26.0723V31.2857H31.2861V26.0703Z" fill="#AFAFAF"/>
<path d="M31.2861 20.8594H26.0723V26.0732H31.2861V20.8594Z" fill="#999999"/>
<path d="M31.2861 15.6406H26.0723V20.8545H31.2861V15.6406Z" fill="#AFAFAF"/>
<path d="M31.2861 10.4297H26.0723V15.6435H31.2861V10.4297Z" fill="#7A7A7A"/>
<path d="M31.2861 5.21484H26.0723V10.4303H31.2861V5.21484Z" fill="#7A7A7A"/>
<path d="M26.0729 135.57H20.8574V140.784H26.0729V135.57Z" fill="#3A3A3A"/>
<path d="M26.0729 130.359H20.8574V135.573H26.0729V130.359Z" fill="#3A3A3A"/>
<path d="M26.0729 125.141H20.8574V130.356H26.0729V125.141Z" fill="#3A3A3A"/>
<path d="M26.0729 119.926H20.8574V125.14H26.0729V119.926Z" fill="#3A3A3A"/>
<path d="M26.0729 114.715H20.8574V119.929H26.0729V114.715Z" fill="#999999"/>
<path d="M26.0729 109.5H20.8574V114.714H26.0729V109.5Z" fill="#999999"/>
<path d="M26.0729 104.289H20.8574V109.504H26.0729V104.289Z" fill="#999999"/>
<path d="M26.0729 99.0703H20.8574V104.284H26.0729V99.0703Z" fill="#999999"/>
<path d="M26.0729 93.8594H20.8574V99.0732H26.0729V93.8594Z" fill="#999999"/>
<path d="M26.0729 88.6406H20.8574V93.8545H26.0729V88.6406Z" fill="#999999"/>
<path d="M26.0729 83.4258H20.8574V88.6412H26.0729V83.4258Z" fill="#999999"/>
<path d="M26.0729 78.2148H20.8574V83.4287H26.0729V78.2148Z" fill="#999999"/>
<path d="M26.0729 73H20.8574V78.2139H26.0729V73Z" fill="#999999"/>
<path d="M26.0729 67.7852H20.8574V73.0006H26.0729V67.7852Z" fill="#999999"/>
<path d="M26.0729 62.5703H20.8574V67.7842H26.0729V62.5703Z" fill="#AFAFAF"/>
<path d="M26.0729 57.3594H20.8574V62.5732H26.0729V57.3594Z" fill="#AFAFAF"/>
<path d="M26.0729 52.1406H20.8574V57.3545H26.0729V52.1406Z" fill="#3A3A3A"/>
<path d="M26.0729 46.9258H20.8574V52.1412H26.0729V46.9258Z" fill="#FFA99F"/>
<path d="M26.0729 41.7148H20.8574V46.9287H26.0729V41.7148Z" fill="#3A3A3A"/>
<path d="M26.0729 36.5H20.8574V41.7139H26.0729V36.5Z" fill="#AFAFAF"/>
<path d="M26.0729 31.2852H20.8574V36.499H26.0729V31.2852Z" fill="#AFAFAF"/>
<path d="M26.0729 26.0703H20.8574V31.2857H26.0729V26.0703Z" fill="#999999"/>
<path d="M26.0729 20.8594H20.8574V26.0732H26.0729V20.8594Z" fill="#7A7A7A"/>
<path d="M26.0729 15.6406H20.8574V20.8545H26.0729V15.6406Z" fill="#7A7A7A"/>
<path d="M20.8564 130.359H15.6426V135.573H20.8564V130.359Z" fill="#3A3A3A"/>
<path d="M20.8564 125.141H15.6426V130.356H20.8564V125.141Z" fill="#999999"/>
<path d="M20.8564 119.926H15.6426V125.14H20.8564V119.926Z" fill="#999999"/>
<path d="M20.8564 114.715H15.6426V119.929H20.8564V114.715Z" fill="#999999"/>
<path d="M20.8564 109.5H15.6426V114.714H20.8564V109.5Z" fill="#999999"/>
<path d="M20.8564 104.289H15.6426V109.504H20.8564V104.289Z" fill="#7A7A7A"/>
<path d="M20.8564 99.0703H15.6426V104.284H20.8564V99.0703Z" fill="#999999"/>
<path d="M20.8564 93.8594H15.6426V99.0732H20.8564V93.8594Z" fill="#7A7A7A"/>
<path d="M20.8564 88.6406H15.6426V93.8545H20.8564V88.6406Z" fill="#999999"/>
<path d="M20.8564 83.4258H15.6426V88.6412H20.8564V83.4258Z" fill="#999999"/>
<path d="M20.8564 78.2148H15.6426V83.4287H20.8564V78.2148Z" fill="#AFAFAF"/>
<path d="M20.8564 73H15.6426V78.2139H20.8564V73Z" fill="#999999"/>
<path d="M20.8564 67.7852H15.6426V73.0006H20.8564V67.7852Z" fill="#AFAFAF"/>
<path d="M20.8564 62.5703H15.6426V67.7842H20.8564V62.5703Z" fill="#999999"/>
<path d="M20.8564 57.3594H15.6426V62.5732H20.8564V57.3594Z" fill="#AFAFAF"/>
<path d="M20.8564 52.1406H15.6426V57.3545H20.8564V52.1406Z" fill="#3A3A3A"/>
<path d="M20.8564 46.9258H15.6426V52.1412H20.8564V46.9258Z" fill="#FFA99F"/>
<path d="M20.8564 41.7148H15.6426V46.9287H20.8564V41.7148Z" fill="#3A3A3A"/>
<path d="M20.8564 36.5H15.6426V41.7139H20.8564V36.5Z" fill="#7A7A7A"/>
<path d="M20.8564 31.2852H15.6426V36.499H20.8564V31.2852Z" fill="#7A7A7A"/>
<path d="M20.8564 26.0703H15.6426V31.2857H20.8564V26.0703Z" fill="#7A7A7A"/>
<path d="M15.6435 130.359H10.4297V135.573H15.6435V130.359Z" fill="#3A3A3A"/>
<path d="M15.6435 125.141H10.4297V130.356H15.6435V125.141Z" fill="#999999"/>
<path d="M15.6435 119.926H10.4297V125.14H15.6435V119.926Z" fill="#999999"/>
<path d="M15.6435 114.715H10.4297V119.929H15.6435V114.715Z" fill="#AFAFAF"/>
<path d="M15.6435 109.5H10.4297V114.714H15.6435V109.5Z" fill="#999999"/>
<path d="M15.6435 104.289H10.4297V109.504H15.6435V104.289Z" fill="#7A7A7A"/>
<path d="M15.6435 99.0703H10.4297V104.284H15.6435V99.0703Z" fill="#AFAFAF"/>
<path d="M15.6435 93.8594H10.4297V99.0732H15.6435V93.8594Z" fill="#AFAFAF"/>
<path d="M15.6435 88.6406H10.4297V93.8545H15.6435V88.6406Z" fill="#7A7A7A"/>
<path d="M15.6435 83.4258H10.4297V88.6412H15.6435V83.4258Z" fill="#7A7A7A"/>
<path d="M15.6435 78.2148H10.4297V83.4287H15.6435V78.2148Z" fill="#999999"/>
<path d="M15.6435 73H10.4297V78.2139H15.6435V73Z" fill="#AFAFAF"/>
<path d="M15.6435 67.7852H10.4297V73.0006H15.6435V67.7852Z" fill="#AFAFAF"/>
<path d="M15.6435 62.5703H10.4297V67.7842H15.6435V62.5703Z" fill="#AFAFAF"/>
<path d="M15.6435 57.3594H10.4297V62.5732H15.6435V57.3594Z" fill="#7A7A7A"/>
<path d="M15.6435 52.1406H10.4297V57.3545H15.6435V52.1406Z" fill="#3A3A3A"/>
<path d="M15.6435 46.9258H10.4297V52.1412H15.6435V46.9258Z" fill="#7A7A7A"/>
<path d="M15.6435 41.7148H10.4297V46.9287H15.6435V41.7148Z" fill="#3A3A3A"/>
<path d="M10.4287 125.141H5.21484V130.356H10.4287V125.141Z" fill="#3A3A3A"/>
<path d="M10.4287 119.926H5.21484V125.14H10.4287V119.926Z" fill="#AFAFAF"/>
<path d="M10.4287 114.715H5.21484V119.929H10.4287V114.715Z" fill="#999999"/>
<path d="M10.4287 109.5H5.21484V114.714H10.4287V109.5Z" fill="#AFAFAF"/>
<path d="M10.4287 104.289H5.21484V109.504H10.4287V104.289Z" fill="#7A7A7A"/>
<path d="M10.4287 99.0703H5.21484V104.284H10.4287V99.0703Z" fill="#7A7A7A"/>
<path d="M10.4287 93.8594H5.21484V99.0732H10.4287V93.8594Z" fill="#999999"/>
<path d="M10.4287 88.6406H5.21484V93.8545H10.4287V88.6406Z" fill="#AFAFAF"/>
<path d="M10.4287 83.4258H5.21484V88.6412H10.4287V83.4258Z" fill="#7A7A7A"/>
<path d="M10.4287 78.2148H5.21484V83.4287H10.4287V78.2148Z" fill="#7A7A7A"/>
<path d="M10.4287 73H5.21484V78.2139H10.4287V73Z" fill="#7A7A7A"/>
<path d="M10.4287 67.7852H5.21484V73.0006H10.4287V67.7852Z" fill="#7A7A7A"/>
<path d="M10.4287 62.5703H5.21484V67.7842H10.4287V62.5703Z" fill="#7A7A7A"/>
<path d="M5.21543 119.926H0V125.14H5.21543V119.926Z" fill="#7A7A7A"/>
<path d="M5.21543 114.715H0V119.929H5.21543V114.715Z" fill="#7A7A7A"/>
<path d="M5.21543 109.5H0V114.714H5.21543V109.5Z" fill="#7A7A7A"/>
<path d="M5.21543 104.289H0V109.504H5.21543V104.289Z" fill="#7A7A7A"/>
<path d="M5.21543 99.0703H0V104.284H5.21543V99.0703Z" fill="#7A7A7A"/>
<path d="M5.21543 93.8594H0V99.0732H5.21543V93.8594Z" fill="#7A7A7A"/>
<path d="M5.21543 88.6406H0V93.8545H5.21543V88.6406Z" fill="#7A7A7A"/>
<path d="M5.21543 83.4258H0V88.6412H5.21543V83.4258Z" fill="#7A7A7A"/>
<path d="M5.21543 78.2148H0V83.4287H5.21543V78.2148Z" fill="#7A7A7A"/>
</svg>
